# Blender 4.1.1
# www.blender.org
mtllib jerrycancentered.mtl
o Jerry_Can
v -1.449664 0.331495 0.676332
v 0.217353 0.331495 0.676332
v -1.449664 3.762267 0.681153
v 0.071076 3.213229 0.681153
v -1.449664 3.762267 -0.687767
v 0.071076 3.213229 -0.687767
v -1.449664 0.331495 -0.682944
v 0.217353 0.331495 -0.682944
v -1.449664 3.762267 0.518972
v -1.449664 0.331495 0.518973
v 0.217353 0.331495 0.518973
v 0.071076 3.213229 0.518972
v -1.449664 0.331495 -0.548238
v -1.449664 3.762267 -0.548238
v 0.071076 3.213229 -0.548238
v 0.217353 0.331495 -0.548238
v -1.771540 0.632122 0.867159
v -1.771540 0.632122 0.518973
v -1.771540 0.632122 -0.548238
v -1.771540 0.632122 -0.873771
v 0.476466 0.632122 -0.873771
v 0.476466 0.632122 -0.548238
v 0.476466 0.632122 0.518973
v 0.476466 0.632122 0.867159
v -1.771540 2.505762 -0.873772
v -1.771540 2.505762 -0.548238
v -1.771540 2.505762 0.518972
v -1.771540 2.505762 0.867159
v 0.476466 2.505762 0.867159
v 0.476466 2.505762 0.518972
v 0.476466 2.505762 -0.548238
v 0.476466 2.505762 -0.873772
v -1.055388 0.331495 0.676332
v -1.261067 0.632122 0.867159
v -1.261067 2.505762 0.867159
v -1.055388 3.213229 0.681153
v -1.055388 3.213229 0.518972
v -1.055388 3.213229 -0.548238
v -1.055388 3.213229 -0.687767
v -1.261067 2.505762 -0.873772
v -1.261067 0.632122 -0.873771
v -1.055388 0.331495 -0.682944
v -1.055388 0.331495 -0.548238
v -1.055388 0.331495 0.518973
v -1.439661 3.616680 0.267037
v -0.114644 3.616680 0.267037
v -1.439661 3.733582 0.267037
v -0.209719 3.704714 0.267037
v -1.439661 3.733582 -0.313102
v -0.209719 3.704714 -0.313102
v -1.439661 3.616680 -0.313102
v -0.114644 3.616680 -0.313102
v -0.314644 3.616680 0.267037
v -0.314644 3.733582 0.267037
v -0.314644 3.733582 -0.313102
v -0.314644 3.616680 -0.313102
v -0.314644 3.124641 -0.313102
v -0.314644 3.124641 0.267037
v -0.114644 3.124641 -0.313102
v -0.114644 3.124641 0.267037
v 1.523851 3.449646 -0.011760
v 1.508853 3.472325 -0.023023
v 1.493856 3.495005 -0.011760
v 1.487644 3.504399 0.015430
v 1.493856 3.495005 0.042621
v 1.508853 3.472325 0.053881
v 1.523851 3.449646 0.042621
v 1.530063 3.440251 0.015430
v 1.508853 3.472325 0.015430
v 1.065602 3.205621 -0.070384
v 1.085208 3.175971 0.015430
v 1.065602 3.205621 0.101244
v 1.018268 3.277200 0.136789
v 0.970935 3.348779 0.101244
v 0.951329 3.378428 0.015430
v 0.970935 3.348779 -0.070384
v 1.018268 3.277200 -0.105931
v 0.703916 2.944778 -0.125370
v 0.736085 2.896131 0.015430
v 0.703916 2.944778 0.156229
v 0.626254 3.062222 0.214550
v 0.548592 3.179666 0.156229
v 0.516423 3.228312 0.015430
v 0.548592 3.179666 -0.125370
v 0.626254 3.062222 -0.183691
v 0.619237 2.810637 -0.191694
v 0.504991 2.983404 -0.277488
v 0.645658 3.076423 -0.248127
v 0.748452 2.920973 -0.170934
v 0.390745 3.156171 -0.191694
v 0.542864 3.231873 -0.170934
v 0.343423 3.227734 0.015430
v 0.500285 3.296262 0.015430
v 0.390745 3.156171 0.222554
v 0.542864 3.231873 0.201794
v 0.504991 2.983404 0.308348
v 0.645658 3.076423 0.278986
v 0.619237 2.810637 0.222554
v 0.748452 2.920973 0.201794
v 0.666559 2.739074 0.015430
v 0.791031 2.856584 0.015430
v 0.430588 2.589171 -0.282125
v 0.271475 2.829788 -0.401610
v 0.112363 3.070405 -0.282125
v 0.046456 3.170071 0.006343
v 0.112363 3.070405 0.294809
v 0.271475 2.829788 0.414295
v 0.430588 2.589171 0.294809
v 0.496495 2.489505 0.006343
v 0.681689 2.755218 -0.282125
v 0.522577 2.995834 -0.401610
v 0.363465 3.236451 -0.282125
v 0.297558 3.336117 0.006343
v 0.363465 3.236451 0.294809
v 0.522577 2.995834 0.414295
v 0.681689 2.755218 0.294809
v 0.747596 2.655551 0.006343
v 0.522577 2.995834 0.006343
vn -0.0000 -0.5359 0.8443
vn -0.0000 -0.0652 0.9979
vn -0.0000 -0.0446 0.9990
vn 0.8123 0.5833 -0.0000
vn 0.3396 0.9406 -0.0000
vn -0.0000 -0.0446 -0.9990
vn -0.0000 -0.0652 -0.9979
vn -0.0000 -0.5359 -0.8443
vn -0.0000 -1.0000 -0.0000
vn 0.7575 -0.6529 -0.0000
vn 0.9938 -0.1115 -0.0000
vn 0.9978 -0.0661 -0.0000
vn -0.9964 -0.0847 -0.0000
vn -0.9904 -0.1381 -0.0000
vn -0.6826 -0.7308 -0.0000
vn -0.9904 -0.1379 -0.0000
vn -0.9966 -0.0827 -0.0000
vn 0.9979 -0.0646 -0.0000
vn 0.9938 -0.1114 -0.0000
vn -0.9687 0.2482 -0.0000
vn -0.9952 0.0982 -0.0000
vn -0.9969 0.0789 -0.0000
vn -0.9970 0.0775 -0.0000
vn 0.0971 0.1600 -0.9823
vn 0.0366 0.2193 -0.9750
vn 0.0106 0.0563 -0.9984
vn 0.0309 0.0508 -0.9982
vn 0.8676 0.4972 -0.0000
vn 0.9890 0.1477 -0.0000
vn 0.9943 0.1070 -0.0000
vn 0.9890 0.1478 -0.0000
vn 0.9940 0.1092 -0.0000
vn 0.0309 0.0508 0.9982
vn 0.0106 0.0563 0.9984
vn 0.0366 0.2193 0.9750
vn 0.0971 0.1600 0.9823
vn -0.0000 -0.0488 0.9988
vn -0.0000 0.0458 0.9990
vn -0.0000 0.2543 0.9671
vn -0.0000 1.0000 -0.0000
vn -0.0000 0.2543 -0.9671
vn -0.0000 0.0458 -0.9990
vn -0.0000 -0.0488 -0.9988
vn -0.0000 -0.0000 1.0000
vn 0.0235 0.9997 -0.0000
vn -0.0000 -0.0000 -1.0000
vn 0.9868 0.1618 -0.0000
vn 0.6794 0.7338 -0.0000
vn 0.2653 0.9642 -0.0000
vn -1.0000 -0.0000 -0.0000
vn 1.0000 -0.0000 -0.0000
vn 0.3409 -0.2276 -0.9122
vn -0.0759 0.4027 -0.9122
vn -0.3707 0.8484 -0.3778
vn -0.3707 0.8484 0.3778
vn -0.0759 0.4027 0.9122
vn 0.3409 -0.2276 0.9122
vn 0.6356 -0.6733 0.3778
vn 0.6356 -0.6733 -0.3778
vn 0.8341 0.5516 -0.0000
vn 0.5406 -0.7493 -0.3824
vn 0.5440 -0.7469 -0.3824
vn 0.4719 -0.7944 -0.3823
vn 0.5440 -0.7469 0.3824
vn 0.5406 -0.7493 0.3824
vn 0.4719 -0.7944 0.3823
vn 0.3015 -0.2566 0.9183
vn 0.2977 -0.2594 0.9187
vn 0.2675 -0.2808 0.9217
vn -0.0402 0.4229 0.9053
vn -0.0380 0.4241 0.9048
vn -0.0203 0.4338 0.9008
vn -0.2727 0.8884 0.3693
vn -0.2699 0.8894 0.3689
vn -0.2131 0.9074 0.3622
vn -0.2699 0.8894 -0.3690
vn -0.2727 0.8884 -0.3693
vn -0.2131 0.9074 -0.3622
vn -0.0380 0.4242 -0.9048
vn -0.0402 0.4230 -0.9053
vn -0.0203 0.4339 -0.9007
vn 0.2977 -0.2594 -0.9187
vn 0.3015 -0.2566 -0.9183
vn 0.2675 -0.2809 -0.9217
vn 0.5782 -0.7213 -0.3813
vn 0.5782 -0.7213 0.3813
vn 0.3165 -0.2457 0.9162
vn -0.0492 0.4179 0.9071
vn -0.3028 0.8773 0.3723
vn -0.3028 0.8773 -0.3723
vn -0.0492 0.4179 -0.9071
vn 0.3165 -0.2457 -0.9162
vn 0.6933 0.6312 0.3479
vn 0.8528 0.3934 0.3435
vn 0.9632 0.2288 0.1410
vn 0.9632 0.2288 -0.1410
vn 0.8528 0.3934 -0.3435
vn 0.6933 0.6312 -0.3479
vn 0.5780 0.8030 -0.1454
vn 0.5780 0.8030 0.1454
vn 0.2111 -0.3192 -0.9239
vn -0.2111 0.3192 -0.9239
vn -0.5096 0.7706 -0.3827
vn -0.5096 0.7706 0.3827
vn -0.2111 0.3192 0.9239
vn 0.2111 -0.3192 0.9239
vn 0.5096 -0.7706 0.3827
vn 0.5096 -0.7706 -0.3827
vt 0.078395 0.059472
vt 0.127136 0.059548
vt 0.101641 0.103528
vt 0.038535 0.103430
vt 0.821387 0.510314
vt 0.821024 0.460231
vt 0.833041 0.460144
vt 0.833403 0.510227
vt 0.614100 0.100588
vt 0.551794 0.101367
vt 0.526147 0.058220
vt 0.574270 0.057618
vt 0.829883 0.024514
vt 0.830095 0.053728
vt 0.818436 0.053812
vt 0.818224 0.024598
vt 0.819119 0.148115
vt 0.830778 0.148031
vt 0.830992 0.177437
vt 0.805193 0.177624
vt 0.809307 0.745347
vt 0.835106 0.745160
vt 0.835342 0.777793
vt 0.823683 0.777878
vt 0.924398 0.777148
vt 0.914417 0.777220
vt 0.914180 0.744586
vt 0.938301 0.744412
vt 0.918939 0.023869
vt 0.919150 0.053082
vt 0.909169 0.053154
vt 0.908958 0.023941
vt 0.934186 0.176689
vt 0.910066 0.176864
vt 0.909853 0.147458
vt 0.919834 0.147385
vt 0.912478 0.509654
vt 0.912115 0.459571
vt 0.922453 0.459496
vt 0.922816 0.509579
vt 0.834100 0.606333
vt 0.808301 0.606520
vt 0.913174 0.605760
vt 0.937294 0.605586
vt 0.580902 0.485101
vt 0.530666 0.419650
vt 0.554654 0.330052
vt 0.616959 0.329273
vt 0.911510 0.376106
vt 0.911072 0.315691
vt 0.935192 0.315516
vt 0.921848 0.376031
vt 0.832436 0.376679
vt 0.831998 0.316264
vt 0.806199 0.316451
vt 0.820419 0.376766
vt 0.038173 0.335054
vt 0.101279 0.335152
vt 0.126565 0.425623
vt 0.076416 0.492463
vt 0.284475 0.059794
vt 0.316439 0.103863
vt 0.316078 0.335487
vt 0.265821 0.425840
vt 0.393177 0.421369
vt 0.342581 0.332704
vt 0.339721 0.104018
vt 0.370804 0.060162
vt 0.396949 0.671834
vt 0.648060 0.670790
vt 0.648169 0.696883
vt 0.397058 0.697928
vt 0.232788 0.526306
vt 0.412225 0.524772
vt 0.413015 0.617303
vt 0.233579 0.618836
vt 0.345304 0.699623
vt 0.098222 0.700871
vt 0.098092 0.675197
vt 0.345175 0.673948
vt 0.040266 0.857149
vt 0.220997 0.860569
vt 0.219233 0.953766
vt 0.038502 0.950346
vt 0.450248 0.524448
vt 0.451039 0.616978
vt 0.430372 0.617154
vt 0.429582 0.524624
vt 0.692702 0.670604
vt 0.671562 0.690343
vt 0.075145 0.694648
vt 0.054167 0.675419
vt 0.300041 0.862064
vt 0.298278 0.955262
vt 0.053621 0.567354
vt 0.097546 0.567132
vt 0.528727 0.523777
vt 0.529517 0.616307
vt 0.647604 0.560964
vt 0.692245 0.560778
vt 0.673766 0.928099
vt 0.628207 0.942476
vt 0.619537 0.907045
vt 0.660529 0.894110
vt 0.581158 0.950762
vt 0.577204 0.914501
vt 0.533430 0.952813
vt 0.534259 0.916346
vt 0.485844 0.948594
vt 0.491443 0.912550
vt 0.439220 0.938178
vt 0.449492 0.903178
vt 0.394362 0.921745
vt 0.409131 0.888392
vt 0.352044 0.899577
vt 0.371055 0.868445
vt 0.717048 0.907878
vt 0.699473 0.875915
vt 0.790860 0.819664
vt 0.786360 0.840505
vt 0.763452 0.824652
vt 0.768441 0.852060
vt 0.747599 0.847560
vt 0.736044 0.829640
vt 0.740545 0.808800
vt 0.758463 0.797244
vt 0.779305 0.801744
vt 0.760694 0.421670
vt 0.748150 0.428159
vt 0.722371 0.352552
vt 0.726363 0.350537
vt 0.668490 0.426660
vt 0.656199 0.419703
vt 0.693183 0.349912
vt 0.697096 0.352077
vt 0.681042 0.433003
vt 0.701029 0.354197
vt 0.694238 0.437678
vt 0.705204 0.355824
vt 0.708091 0.439585
vt 0.709655 0.356487
vt 0.722006 0.438200
vt 0.714127 0.355992
vt 0.735369 0.434026
vt 0.718361 0.354523
vt 0.794533 0.480823
vt 0.774094 0.491701
vt 0.640174 0.489180
vt 0.620158 0.477541
vt 0.661220 0.499092
vt 0.683532 0.506066
vt 0.706787 0.508834
vt 0.730130 0.506943
vt 0.752689 0.500814
vt 0.670712 0.828219
vt 0.673840 0.794516
vt 0.688426 0.790260
vt 0.684141 0.835676
vt 0.644673 0.849832
vt 0.649028 0.864729
vt 0.610975 0.846723
vt 0.603734 0.860466
vt 0.589356 0.820685
vt 0.574606 0.825515
vt 0.592467 0.786986
vt 0.578725 0.780122
vt 0.618502 0.765354
vt 0.613767 0.750916
vt 0.652203 0.768486
vt 0.659289 0.755039
vt 0.102273 0.759564
vt 0.166638 0.759910
vt 0.166304 0.821967
vt 0.101939 0.821621
vt 0.231003 0.760257
vt 0.230669 0.822313
vt 0.295368 0.760603
vt 0.295034 0.822659
vt 0.359733 0.760949
vt 0.359399 0.823005
vt 0.424098 0.761295
vt 0.423764 0.823352
vt 0.488463 0.761641
vt 0.488129 0.823698
vt 0.552827 0.761987
vt 0.552494 0.824044
vt 0.037908 0.759218
vt 0.037574 0.821275
vt 0.970807 0.873071
vt 0.964330 0.934434
vt 0.893496 0.895935
vt 0.916361 0.973246
vt 0.854997 0.966769
vt 0.816186 0.918799
vt 0.822662 0.857436
vt 0.870632 0.818624
vt 0.931996 0.825101
s 1
usemtl initialShadingGroup.003
f 1/1/1 33/2/1 34/3/2 17/4/3
f 3/5/4 36/6/5 37/7/5 9/8/4
f 20/9/6 41/10/7 42/11/8 7/12/8
f 10/13/9 44/14/9 33/15/9 1/16/9
f 2/17/10 11/18/10 23/19/11 24/20/12
f 17/21/13 18/22/14 10/23/15 1/24/15
f 7/25/15 13/26/15 19/27/16 20/28/17
f 7/29/9 42/30/9 43/31/9 13/32/9
f 21/33/18 22/34/19 16/35/10 8/36/10
f 14/37/4 38/38/5 39/39/5 5/40/4
f 18/22/14 19/27/16 13/26/15 10/23/15
f 9/8/4 37/7/5 38/38/5 14/37/4
f 22/34/19 23/19/11 11/18/10 16/35/10
f 13/32/9 43/31/9 44/14/9 10/13/9
f 9/8/20 27/41/21 28/42/22 3/5/20
f 14/37/20 26/43/21 27/41/21 9/8/20
f 25/44/23 26/43/21 14/37/20 5/40/20
f 5/45/24 39/46/25 40/47/26 25/48/27
f 15/49/28 31/50/29 32/51/30 6/52/28
f 12/53/28 30/54/31 31/50/29 15/49/28
f 29/55/32 30/54/31 12/53/28 4/56/28
f 28/57/33 35/58/34 36/59/35 3/60/36
f 20/28/17 19/27/16 26/43/21 25/44/23
f 27/41/21 26/43/21 19/27/16 18/22/14
f 28/42/22 27/41/21 18/22/14 17/21/13
f 17/4/3 34/3/2 35/58/34 28/57/33
f 24/20/12 23/19/11 30/54/31 29/55/32
f 31/50/29 30/54/31 23/19/11 22/34/19
f 32/51/30 31/50/29 22/34/19 21/33/18
f 25/48/27 40/47/26 41/10/7 20/9/6
f 34/3/2 33/2/1 2/61/1 24/62/37
f 35/58/34 34/3/2 24/62/37 29/63/38
f 36/59/35 35/58/34 29/63/38 4/64/39
f 37/7/5 36/6/5 4/56/40 12/53/40
f 38/38/5 37/7/5 12/53/40 15/49/40
f 39/39/5 38/38/5 15/49/40 6/52/40
f 40/47/26 39/46/25 6/65/41 32/66/42
f 41/10/7 40/47/26 32/66/42 21/67/43
f 42/11/8 41/10/7 21/67/43 8/68/8
f 43/31/9 42/30/9 8/36/9 16/35/9
f 44/14/9 43/31/9 16/35/9 11/18/9
f 33/15/9 44/14/9 11/18/9 2/17/9
f 45/69/44 53/70/44 54/71/44 47/72/44
f 47/73/40 54/74/45 55/75/45 49/76/40
f 49/77/46 55/78/46 56/79/46 51/80/46
s 0
f 51/81/9 56/82/9 53/83/9 45/84/9
s 1
f 46/85/47 52/86/47 50/87/48 48/88/48
f 54/71/44 53/70/44 46/89/44 48/90/44
f 55/75/45 54/74/45 48/88/49 50/87/49
f 56/79/46 55/78/46 50/91/46 52/92/46
s 0
f 53/83/50 56/82/50 57/93/50 58/94/50
s 1
f 56/79/46 52/92/46 59/95/46 57/96/46
f 52/86/47 46/85/47 60/97/51 59/98/51
f 46/89/44 53/70/44 58/99/44 60/100/44
s 0
f 86/101/52 87/102/52 88/103/52 89/104/52
f 87/102/53 90/105/53 91/106/53 88/103/53
f 90/105/54 92/107/54 93/108/54 91/106/54
f 92/107/55 94/109/55 95/110/55 93/108/55
f 94/109/56 96/111/56 97/112/56 95/110/56
f 96/111/57 98/113/57 99/114/57 97/112/57
f 98/113/58 100/115/58 101/116/58 99/114/58
f 100/117/59 86/101/59 89/104/59 101/118/59
s 1
f 61/119/60 62/120/60 69/121/60
f 62/120/60 63/122/60 69/121/60
f 63/122/60 64/123/60 69/121/60
f 64/123/60 65/124/60 69/121/60
f 65/124/60 66/125/60 69/121/60
f 66/125/60 67/126/60 69/121/60
f 67/126/60 68/127/60 69/121/60
f 68/127/60 61/119/60 69/121/60
f 71/128/61 70/129/62 61/130/63 68/131/63
f 72/132/64 71/133/65 68/134/66 67/135/66
f 73/136/67 72/132/68 67/135/69 66/137/69
f 74/138/70 73/136/71 66/137/72 65/139/72
f 75/140/73 74/138/74 65/139/75 64/141/75
f 76/142/76 75/140/77 64/141/78 63/143/78
f 77/144/79 76/142/80 63/143/81 62/145/81
f 70/129/82 77/144/83 62/145/84 61/130/84
f 79/146/85 78/147/85 70/129/62 71/128/61
f 80/148/86 79/149/86 71/133/65 72/132/64
f 81/150/87 80/148/87 72/132/68 73/136/67
f 82/151/88 81/150/88 73/136/71 74/138/70
f 83/152/89 82/151/89 74/138/74 75/140/73
f 84/153/90 83/152/90 75/140/77 76/142/76
f 85/154/91 84/153/91 76/142/80 77/144/79
f 78/147/92 85/154/92 77/144/83 70/129/82
s 0
f 85/155/93 78/156/93 89/157/93 88/158/93
f 84/159/94 85/155/94 88/158/94 91/160/94
f 83/161/95 84/159/95 91/160/95 93/162/95
f 82/163/96 83/161/96 93/162/96 95/164/96
f 81/165/97 82/163/97 95/164/97 97/166/97
f 80/167/98 81/165/98 97/166/98 99/168/98
f 79/169/99 80/167/99 99/168/99 101/170/99
f 78/156/100 79/169/100 101/170/100 89/157/100
f 102/171/101 103/172/101 111/173/101 110/174/101
f 103/172/102 104/175/102 112/176/102 111/173/102
f 104/175/103 105/177/103 113/178/103 112/176/103
f 105/177/104 106/179/104 114/180/104 113/178/104
f 106/179/105 107/181/105 115/182/105 114/180/105
f 107/181/106 108/183/106 116/184/106 115/182/106
f 108/183/107 109/185/107 117/186/107 116/184/107
f 109/187/108 102/171/108 110/174/108 117/188/108
s 1
f 110/189/60 111/190/60 118/191/60
f 111/190/60 112/192/60 118/191/60
f 112/192/60 113/193/60 118/191/60
f 113/193/60 114/194/60 118/191/60
f 114/194/60 115/195/60 118/191/60
f 115/195/60 116/196/60 118/191/60
f 116/196/60 117/197/60 118/191/60
f 117/197/60 110/189/60 118/191/60
