# Blender 4.1.1
# www.blender.org
mtllib wheelstandcentered.mtl
o ShredderWheelStand
v 0.249344 5.038147 0.198960
v 0.433612 5.117455 0.032634
v 0.501057 5.225785 -0.194564
v 0.433612 5.334118 -0.421766
v 0.249344 5.413425 -0.588090
v -0.002360 5.442453 -0.648971
v -0.254063 5.413425 -0.588090
v -0.438333 5.334118 -0.421766
v -0.505776 5.225785 -0.194564
v -0.438333 5.117455 0.032634
v -0.254063 5.038147 0.198960
v -0.002360 5.009119 0.259841
v 0.249344 5.810472 0.567218
v 0.433612 5.889779 0.400889
v 0.501057 5.998109 0.173690
v 0.433612 6.106444 -0.053515
v 0.249344 6.185749 -0.219836
v -0.002360 6.214777 -0.280713
v -0.254063 6.185749 -0.219836
v -0.438333 6.106444 -0.053515
v -0.505776 5.998109 0.173690
v -0.438333 5.889779 0.400889
v -0.254063 5.810472 0.567218
v -0.002360 5.781442 0.628096
v -0.002360 5.998109 0.173690
v -0.814052 0.102375 0.955022
v 0.828807 0.102375 0.955022
v -0.814052 5.393312 0.878379
v 0.828807 5.393312 0.878379
v -0.814052 6.139083 -0.859183
v 0.828807 6.139083 -0.859183
v -0.814052 0.102375 -0.935825
v 0.828807 0.102375 -0.935825
vn 0.5000 -0.3727 0.7817
vn 0.8660 -0.2152 0.4513
vn 0.9659 -0.1113 0.2336
vn 0.9659 -0.1114 0.2336
vn 0.9659 0.1114 -0.2337
vn 0.7071 0.3044 -0.6383
vn 0.2588 0.4157 -0.8719
vn -0.2589 0.4156 -0.8719
vn -0.2589 0.4157 -0.8719
vn -0.7071 0.3044 -0.6382
vn -0.7071 0.3043 -0.6382
vn -0.9659 0.1114 -0.2336
vn -0.9659 -0.1113 0.2337
vn -0.9659 -0.1114 0.2337
vn -0.7071 -0.3043 0.6383
vn -0.7071 -0.3044 0.6383
vn -0.2588 -0.4157 0.8719
vn -0.0000 0.9026 0.4304
vn -0.0000 0.0145 0.9999
vn -0.0000 0.9189 0.3944
vn -0.0000 0.0127 -0.9999
vn 1.0000 -0.0000 -0.0000
vn -1.0000 -0.0000 -0.0000
vt 0.697415 0.761469
vt 0.728902 0.761471
vt 0.728894 0.864854
vt 0.697407 0.864852
vt 0.760388 0.761474
vt 0.760380 0.864857
vt 0.791874 0.761476
vt 0.791866 0.864860
vt 0.823361 0.761479
vt 0.823353 0.864862
vt 0.854846 0.761481
vt 0.854838 0.864864
vt 0.477013 0.761450
vt 0.508499 0.761453
vt 0.508490 0.864836
vt 0.477004 0.864834
vt 0.539985 0.761456
vt 0.539976 0.864839
vt 0.571471 0.761458
vt 0.571463 0.864842
vt 0.602957 0.761461
vt 0.602948 0.864844
vt 0.634444 0.761464
vt 0.634436 0.864847
vt 0.665929 0.761466
vt 0.665921 0.864849
vt 0.576753 0.874677
vt 0.608240 0.874680
vt 0.592492 0.933433
vt 0.635506 0.890425
vt 0.651248 0.917695
vt 0.651244 0.949181
vt 0.635499 0.976447
vt 0.608231 0.992188
vt 0.576744 0.992186
vt 0.549477 0.976440
vt 0.533737 0.949171
vt 0.533739 0.917684
vt 0.549484 0.890418
vt 0.244045 0.012253
vt 0.442548 0.012319
vt 0.442335 0.651677
vt 0.243832 0.651611
vt 0.442259 0.880144
vt 0.243756 0.880077
vt 0.694051 0.008701
vt 0.892552 0.007822
vt 0.895785 0.737274
vt 0.697285 0.738154
vt 0.670989 0.015704
vt 0.650922 0.744888
vt 0.015602 0.015485
vt 0.035183 0.744683
s 1
usemtl initialShadingGroup.001
f 1/1/1 2/2/2 14/3/2 13/4/1
f 2/2/2 3/5/3 15/6/4 14/3/2
f 3/5/3 4/7/5 16/8/5 15/6/4
f 4/7/5 5/9/6 17/10/6 16/8/5
f 5/9/6 6/11/7 18/12/7 17/10/6
f 6/13/7 7/14/8 19/15/9 18/16/7
f 7/14/8 8/17/10 20/18/11 19/15/9
f 8/17/10 9/19/12 21/20/12 20/18/11
f 9/19/12 10/21/13 22/22/14 21/20/12
f 10/21/13 11/23/15 23/24/16 22/22/14
f 11/23/15 12/25/17 24/26/17 23/24/16
f 12/25/17 1/1/1 13/4/1 24/26/17
s 0
f 13/27/18 14/28/18 25/29/18
f 14/28/18 15/30/18 25/29/18
f 15/30/18 16/31/18 25/29/18
f 16/31/18 17/32/18 25/29/18
f 17/32/18 18/33/18 25/29/18
f 18/33/18 19/34/18 25/29/18
f 19/34/18 20/35/18 25/29/18
f 20/35/18 21/36/18 25/29/18
f 21/36/18 22/37/18 25/29/18
f 22/37/18 23/38/18 25/29/18
f 23/38/18 24/39/18 25/29/18
f 24/39/18 13/27/18 25/29/18
f 26/40/19 27/41/19 29/42/19 28/43/19
f 28/43/20 29/42/20 31/44/20 30/45/20
f 30/46/21 31/47/21 33/48/21 32/49/21
f 27/41/22 33/50/22 31/51/22 29/42/22
f 32/52/23 26/40/23 28/43/23 30/53/23
