# This file uses centimeters as units for non-parametric coordinates.

mtllib BigBrush_2.mtl
g default
v 7.387942 2.074866 9.852176
v 7.735260 2.074866 9.852176
v 7.351278 2.304506 9.859323
v 7.771923 2.304506 9.859323
v 7.351278 2.304506 9.777328
v 7.771923 2.304506 9.777328
v 7.387942 2.074866 9.784474
v 7.735260 2.074866 9.784474
v 7.299847 2.189686 9.869348
v 7.299847 2.189686 9.767303
v 7.823355 2.189686 9.767303
v 7.823355 2.189686 9.869348
v 7.457405 2.074866 9.852176
v 7.404548 2.189686 9.869348
v 7.435408 2.291750 9.859323
v 7.435408 2.291750 9.777328
v 7.404548 2.189686 9.767303
v 7.457405 2.074866 9.784474
v 7.419987 2.189686 9.869348
v 7.467648 2.074866 9.852176
v 7.467648 2.074866 9.784474
v 7.419987 2.189686 9.767303
v 7.447811 2.296279 9.777328
v 7.447811 2.296279 9.859323
v 7.621671 2.189686 9.869348
v 7.601454 2.074866 9.852176
v 7.601454 2.074866 9.784474
v 7.621671 2.189686 9.767303
v 7.609867 2.284861 9.777328
v 7.609867 2.284861 9.859323
v 7.374278 2.092675 9.854839
v 7.374278 2.092675 9.781811
v 7.449206 2.092675 9.781811
v 7.460255 2.092675 9.781811
v 7.604589 2.092675 9.781811
v 7.748922 2.092675 9.781811
v 7.748922 2.092675 9.854839
v 7.604589 2.092675 9.854839
v 7.460255 2.092675 9.854839
v 7.449206 2.092675 9.854839
v 7.639650 2.189686 9.869348
v 7.617457 2.092675 9.854839
v 7.613383 2.074866 9.852176
v 7.613383 2.074866 9.784474
v 7.617457 2.092675 9.781811
v 7.639650 2.189686 9.767303
v 7.624315 2.290340 9.777328
v 7.624315 2.290340 9.859323
v 7.768244 2.189686 9.869348
v 7.709484 2.092675 9.854839
v 7.698696 2.074866 9.852176
v 7.698696 2.074866 9.784474
v 7.709484 2.092675 9.781811
v 7.768244 2.189686 9.767303
v 7.727640 2.294794 9.777328
v 7.727640 2.294794 9.859323
v 7.690861 2.074866 9.852176
v 7.701031 2.092675 9.854839
v 7.756435 2.189686 9.869348
v 7.718151 2.299345 9.859323
v 7.718151 2.299345 9.777328
v 7.756435 2.189686 9.767303
v 7.701031 2.092675 9.781811
v 7.690861 2.074866 9.784474
v 7.521620 1.477292 9.842640
v 7.600882 1.477292 9.842640
v 7.416126 1.912345 9.854907
v 7.706377 1.912345 9.854907
v 7.416126 1.912345 9.775611
v 7.706377 1.912345 9.775611
v 7.521620 1.477292 9.783184
v 7.600882 1.477292 9.783184
v 7.456863 1.780266 9.845055
v 7.456863 1.780266 9.785463
v 7.665638 1.780266 9.785463
v 7.665638 1.780266 9.845055
v 7.521345 1.617476 9.842640
v 7.521345 1.617476 9.783184
v 7.601156 1.617476 9.783184
v 7.601156 1.617476 9.842640
v 7.561251 1.432601 9.842640
v 7.561251 1.617476 9.842640
v 7.561251 1.780266 9.845055
v 7.561251 1.912345 9.854907
v 7.561251 1.912345 9.775611
v 7.561251 1.780266 9.785463
v 7.561251 1.617476 9.783184
v 7.561251 1.432601 9.783184
v 7.400630 1.921702 9.815259
v 7.445719 1.783952 9.815259
v 7.517086 1.617476 9.815259
v 7.517388 1.469678 9.815259
v 7.561251 1.423243 9.815259
v 7.605114 1.469678 9.815259
v 7.605417 1.617476 9.815259
v 7.676783 1.783952 9.815259
v 7.721872 1.921702 9.815259
v 7.501595 1.718283 9.783184
v 7.495227 1.718283 9.815259
v 7.501595 1.718283 9.842640
v 7.561251 1.718283 9.842640
v 7.620906 1.718283 9.842640
v 7.627275 1.718283 9.815259
v 7.620906 1.718283 9.783184
v 7.561251 1.718283 9.783184
v 7.403915 1.910903 9.855702
v 7.716815 1.910903 9.855702
v 7.313730 2.086322 9.879385
v 7.806999 2.086322 9.879385
v 7.313730 2.086322 9.749847
v 7.806999 2.086322 9.749847
v 7.403915 1.910903 9.773531
v 7.716815 1.910903 9.773531
v 7.338785 2.004426 9.872807
v 7.338785 2.004426 9.756427
v 7.781944 2.004426 9.756427
v 7.781944 2.004426 9.872807
v 7.358322 1.969089 9.867675
v 7.358322 1.969089 9.761558
v 7.762405 1.969089 9.761558
v 7.762405 1.969089 9.867675
v 7.379972 1.970982 9.861990
v 7.379972 1.970982 9.767243
v 7.362527 2.002533 9.866571
v 7.362527 2.002533 9.762662
v 7.758202 2.002533 9.762662
v 7.740757 1.970982 9.767243
v 7.740757 1.970982 9.861990
v 7.758202 2.002533 9.866571
vt 0.089263 0.684712
vt 0.124145 0.684945
vt 0.119968 0.693961
vt 0.082341 0.693709
vt 0.120527 0.628463
vt 0.143081 0.628463
vt 0.143196 0.650755
vt 0.120642 0.650755
vt 0.273737 0.838341
vt 0.233560 0.838809
vt 0.229051 0.829205
vt 0.266298 0.828771
vt 0.305243 0.628463
vt 0.305338 0.650755
vt 0.299393 0.650755
vt 0.299290 0.628463
vt 0.048926 0.650755
vt 0.048831 0.628463
vt 0.054777 0.628463
vt 0.054880 0.650755
vt 0.087309 0.650755
vt 0.087166 0.628463
vt 0.287408 0.952595
vt 0.242214 0.946312
vt 0.258120 0.891127
vt 0.314262 0.890471
vt 0.266860 0.628463
vt 0.267004 0.650755
vt 0.233642 0.650755
vt 0.233527 0.628463
vt 0.044633 0.742717
vt 0.097212 0.743070
vt 0.112365 0.794675
vt 0.070071 0.800770
vt 0.270477 0.694956
vt 0.250673 0.694826
vt 0.245315 0.685748
vt 0.263676 0.685869
vt 0.259124 0.797169
vt 0.279858 0.744279
vt 0.307534 0.744458
vt 0.281334 0.802171
vt 0.221626 0.650755
vt 0.221511 0.628463
vt 0.063097 0.893389
vt 0.085518 0.949755
vt 0.061829 0.955214
vt 0.033546 0.893728
vt 0.099671 0.830706
vt 0.093998 0.840429
vt 0.072851 0.840672
vt 0.080066 0.830932
vt 0.125516 0.693998
vt 0.129288 0.684979
vt 0.227636 0.838878
vt 0.223560 0.829269
vt 0.235587 0.948806
vt 0.249841 0.891224
vt 0.146580 0.628463
vt 0.146695 0.650755
vt 0.104965 0.743122
vt 0.118582 0.796980
vt 0.197997 0.694479
vt 0.196483 0.685426
vt 0.150243 0.839778
vt 0.151812 0.830102
vt 0.148619 0.943724
vt 0.141693 0.892481
vt 0.189640 0.628463
vt 0.189756 0.650755
vt 0.206249 0.743795
vt 0.200003 0.791816
vt 0.204459 0.694522
vt 0.215279 0.743855
vt 0.202473 0.685465
vt 0.143343 0.839858
vt 0.145416 0.830177
vt 0.132052 0.892593
vt 0.140901 0.946738
vt 0.193736 0.628463
vt 0.193851 0.650755
vt 0.207245 0.794602
vt 0.246428 0.694799
vt 0.273928 0.744240
vt 0.241380 0.685722
vt 0.098531 0.840376
vt 0.103872 0.830658
vt 0.069429 0.893316
vt 0.090640 0.952125
vt 0.218722 0.628463
vt 0.218837 0.650755
vt 0.254338 0.799412
vt 0.107916 0.174244
vt 0.142319 0.135655
vt 0.142097 0.295854
vt 0.107557 0.295813
vt 0.479916 0.310360
vt 0.445376 0.310306
vt 0.445595 0.150107
vt 0.479892 0.188790
vt 0.687058 0.673952
vt 0.687146 0.657783
vt 0.696118 0.657783
vt 0.696118 0.673952
vt 0.696118 0.641614
vt 0.687233 0.641614
vt 0.687451 0.603790
vt 0.696118 0.603790
vt 0.686841 0.711776
vt 0.696118 0.711776
vt 0.686349 0.797095
vt 0.686564 0.759761
vt 0.696118 0.759761
vt 0.696118 0.797095
vt 0.570633 0.566379
vt 0.445025 0.566207
vt 0.445182 0.451573
vt 0.535531 0.451697
vt 0.696118 0.555805
vt 0.687728 0.555805
vt 0.687943 0.518471
vt 0.696118 0.518471
vt 0.051552 0.436996
vt 0.141901 0.437121
vt 0.141742 0.551755
vt 0.016134 0.551581
vt 0.686686 0.738939
vt 0.696118 0.738939
vt 0.445256 0.397730
vt 0.496888 0.397802
vt 0.696118 0.576627
vt 0.687606 0.576627
vt 0.090343 0.383208
vt 0.141976 0.383278
vt 0.176616 0.174339
vt 0.176637 0.295909
vt 0.193608 0.383351
vt 0.232250 0.437247
vt 0.267351 0.551929
vt 0.319416 0.566034
vt 0.354833 0.451449
vt 0.393623 0.397660
vt 0.410836 0.310265
vt 0.411192 0.188696
vt 0.678174 0.759761
vt 0.678174 0.797095
vt 0.678174 0.738939
vt 0.678174 0.673952
vt 0.678174 0.711776
vt 0.678174 0.657783
vt 0.676719 0.641614
vt 0.678174 0.603790
vt 0.678174 0.576627
vt 0.678174 0.555805
vt 0.678174 0.518471
vt 0.597181 0.248518
vt 0.805173 0.251431
vt 0.834925 0.291343
vt 0.566321 0.287581
vt 0.594337 0.359789
vt 0.812208 0.358841
vt 0.812457 0.416057
vt 0.594586 0.417004
vt 0.568193 0.153984
vt 0.836796 0.157746
vt 0.805938 0.196810
vt 0.597947 0.193896
vt 0.855186 0.189539
vt 0.854197 0.260078
vt 0.547933 0.255787
vt 0.548921 0.185249
vt 0.556745 0.414263
vt 0.556522 0.362859
vt 0.801549 0.452394
vt 0.605810 0.453245
vt 0.850048 0.361582
vt 0.850272 0.412986
vt 0.605245 0.323452
vt 0.800984 0.322600
vt 0.804640 0.769192
vt 0.962778 0.766817
vt 0.971328 0.826876
vt 0.797898 0.829481
vt 0.343973 0.906213
vt 0.770498 0.906300
vt 0.751686 0.940664
vt 0.362772 0.940584
vt 0.809414 0.876227
vt 0.967552 0.873851
vt 0.976102 0.933910
vt 0.802671 0.936515
vt 0.356854 0.842850
vt 0.752080 0.844681
vt 0.771028 0.879694
vt 0.337581 0.877686
vt 0.359499 0.802722
vt 0.359015 0.729431
vt 0.373960 0.733440
vt 0.374375 0.798514
vt 0.355134 0.691827
vt 0.354735 0.632843
vt 0.366766 0.636044
vt 0.367111 0.688463
vt 0.578390 0.631329
vt 0.566412 0.634694
vt 0.637173 0.800891
vt 0.622230 0.796881
vt 0.636690 0.727600
vt 0.621815 0.731807
vt 0.578789 0.690314
vt 0.566757 0.687113
vn -0.515878 -0.499865 0.695704
vn 0.000000 -0.147922 0.988999
vn 0.000000 -0.147910 0.989001
vn -0.532304 -0.509516 0.676051
vn -0.487267 0.633741 0.600785
vn 0.047998 0.614442 0.787501
vn 0.047987 0.614446 -0.787498
vn -0.487267 0.633744 -0.600782
vn -0.532304 -0.509516 -0.676052
vn 0.000000 -0.147910 -0.989001
vn 0.000000 -0.147922 -0.988999
vn -0.515878 -0.499865 -0.695704
vn 0.664233 -0.580076 0.471494
vn 0.664233 -0.580076 -0.471494
vn 0.674356 -0.584819 -0.450811
vn 0.674356 -0.584819 0.450811
vn -0.810140 -0.072823 -0.581696
vn -0.810140 -0.072825 0.581695
vn 0.002241 -0.021908 -0.999758
vn 0.930312 -0.081827 0.357526
vn 0.930312 -0.081826 -0.357525
vn 0.675222 0.603886 -0.423553
vn 0.675218 0.603887 0.423558
vn 0.002245 -0.021912 0.999757
vn 0.000000 -0.147908 0.989001
vn 0.000000 -0.147918 0.989000
vn -0.051423 0.596855 0.800700
vn -0.002914 -0.021970 0.999754
vn -0.051415 0.596860 -0.800696
vn -0.002908 -0.021965 -0.999755
vn 0.000000 -0.147918 -0.989000
vn 0.000000 -0.147908 -0.989001
vn 0.000000 -0.147908 0.989001
vn 0.000000 -0.147921 0.988999
vn 0.000000 -0.147908 -0.989001
vn 0.000000 -0.147921 -0.988999
vn 0.022779 0.608682 -0.793087
vn 0.000688 -0.013980 -0.999902
vn 0.022779 0.608677 0.793091
vn 0.000691 -0.013985 0.999902
vn 0.000000 -0.147908 0.989001
vn 0.000000 -0.147921 0.988999
vn 0.000000 -0.147908 -0.989001
vn 0.000000 -0.147920 -0.988999
vn 0.018527 0.595700 -0.802994
vn 0.000657 -0.017744 -0.999842
vn 0.018525 0.595695 0.802997
vn 0.000655 -0.017749 0.999842
vn 0.000000 -0.147910 0.989001
vn -0.002841 -0.020961 0.999776
vn 0.000000 -0.147922 0.988999
vn 0.000000 -0.147910 -0.989001
vn 0.000000 -0.147922 -0.988999
vn -0.002844 -0.020957 -0.999776
vn -0.079153 0.633120 -0.769996
vn -0.079149 0.633116 0.770000
vn 0.000000 -0.147908 0.989001
vn -0.000438 -0.011847 0.999930
vn 0.000000 -0.147922 0.988999
vn 0.000000 -0.147908 -0.989001
vn 0.000000 -0.147922 -0.988999
vn -0.000443 -0.011841 -0.999930
vn -0.024448 0.586985 -0.809229
vn -0.024441 0.586980 0.809232
vn -0.460834 -0.085990 0.883311
vn -0.000002 -0.352697 0.935738
vn 0.000000 0.000000 1.000000
vn -0.448952 -0.038258 0.892736
vn -0.507475 -0.043315 -0.860577
vn 0.000001 0.000000 -1.000000
vn 0.000002 -0.398606 -0.917122
vn -0.513924 -0.098159 -0.852201
vn -0.967500 -0.252868 -0.001044
vn -0.000002 -0.999991 -0.004340
vn 0.460825 -0.085992 0.883315
vn 0.967500 -0.252868 -0.001044
vn 0.996227 -0.086785 0.000107
vn 0.982209 -0.083699 0.168107
vn -0.996227 -0.086784 0.000107
vn -0.949680 -0.313221 -0.000000
vn -0.921879 -0.387478 -0.000000
vn -0.248480 -0.177461 0.952242
vn -0.334844 -0.171519 0.926532
vn -0.334852 -0.171518 -0.926529
vn 0.000000 -0.074388 -0.997229
vn 0.000000 -0.048280 -0.998834
vn -0.257332 -0.174257 -0.950482
vn 0.873998 -0.408808 0.262687
vn 0.921877 -0.387483 0.000001
vn 0.949677 -0.313231 0.000001
vn 0.908244 -0.299568 0.292150
vn 0.000000 -0.066048 0.997817
vn 0.000000 -0.074388 0.997229
vn -0.919878 -0.392205 0.000324
vn -0.337458 -0.158280 0.927938
vn 0.000000 0.018503 -0.999829
vn -0.375250 -0.127759 -0.918077
vn 0.907513 -0.370376 0.198096
vn 0.919880 -0.392201 0.000325
vn 0.000000 -0.019602 0.999808
vn 0.000000 0.000000 1.000000
vn 0.000000 -0.024053 0.999711
vn 0.000000 -0.069612 0.997574
vn 0.000000 -0.074388 0.997229
vn 0.000000 -0.074388 -0.997229
vn 0.000000 -0.059449 -0.998231
vn 0.000000 0.022705 -0.999742
vn 0.000002 0.000000 -1.000000
vn 0.513919 -0.098158 -0.852204
vn 0.985981 -0.084157 -0.144079
vn 0.916659 -0.359024 -0.175608
vn 0.873501 -0.414565 -0.255211
vn 0.908248 -0.299563 -0.292143
vn 0.000000 -0.201539 0.979481
vn 0.000000 -0.201539 0.979481
vn 0.000000 -0.201539 0.979481
vn 0.000000 -0.201539 0.979481
vn 0.000000 1.000000 0.000000
vn 0.000000 1.000000 0.000000
vn 0.000000 1.000000 0.000000
vn 0.000000 1.000000 0.000000
vn 0.000000 -0.201554 -0.979477
vn 0.000000 -0.201554 -0.979477
vn 0.000000 -0.201554 -0.979477
vn 0.000000 -0.201554 -0.979477
vn 0.000000 -1.000000 0.000000
vn 0.000000 -1.000000 0.000000
vn 0.000000 -1.000000 0.000000
vn 0.000000 -1.000000 0.000000
vn 0.787155 -0.616755 0.000000
vn 0.787155 -0.616755 0.000000
vn 0.787155 -0.616755 0.000000
vn 0.787155 -0.616755 0.000000
vn -0.787138 -0.616777 0.000000
vn -0.787138 -0.616777 0.000000
vn -0.787138 -0.616777 0.000000
vn -0.787138 -0.616777 0.000000
vn -0.956250 -0.292551 0.000000
vn -0.956250 -0.292551 0.000000
vn -0.956250 -0.292551 0.000000
vn -0.956250 -0.292551 0.000000
vn 0.000000 -0.080081 -0.996788
vn 0.000000 -0.080081 -0.996788
vn 0.000000 -0.080081 -0.996789
vn 0.000000 -0.080081 -0.996789
vn 0.956248 -0.292556 0.000000
vn 0.956248 -0.292556 0.000000
vn 0.956248 -0.292556 0.000000
vn 0.956248 -0.292556 0.000000
vn 0.000000 -0.080069 0.996789
vn 0.000000 -0.080069 0.996789
vn 0.000000 -0.080069 0.996789
vn 0.000000 -0.080069 0.996789
vn -0.875123 -0.483900 0.000000
vn -0.875123 -0.483900 0.000000
vn -0.875124 -0.483900 0.000000
vn -0.875124 -0.483900 0.000000
vn 0.000000 -0.143701 -0.989621
vn 0.000000 -0.143701 -0.989621
vn 0.000000 -0.143701 -0.989621
vn 0.000000 -0.143701 -0.989621
vn 0.875136 -0.483878 0.000000
vn 0.875136 -0.483878 0.000000
vn 0.875136 -0.483878 0.000000
vn 0.875136 -0.483878 0.000000
vn 0.000000 -0.143701 0.989621
vn 0.000000 -0.143701 0.989621
vn 0.000000 -0.143701 0.989621
vn 0.000000 -0.143701 0.989621
vn -0.087106 0.996199 0.000000
vn -0.087106 0.996199 0.000000
vn -0.087106 0.996199 0.000000
vn -0.087106 0.996199 0.000000
vn -0.079485 -0.996836 0.000000
vn -0.079485 -0.996836 0.000000
vn -0.079485 -0.996836 0.000000
vn -0.079485 -0.996836 0.000000
vn 0.000000 -0.956874 -0.290503
vn 0.000000 -0.956874 -0.290503
vn 0.000000 -0.956874 -0.290503
vn 0.000000 -0.956874 -0.290503
vn 0.000000 0.948796 -0.315890
vn 0.000000 0.948796 -0.315890
vn 0.000000 0.948796 -0.315890
vn 0.000000 0.948796 -0.315890
vn 0.087112 0.996199 0.000000
vn 0.087112 0.996199 0.000000
vn 0.087112 0.996199 0.000000
vn 0.087112 0.996199 0.000000
vn 0.079480 -0.996836 0.000000
vn 0.079480 -0.996836 0.000000
vn 0.079480 -0.996837 0.000000
vn 0.079480 -0.996837 0.000000
vn 0.000000 0.948780 0.315939
vn 0.000000 0.948780 0.315939
vn 0.000000 0.948780 0.315939
vn 0.000000 0.948780 0.315939
vn 0.000000 -0.956875 0.290501
vn 0.000000 -0.956875 0.290501
vn 0.000000 -0.956875 0.290501
vn 0.000000 -0.956875 0.290501
s 1
g polySurface346
usemtl initialShadingGroup
f 1/1/1 13/2/2 40/3/3 31/4/4
f 3/5/5 15/6/6 16/7/7 5/8/8
f 32/9/9 33/10/10 18/11/11 7/12/12
f 2/13/13 8/14/14 36/15/15 37/16/16
f 7/17/12 1/18/1 31/19/4 32/20/9
f 10/21/17 9/22/18 3/5/5 5/8/8
f 5/23/8 16/24/7 17/25/19 10/26/17
f 12/27/20 11/28/21 6/29/22 4/30/23
f 9/31/18 14/32/24 15/33/6 3/34/5
f 37/35/16 50/36/25 51/37/26 2/38/13
f 56/39/27 49/40/28 12/41/20 4/42/23
f 55/43/29 56/44/27 4/30/23 6/29/22
f 54/45/30 55/46/29 6/47/22 11/48/21
f 52/49/31 53/50/32 36/51/15 8/52/14
f 39/53/33 40/3/3 13/2/2 20/54/34
f 18/11/11 33/10/10 34/55/35 21/56/36
f 17/25/19 16/24/7 23/57/37 22/58/38
f 16/7/7 15/6/6 24/59/39 23/60/37
f 15/33/6 14/32/24 19/61/40 24/62/39
f 38/63/41 39/53/33 20/54/34 26/64/42
f 21/56/36 34/55/35 35/65/43 27/66/44
f 22/58/38 23/57/37 29/67/45 28/68/46
f 23/60/37 24/59/39 30/69/47 29/70/45
f 24/62/39 19/61/40 25/71/48 30/72/47
f 32/20/9 31/19/4 9/22/18 10/21/17
f 10/26/17 17/25/19 33/10/10 32/9/9
f 34/55/35 33/10/10 17/25/19 22/58/38
f 35/65/43 34/55/35 22/58/38 28/68/46
f 36/51/15 53/50/32 54/45/30 11/48/21
f 37/16/16 36/15/15 11/28/21 12/27/20
f 49/40/28 50/36/25 37/35/16 12/41/20
f 19/61/40 39/53/33 38/63/41 25/71/48
f 14/32/24 40/3/3 39/53/33 19/61/40
f 31/4/4 40/3/3 14/32/24 9/31/18
f 25/71/48 38/63/41 42/73/49 41/74/50
f 43/75/51 42/73/49 38/63/41 26/64/42
f 27/66/44 35/65/43 45/76/52 44/77/53
f 46/78/54 45/76/52 35/65/43 28/68/46
f 28/68/46 29/67/45 47/79/55 46/78/54
f 29/70/45 30/69/47 48/80/56 47/81/55
f 30/72/47 25/71/48 41/74/50 48/82/56
f 41/74/50 42/73/49 58/83/57 59/84/58
f 57/85/59 58/83/57 42/73/49 43/75/51
f 44/77/53 45/76/52 63/86/60 64/87/61
f 62/88/62 63/86/60 45/76/52 46/78/54
f 46/78/54 47/79/55 61/89/63 62/88/62
f 47/81/55 48/80/56 60/90/64 61/91/63
f 48/82/56 41/74/50 59/84/58 60/92/64
f 51/37/26 50/36/25 58/83/57 57/85/59
f 59/84/58 58/83/57 50/36/25 49/40/28
f 60/92/64 59/84/58 49/40/28 56/39/27
f 61/91/63 60/90/64 56/44/27 55/43/29
f 62/88/62 61/89/63 55/46/29 54/45/30
f 54/45/30 53/50/32 63/86/60 62/88/62
f 64/87/61 63/86/60 53/50/32 52/49/31
s 5
f 65/93/65 81/94/66 82/95/67 77/96/68
f 78/97/69 87/98/70 88/99/71 71/100/72
f 92/101/73 93/102/74 81/103/66 65/104/65
f 66/105/75 94/106/76 95/107/77 80/108/78
f 91/109/79 92/101/73 65/104/65 77/110/68
f 89/111/80 90/112/81 73/113/82 67/114/83
f 69/115/84 85/116/85 86/117/86 74/118/87
f 76/119/88 96/120/89 97/121/90 68/122/91
f 73/123/82 83/124/92 84/125/93 67/126/83
f 90/112/81 99/127/94 100/128/95 73/113/82
f 74/118/87 86/117/86 105/129/96 98/130/97
f 102/131/98 103/132/99 96/120/89 76/119/88
f 100/133/95 101/134/100 83/124/92 73/123/82
f 82/95/67 81/94/66 66/135/75 80/136/101
f 83/124/92 101/134/100 102/137/102 76/138/103
f 84/125/93 83/124/92 76/138/103 68/139/104
f 86/117/86 85/116/85 70/140/105 75/141/106
f 104/142/107 105/129/96 86/117/86 75/141/106
f 88/99/71 87/98/70 79/143/108 72/144/109
f 81/103/66 93/102/74 94/106/76 66/105/75
f 74/145/87 90/112/81 89/111/80 69/146/84
f 98/147/97 99/127/94 90/112/81 74/145/87
f 71/148/72 92/101/73 91/109/79 78/149/69
f 71/148/72 88/150/71 93/102/74 92/101/73
f 94/106/76 93/102/74 88/150/71 72/151/109
f 95/107/77 94/106/76 72/151/109 79/152/110
f 96/120/89 103/132/99 104/153/111 75/154/112
f 97/121/90 96/120/89 75/154/112 70/155/113
f 78/149/69 91/109/79 99/127/94 98/147/97
f 100/128/95 99/127/94 91/109/79 77/110/68
f 77/96/68 82/95/67 101/134/100 100/133/95
f 102/137/102 101/134/100 82/95/67 80/136/101
f 80/108/78 95/107/77 103/132/99 102/131/98
f 104/153/111 103/132/99 95/107/77 79/152/110
f 87/98/70 105/129/96 104/142/107 79/143/108
f 98/130/97 105/129/96 87/98/70 78/97/69
s off
f 106/156/114 107/157/115 121/158/116 118/159/117
f 108/160/118 109/161/119 111/162/120 110/163/121
f 119/164/122 120/165/123 113/166/124 112/167/125
f 112/167/126 113/166/127 107/157/128 106/156/129
f 107/157/130 113/166/131 120/168/132 121/169/133
f 112/167/134 106/156/135 118/170/136 119/171/137
f 115/172/138 114/173/139 108/160/140 110/163/141
f 110/163/142 111/162/143 116/174/144 115/175/145
f 117/176/146 116/177/147 111/162/148 109/161/149
f 114/178/150 117/179/151 109/161/152 108/160/153
f 123/180/154 122/181/155 124/182/156 125/183/157
f 125/184/158 126/185/159 127/186/160 123/187/161
f 128/188/162 127/189/163 126/190/164 129/191/165
f 122/192/166 128/193/167 129/194/168 124/195/169
f 119/196/170 118/197/171 122/198/172 123/199/173
f 114/200/174 115/201/175 125/202/176 124/203/177
f 115/201/178 116/204/179 126/205/180 125/202/181
f 120/206/182 119/196/183 123/199/184 127/207/185
f 121/208/186 120/206/187 127/207/188 128/209/189
f 116/204/190 117/210/191 129/211/192 126/205/193
f 118/197/194 121/208/195 128/209/196 122/198/197
f 117/210/198 114/200/199 124/203/200 129/211/201
