# This file uses centimeters as units for non-parametric coordinates.

mtllib Coal.mtl
g default
v -0.858327 -0.706176 0.523397
v 0.577500 -0.771289 0.555627
v -0.805302 0.171365 0.693533
v 0.710928 0.209497 0.771769
v -0.824020 0.036860 -0.620236
v 0.955253 -0.025834 -0.439997
v -0.828280 -0.762351 -0.429300
v 0.771662 -0.771662 -0.771662
v -0.476551 -0.817286 0.724932
v -0.466267 0.423833 0.875543
v -0.581855 0.455793 -0.599991
v -0.481349 -0.763701 -0.713763
v 0.313890 -0.783531 0.778459
v 0.457530 0.577456 0.820242
v 0.645636 0.475702 -0.723265
v 0.524730 -0.771662 -0.771662
v -0.823460 -0.359135 0.635625
v -0.877244 -0.419657 -0.617946
v -0.348569 -0.385223 -0.960881
v 0.488606 -0.405869 -0.908730
v 0.959700 -0.500646 -0.652676
v 0.632471 -0.349559 0.864027
v 0.371346 -0.239136 1.103182
v -0.362153 -0.370821 0.973395
v -0.026801 -0.840735 0.736355
v -0.046480 -0.266300 1.112203
v 0.010318 0.661694 0.794759
v -0.132957 0.588071 -0.686381
v 0.254582 -0.418874 -0.979180
v 0.030866 -0.771662 -0.771662
v -0.880234 0.115994 0.072417
v -1.047632 -0.429525 -0.100104
v -0.887344 -0.739900 0.016299
v -0.482703 -0.922816 -0.005447
v -0.065204 -0.956217 -0.133166
v 0.362881 -0.932728 -0.109437
v 0.624920 -0.776498 -0.061715
v 0.933687 -0.403591 0.076550
v 0.834763 0.065602 0.115886
v 0.475912 0.501086 -0.046757
v 0.041981 0.646524 -0.063412
v -0.421321 0.469862 0.026199
vt 0.169199 0.547917
vt 0.110093 0.516930
vt 0.401305 0.416325
vt 0.316433 0.420551
vt 0.315762 0.513861
vt 0.380756 0.521383
vt 0.362767 0.628295
vt 0.285994 0.615553
vt 0.211344 0.726368
vt 0.344311 0.837178
vt 0.301677 0.884606
vt 0.155161 0.693755
vt 0.162665 0.625781
vt 0.099893 0.627099
vt 0.713950 0.607458
vt 0.711205 0.703035
vt 0.642531 0.681978
vt 0.651788 0.550033
vt 0.209086 0.643815
vt 0.042812 0.510860
vt 0.452194 0.432734
vt 0.434433 0.650153
vt 0.445247 0.551680
vt 0.436373 0.859815
vt 0.802592 0.809539
vt 0.818617 0.708781
vt 0.514269 0.446974
vt 0.750945 0.572239
vt 0.578310 0.659300
vt 0.502821 0.660341
vt 0.505781 0.556355
vt 0.563839 0.545380
vt 0.728426 0.809095
vt 0.475716 0.854978
vt 0.642310 0.793089
vt 0.524074 0.902160
vt 0.755761 0.707810
vt 0.283401 0.734792
vt 0.338808 0.709994
vt 0.398488 0.719893
vt 0.492970 0.743000
vt 0.573127 0.759533
vt 0.392022 0.912947
vt 0.483427 0.910680
vt 0.459009 0.340183
vt 0.518511 0.357274
vt 0.563086 0.438668
vt 0.558862 0.852271
vt 0.691244 0.811155
vt 0.256491 0.807927
vt 0.233799 0.863951
vt 0.225231 0.525261
vt 0.571778 0.356069
vt 0.103436 0.735195
vt 0.380015 0.347204
vt 0.310315 0.364249
vt 0.037996 0.644321
vt 0.802769 0.576070
vt 0.027614 0.744674
vn -0.546965 -0.258976 0.796091
vn -0.546965 -0.258976 0.796091
vn -0.546965 -0.258976 0.796091
vn -0.546965 -0.258976 0.796091
vn -0.605789 0.795592 0.007299
vn -0.605789 0.795592 0.007299
vn -0.605789 0.795592 0.007299
vn -0.605789 0.795592 0.007299
vn -0.525309 -0.394507 -0.753933
vn -0.525309 -0.394507 -0.753933
vn -0.525309 -0.394507 -0.753933
vn -0.525309 -0.394507 -0.753933
vn -0.370723 -0.921689 0.114254
vn -0.370723 -0.921689 0.114254
vn -0.370723 -0.921689 0.114254
vn -0.370723 -0.921689 0.114254
vn 0.830661 -0.508146 0.227575
vn 0.830661 -0.508146 0.227575
vn 0.830661 -0.508146 0.227575
vn 0.830661 -0.508146 0.227575
vn -0.960436 -0.181891 0.210898
vn -0.960436 -0.181891 0.210898
vn -0.960436 -0.181891 0.210898
vn -0.960436 -0.181891 0.210898
vn -0.113187 -0.510693 0.852280
vn -0.113187 -0.510693 0.852280
vn -0.113187 -0.510693 0.852280
vn -0.113187 -0.510693 0.852280
vn -0.403771 0.914858 -0.001583
vn -0.403771 0.914858 -0.001583
vn -0.403771 0.914858 -0.001583
vn -0.403771 0.914858 -0.001583
vn -0.077583 -0.498846 -0.863211
vn -0.077583 -0.498846 -0.863211
vn -0.077583 -0.498846 -0.863211
vn -0.077583 -0.498846 -0.863211
vn -0.046354 -0.989352 0.137960
vn -0.046354 -0.989352 0.137960
vn -0.046354 -0.989352 0.137960
vn -0.046354 -0.989352 0.137960
vn 0.511783 -0.511764 0.690055
vn 0.511783 -0.511764 0.690055
vn 0.511783 -0.511764 0.690055
vn 0.511783 -0.511764 0.690055
vn 0.796213 0.604874 -0.013132
vn 0.796213 0.604874 -0.013132
vn 0.796213 0.604874 -0.013132
vn 0.796213 0.604874 -0.013132
vn 0.321934 -0.103520 -0.941086
vn 0.321934 -0.103520 -0.941086
vn 0.321934 -0.103520 -0.941086
vn 0.321934 -0.103520 -0.941086
vn 0.338363 -0.933658 0.117446
vn 0.338363 -0.933658 0.117446
vn 0.338363 -0.933658 0.117446
vn 0.338363 -0.933658 0.117446
vn -0.971359 0.124116 0.202623
vn -0.971359 0.124116 0.202623
vn -0.971359 0.124116 0.202623
vn -0.971359 0.124116 0.202623
vn -0.466009 0.175026 -0.867295
vn -0.466009 0.175026 -0.867295
vn -0.466009 0.175026 -0.867295
vn -0.466009 0.175026 -0.867295
vn -0.121919 0.294344 -0.947891
vn -0.121919 0.294344 -0.947891
vn -0.121919 0.294344 -0.947891
vn -0.121919 0.294344 -0.947891
vn 0.637047 0.150260 -0.756038
vn 0.637047 0.150260 -0.756038
vn 0.637047 0.150260 -0.756038
vn 0.637047 0.150260 -0.756038
vn 0.959966 0.033421 0.278114
vn 0.959966 0.033421 0.278114
vn 0.959966 0.033421 0.278114
vn 0.959966 0.033421 0.278114
vn 0.583772 0.147873 0.798338
vn 0.583772 0.147873 0.798338
vn 0.583772 0.147873 0.798338
vn 0.583772 0.147873 0.798338
vn -0.168214 0.226657 0.959339
vn -0.168214 0.226657 0.959339
vn -0.168214 0.226657 0.959339
vn -0.168214 0.226657 0.959338
vn -0.542545 -0.009873 0.839969
vn -0.542545 -0.009873 0.839969
vn -0.542545 -0.009873 0.839969
vn -0.542545 -0.009873 0.839969
vn 0.022132 -0.531116 0.847010
vn 0.022132 -0.531115 0.847010
vn 0.022132 -0.531116 0.847010
vn 0.022132 -0.531116 0.847010
vn 0.003458 0.325155 0.945654
vn 0.003458 0.325155 0.945654
vn 0.003458 0.325155 0.945654
vn 0.003458 0.325156 0.945654
vn 0.253951 0.966220 -0.043903
vn 0.253951 0.966220 -0.043903
vn 0.253951 0.966220 -0.043903
vn 0.253951 0.966220 -0.043903
vn 0.056716 0.251603 -0.966167
vn 0.056716 0.251603 -0.966167
vn 0.056716 0.251603 -0.966167
vn 0.056716 0.251603 -0.966167
vn 0.093985 -0.450319 -0.887907
vn 0.093985 -0.450319 -0.887907
vn 0.093985 -0.450319 -0.887907
vn 0.093985 -0.450319 -0.887907
vn 0.090611 -0.984700 0.148848
vn 0.090611 -0.984700 0.148848
vn 0.090611 -0.984700 0.148848
vn 0.090611 -0.984700 0.148848
vn -0.951109 0.242009 -0.191893
vn -0.951109 0.242009 -0.191893
vn -0.951109 0.242009 -0.191893
vn -0.951109 0.242009 -0.191893
vn -0.898695 -0.385575 -0.208996
vn -0.898695 -0.385575 -0.208996
vn -0.898695 -0.385575 -0.208996
vn -0.898695 -0.385575 -0.208996
vn -0.284850 -0.950063 -0.127435
vn -0.284850 -0.950064 -0.127435
vn -0.284850 -0.950064 -0.127435
vn -0.284850 -0.950063 -0.127435
vn -0.093259 -0.963092 -0.252501
vn -0.093259 -0.963092 -0.252501
vn -0.093259 -0.963092 -0.252501
vn -0.093259 -0.963092 -0.252501
vn 0.031108 -0.967510 -0.250913
vn 0.031108 -0.967510 -0.250913
vn 0.031108 -0.967510 -0.250913
vn 0.031108 -0.967510 -0.250913
vn 0.297242 -0.953572 -0.048444
vn 0.297242 -0.953572 -0.048444
vn 0.297242 -0.953572 -0.048444
vn 0.297242 -0.953572 -0.048444
vn 0.758632 -0.638018 0.131947
vn 0.758632 -0.638018 0.131947
vn 0.758632 -0.638018 0.131947
vn 0.758632 -0.638018 0.131947
vn 0.991528 0.081593 0.101067
vn 0.991528 0.081593 0.101067
vn 0.991528 0.081593 0.101067
vn 0.991528 0.081593 0.101067
vn 0.778585 0.614953 0.125056
vn 0.778585 0.614953 0.125056
vn 0.778585 0.614953 0.125056
vn 0.778585 0.614953 0.125056
vn 0.206528 0.976357 -0.063819
vn 0.206528 0.976357 -0.063819
vn 0.206528 0.976357 -0.063819
vn 0.206528 0.976357 -0.063819
vn -0.315497 0.948463 0.029665
vn -0.315497 0.948463 0.029665
vn -0.315497 0.948463 0.029665
vn -0.315497 0.948463 0.029665
vn -0.740410 0.672064 0.011071
vn -0.740410 0.672064 0.011071
vn -0.740410 0.672064 0.011071
vn -0.740410 0.672064 0.011071
s off
g pCube1
usemtl initialShadingGroup
f 1/56/1 9/55/2 24/3/3 17/4/4
f 3/5/5 10/6/6 42/7/7 31/8/8
f 18/50/9 19/10/10 12/11/11 7/51/12
f 33/13/13 34/14/14 9/2/15 1/1/16
f 2/15/17 37/16/18 38/17/19 22/18/20
f 32/19/21 33/13/22 1/1/23 17/52/24
f 25/45/25 26/21/26 24/3/27 9/55/28
f 41/22/29 42/7/30 10/6/31 27/23/32
f 12/11/33 19/10/34 29/24/35 30/43/36
f 9/2/37 34/14/38 35/57/39 25/20/40
f 22/47/41 23/27/42 13/46/43 2/53/44
f 39/29/45 40/30/46 14/31/47 4/32/48
f 16/44/49 20/34/50 21/48/51 8/36/52
f 13/28/53 36/37/54 37/16/55 2/15/56
f 31/8/57 32/19/58 17/52/59 3/5/60
f 5/38/61 11/39/62 19/10/63 18/50/64
f 28/40/65 29/24/66 19/10/67 11/39/68
f 21/48/69 20/34/70 15/41/71 6/42/72
f 22/18/73 38/17/74 39/29/75 4/32/76
f 14/31/77 23/27/78 22/47/79 4/32/80
f 10/6/81 24/3/82 26/21/83 27/23/84
f 17/4/85 24/3/86 10/6/87 3/5/88
f 23/27/89 26/21/90 25/45/91 13/46/92
f 27/23/93 26/21/94 23/27/95 14/31/96
f 40/30/97 41/22/98 27/23/99 14/31/100
f 20/34/101 29/24/102 28/40/103 15/41/104
f 30/43/105 29/24/106 20/34/107 16/44/108
f 25/58/109 35/26/110 36/37/111 13/28/112
f 18/9/113 32/19/114 31/8/115 5/38/116
f 7/12/117 33/13/118 32/19/119 18/9/120
f 7/12/121 12/54/122 34/14/123 33/13/124
f 35/57/125 34/14/126 12/54/127 30/59/128
f 36/37/129 35/26/130 30/25/131 16/33/132
f 37/16/133 36/37/134 16/33/135 8/49/136
f 38/17/137 37/16/138 8/49/139 21/35/140
f 39/29/141 38/17/142 21/35/143 6/42/144
f 15/41/145 40/30/146 39/29/147 6/42/148
f 28/40/149 41/22/150 40/30/151 15/41/152
f 11/39/153 42/7/154 41/22/155 28/40/156
f 31/8/157 42/7/158 11/39/159 5/38/160
g default
v -0.858327 -0.706176 0.523397
v 0.577500 -0.771289 0.555627
v -0.805302 0.171365 0.693533
v 0.710928 0.209497 0.771769
v -0.824020 0.036860 -0.620236
v 0.955253 -0.025834 -0.439997
v -0.828280 -0.762351 -0.429300
v 0.771662 -0.771662 -0.771662
v -0.476551 -0.817286 0.724932
v -0.466267 0.423833 0.875543
v -0.581855 0.455793 -0.599991
v -0.481349 -0.763701 -0.713763
v 0.313890 -0.783531 0.778459
v 0.457530 0.577456 0.820242
v 0.645636 0.475702 -0.723265
v 0.524730 -0.771662 -0.771662
v -0.823460 -0.359135 0.635625
v -0.877244 -0.419657 -0.617946
v -0.348569 -0.385223 -0.960881
v 0.488606 -0.405869 -0.908730
v 0.959700 -0.500646 -0.652676
v 0.632471 -0.349559 0.864027
v 0.371346 -0.239136 1.103182
v -0.362153 -0.370821 0.973395
v -0.026801 -0.840735 0.736355
v -0.046480 -0.266300 1.112203
v 0.010318 0.661694 0.794759
v -0.132957 0.588071 -0.686381
v 0.254582 -0.418874 -0.979180
v 0.030866 -0.771662 -0.771662
v -0.880234 0.115994 0.072417
v -1.047632 -0.429525 -0.100104
v -0.887344 -0.739900 0.016299
v -0.482703 -0.922816 -0.005447
v -0.065204 -0.956217 -0.133166
v 0.362881 -0.932728 -0.109437
v 0.624920 -0.776498 -0.061715
v 0.933687 -0.403591 0.076550
v 0.834763 0.065602 0.115886
v 0.475912 0.501086 -0.046757
v 0.041981 0.646524 -0.063412
v -0.421321 0.469862 0.026199
vt 0.169199 0.547917
vt 0.110093 0.516930
vt 0.401305 0.416325
vt 0.316433 0.420551
vt 0.315762 0.513861
vt 0.380756 0.521383
vt 0.362767 0.628295
vt 0.285994 0.615553
vt 0.211344 0.726368
vt 0.344311 0.837178
vt 0.301677 0.884606
vt 0.155161 0.693755
vt 0.162665 0.625781
vt 0.099893 0.627099
vt 0.713950 0.607458
vt 0.711205 0.703035
vt 0.642531 0.681978
vt 0.651788 0.550033
vt 0.209086 0.643815
vt 0.042812 0.510860
vt 0.452194 0.432734
vt 0.434433 0.650153
vt 0.445247 0.551680
vt 0.436373 0.859815
vt 0.802592 0.809539
vt 0.818617 0.708781
vt 0.514269 0.446974
vt 0.750945 0.572239
vt 0.578310 0.659300
vt 0.502821 0.660341
vt 0.505781 0.556355
vt 0.563839 0.545380
vt 0.728426 0.809095
vt 0.475716 0.854978
vt 0.642310 0.793089
vt 0.524074 0.902160
vt 0.755761 0.707810
vt 0.283401 0.734792
vt 0.338808 0.709994
vt 0.398488 0.719893
vt 0.492970 0.743000
vt 0.573127 0.759533
vt 0.392022 0.912947
vt 0.483427 0.910680
vt 0.459009 0.340183
vt 0.518511 0.357274
vt 0.563086 0.438668
vt 0.558862 0.852271
vt 0.691244 0.811155
vt 0.256491 0.807927
vt 0.233799 0.863951
vt 0.225231 0.525261
vt 0.571778 0.356069
vt 0.103436 0.735195
vt 0.380015 0.347204
vt 0.310315 0.364249
vt 0.037996 0.644321
vt 0.802769 0.576070
vt 0.027614 0.744674
vn -0.546965 -0.258976 0.796091
vn -0.546965 -0.258976 0.796091
vn -0.546965 -0.258976 0.796091
vn -0.546965 -0.258976 0.796091
vn -0.605789 0.795592 0.007299
vn -0.605789 0.795592 0.007299
vn -0.605789 0.795592 0.007299
vn -0.605789 0.795592 0.007299
vn -0.525309 -0.394507 -0.753933
vn -0.525309 -0.394507 -0.753933
vn -0.525309 -0.394507 -0.753933
vn -0.525309 -0.394507 -0.753933
vn -0.370723 -0.921689 0.114254
vn -0.370723 -0.921689 0.114254
vn -0.370723 -0.921689 0.114254
vn -0.370723 -0.921689 0.114254
vn 0.830661 -0.508146 0.227575
vn 0.830661 -0.508146 0.227575
vn 0.830661 -0.508146 0.227575
vn 0.830661 -0.508146 0.227575
vn -0.960436 -0.181891 0.210898
vn -0.960436 -0.181891 0.210898
vn -0.960436 -0.181891 0.210898
vn -0.960436 -0.181891 0.210898
vn -0.113187 -0.510693 0.852280
vn -0.113187 -0.510693 0.852280
vn -0.113187 -0.510693 0.852280
vn -0.113187 -0.510693 0.852280
vn -0.403771 0.914858 -0.001583
vn -0.403771 0.914858 -0.001583
vn -0.403771 0.914858 -0.001583
vn -0.403771 0.914858 -0.001583
vn -0.077583 -0.498846 -0.863211
vn -0.077583 -0.498846 -0.863211
vn -0.077583 -0.498846 -0.863211
vn -0.077583 -0.498846 -0.863211
vn -0.046354 -0.989352 0.137960
vn -0.046354 -0.989352 0.137960
vn -0.046354 -0.989352 0.137960
vn -0.046354 -0.989352 0.137960
vn 0.511783 -0.511764 0.690055
vn 0.511783 -0.511764 0.690055
vn 0.511783 -0.511764 0.690055
vn 0.511783 -0.511764 0.690055
vn 0.796213 0.604874 -0.013132
vn 0.796213 0.604874 -0.013132
vn 0.796213 0.604874 -0.013132
vn 0.796213 0.604874 -0.013132
vn 0.321934 -0.103520 -0.941086
vn 0.321934 -0.103520 -0.941086
vn 0.321934 -0.103520 -0.941086
vn 0.321934 -0.103520 -0.941086
vn 0.338363 -0.933658 0.117446
vn 0.338363 -0.933658 0.117446
vn 0.338363 -0.933658 0.117446
vn 0.338363 -0.933658 0.117446
vn -0.971359 0.124116 0.202623
vn -0.971359 0.124116 0.202623
vn -0.971359 0.124116 0.202623
vn -0.971359 0.124116 0.202623
vn -0.466009 0.175026 -0.867295
vn -0.466009 0.175026 -0.867295
vn -0.466009 0.175026 -0.867295
vn -0.466009 0.175026 -0.867295
vn -0.121919 0.294344 -0.947891
vn -0.121919 0.294344 -0.947891
vn -0.121919 0.294344 -0.947891
vn -0.121919 0.294344 -0.947891
vn 0.637047 0.150260 -0.756038
vn 0.637047 0.150260 -0.756038
vn 0.637047 0.150260 -0.756038
vn 0.637047 0.150260 -0.756038
vn 0.959966 0.033421 0.278114
vn 0.959966 0.033421 0.278114
vn 0.959966 0.033421 0.278114
vn 0.959966 0.033421 0.278114
vn 0.583772 0.147873 0.798338
vn 0.583772 0.147873 0.798338
vn 0.583772 0.147873 0.798338
vn 0.583772 0.147873 0.798338
vn -0.168214 0.226657 0.959339
vn -0.168214 0.226657 0.959339
vn -0.168214 0.226657 0.959339
vn -0.168214 0.226657 0.959338
vn -0.542545 -0.009873 0.839969
vn -0.542545 -0.009873 0.839969
vn -0.542545 -0.009873 0.839969
vn -0.542545 -0.009873 0.839969
vn 0.022132 -0.531116 0.847010
vn 0.022132 -0.531115 0.847010
vn 0.022132 -0.531116 0.847010
vn 0.022132 -0.531116 0.847010
vn 0.003458 0.325155 0.945654
vn 0.003458 0.325155 0.945654
vn 0.003458 0.325155 0.945654
vn 0.003458 0.325156 0.945654
vn 0.253951 0.966220 -0.043903
vn 0.253951 0.966220 -0.043903
vn 0.253951 0.966220 -0.043903
vn 0.253951 0.966220 -0.043903
vn 0.056716 0.251603 -0.966167
vn 0.056716 0.251603 -0.966167
vn 0.056716 0.251603 -0.966167
vn 0.056716 0.251603 -0.966167
vn 0.093985 -0.450319 -0.887907
vn 0.093985 -0.450319 -0.887907
vn 0.093985 -0.450319 -0.887907
vn 0.093985 -0.450319 -0.887907
vn 0.090611 -0.984700 0.148848
vn 0.090611 -0.984700 0.148848
vn 0.090611 -0.984700 0.148848
vn 0.090611 -0.984700 0.148848
vn -0.951109 0.242009 -0.191893
vn -0.951109 0.242009 -0.191893
vn -0.951109 0.242009 -0.191893
vn -0.951109 0.242009 -0.191893
vn -0.898695 -0.385575 -0.208996
vn -0.898695 -0.385575 -0.208996
vn -0.898695 -0.385575 -0.208996
vn -0.898695 -0.385575 -0.208996
vn -0.284850 -0.950063 -0.127435
vn -0.284850 -0.950064 -0.127435
vn -0.284850 -0.950064 -0.127435
vn -0.284850 -0.950063 -0.127435
vn -0.093259 -0.963092 -0.252501
vn -0.093259 -0.963092 -0.252501
vn -0.093259 -0.963092 -0.252501
vn -0.093259 -0.963092 -0.252501
vn 0.031108 -0.967510 -0.250913
vn 0.031108 -0.967510 -0.250913
vn 0.031108 -0.967510 -0.250913
vn 0.031108 -0.967510 -0.250913
vn 0.297242 -0.953572 -0.048444
vn 0.297242 -0.953572 -0.048444
vn 0.297242 -0.953572 -0.048444
vn 0.297242 -0.953572 -0.048444
vn 0.758632 -0.638018 0.131947
vn 0.758632 -0.638018 0.131947
vn 0.758632 -0.638018 0.131947
vn 0.758632 -0.638018 0.131947
vn 0.991528 0.081593 0.101067
vn 0.991528 0.081593 0.101067
vn 0.991528 0.081593 0.101067
vn 0.991528 0.081593 0.101067
vn 0.778585 0.614953 0.125056
vn 0.778585 0.614953 0.125056
vn 0.778585 0.614953 0.125056
vn 0.778585 0.614953 0.125056
vn 0.206528 0.976357 -0.063819
vn 0.206528 0.976357 -0.063819
vn 0.206528 0.976357 -0.063819
vn 0.206528 0.976357 -0.063819
vn -0.315497 0.948463 0.029665
vn -0.315497 0.948463 0.029665
vn -0.315497 0.948463 0.029665
vn -0.315497 0.948463 0.029665
vn -0.740410 0.672064 0.011071
vn -0.740410 0.672064 0.011071
vn -0.740410 0.672064 0.011071
vn -0.740410 0.672064 0.011071
s off
g pCube1
f 43/115/161 51/114/162 66/62/163 59/63/164
f 45/64/165 52/65/166 84/66/167 73/67/168
f 60/109/169 61/69/170 54/70/171 49/110/172
f 75/72/173 76/73/174 51/61/175 43/60/176
f 44/74/177 79/75/178 80/76/179 64/77/180
f 74/78/181 75/72/182 43/60/183 59/111/184
f 67/104/185 68/80/186 66/62/187 51/114/188
f 83/81/189 84/66/190 52/65/191 69/82/192
f 54/70/193 61/69/194 71/83/195 72/102/196
f 51/61/197 76/73/198 77/116/199 67/79/200
f 64/106/201 65/86/202 55/105/203 44/112/204
f 81/88/205 82/89/206 56/90/207 46/91/208
f 58/103/209 62/93/210 63/107/211 50/95/212
f 55/87/213 78/96/214 79/75/215 44/74/216
f 73/67/217 74/78/218 59/111/219 45/64/220
f 47/97/221 53/98/222 61/69/223 60/109/224
f 70/99/225 71/83/226 61/69/227 53/98/228
f 63/107/229 62/93/230 57/100/231 48/101/232
f 64/77/233 80/76/234 81/88/235 46/91/236
f 56/90/237 65/86/238 64/106/239 46/91/240
f 52/65/241 66/62/242 68/80/243 69/82/244
f 59/63/245 66/62/246 52/65/247 45/64/248
f 65/86/249 68/80/250 67/104/251 55/105/252
f 69/82/253 68/80/254 65/86/255 56/90/256
f 82/89/257 83/81/258 69/82/259 56/90/260
f 62/93/261 71/83/262 70/99/263 57/100/264
f 72/102/265 71/83/266 62/93/267 58/103/268
f 67/117/269 77/85/270 78/96/271 55/87/272
f 60/68/273 74/78/274 73/67/275 47/97/276
f 49/71/277 75/72/278 74/78/279 60/68/280
f 49/71/281 54/113/282 76/73/283 75/72/284
f 77/116/285 76/73/286 54/113/287 72/118/288
f 78/96/289 77/85/290 72/84/291 58/92/292
f 79/75/293 78/96/294 58/92/295 50/108/296
f 80/76/297 79/75/298 50/108/299 63/94/300
f 81/88/301 80/76/302 63/94/303 48/101/304
f 57/100/305 82/89/306 81/88/307 48/101/308
f 70/99/309 83/81/310 82/89/311 57/100/312
f 53/98/313 84/66/314 83/81/315 70/99/316
f 73/67/317 84/66/318 53/98/319 47/97/320
