# This file uses centimeters as units for non-parametric coordinates.

mtllib Hammer1.mtl
g default
v -10.287057 6.064233 45.594490
v -10.243673 6.021688 45.653439
v -10.242138 6.095526 45.594490
v -10.123552 6.095526 45.653439
v -10.287057 6.064233 44.923332
v -10.243673 6.021688 44.864388
v -10.287057 5.813862 44.923332
v -10.243673 5.856407 44.864388
v -10.242138 6.095526 44.923332
v -10.123552 6.095526 44.864388
v -9.882746 6.095526 45.594490
v -10.001331 6.095526 45.653439
v -9.837827 6.064233 45.594490
v -9.881210 6.021688 45.653439
v -9.837827 6.064233 44.923332
v -9.881210 6.021688 44.864388
v -9.837827 5.813862 44.923332
v -9.881210 5.856407 44.864388
v -9.882746 6.095526 44.923332
v -10.001331 6.095526 44.864388
v -10.287057 5.813862 45.594490
v -10.243673 5.856407 45.653439
v -10.242138 5.782570 45.594490
v -10.123552 5.782570 45.653439
v -10.242138 5.782570 44.923332
v -10.123552 5.782570 44.864388
v -9.837827 5.813862 45.594490
v -9.881210 5.856407 45.653439
v -9.882746 5.782570 45.594490
v -10.001331 5.782570 45.653439
v -9.882746 5.782570 44.923332
v -10.001331 5.782570 44.864388
v -10.013402 5.760947 45.223286
v -10.043710 5.760947 45.201260
v -10.081174 5.760947 45.201260
v -10.111483 5.760947 45.223286
v -10.123060 5.760947 45.258911
v -10.111483 5.760947 45.294540
v -10.081174 5.760947 45.316563
v -10.043710 5.760947 45.316563
v -10.013402 5.760947 45.294540
v -10.001824 5.760947 45.258911
v -10.013402 5.783854 45.223286
v -10.043710 5.783854 45.201260
v -10.081174 5.783854 45.201260
v -10.111483 5.783854 45.223286
v -10.123060 5.783854 45.258911
v -10.111483 5.783854 45.294540
v -10.081174 5.783854 45.316563
v -10.043710 5.783854 45.316563
v -10.013402 5.783854 45.294540
v -10.001824 5.783854 45.258911
v -10.024271 5.760947 45.231182
v -10.047862 5.760947 45.214039
v -10.077022 5.760947 45.214039
v -10.100614 5.760947 45.231182
v -10.109625 5.760947 45.258911
v -10.100614 5.760947 45.286644
v -10.077022 5.760947 45.303787
v -10.047862 5.760947 45.303787
v -10.024271 5.760947 45.286644
v -10.015260 5.760947 45.258911
v -10.024271 5.272993 45.231182
v -10.047862 5.272993 45.214035
v -10.077022 5.272993 45.214035
v -10.100614 5.272993 45.231178
v -10.109625 5.272993 45.258911
v -10.100614 5.272993 45.286644
v -10.077022 5.272993 45.303787
v -10.047862 5.272993 45.303787
v -10.024271 5.272993 45.286644
v -10.015260 5.272993 45.258911
v -10.018445 5.272993 45.226944
v -10.045637 5.272993 45.207188
v -10.079247 5.272993 45.207184
v -10.106439 5.272993 45.226940
v -10.116825 5.272993 45.258911
v -10.106439 5.272993 45.290878
v -10.079247 5.272993 45.310638
v -10.045637 5.272993 45.310635
v -10.018445 5.272993 45.290878
v -10.008059 5.272993 45.258911
v -10.007558 4.827717 45.219036
v -10.041478 4.827717 45.194389
v -10.083406 4.827717 45.194389
v -10.117326 4.827717 45.219032
v -10.130282 4.827718 45.258911
v -10.117327 4.827717 45.298790
v -10.083406 4.827717 45.323433
v -10.041478 4.827717 45.323433
v -10.007557 4.827717 45.298790
v -9.994601 4.827717 45.258911
v -10.021636 4.798011 45.229263
v -10.046855 4.798011 45.210938
v -10.062442 4.798011 45.258911
v -10.078029 4.798011 45.210938
v -10.103248 4.798011 45.229259
v -10.112882 4.798011 45.258911
v -10.103248 4.798011 45.288563
v -10.078029 4.798011 45.306881
v -10.046855 4.798011 45.306881
v -10.021636 4.798011 45.288559
v -10.012003 4.798011 45.258911
vt 0.036294 0.287913
vt 0.353608 0.274291
vt 0.353886 0.112954
vt 0.036621 0.098236
vt 0.209519 0.098535
vt 0.209192 0.288211
vt 0.180710 0.273993
vt 0.180989 0.112655
vt 0.340727 0.112931
vt 0.118051 0.007822
vt 0.280541 0.112827
vt 0.157782 0.007890
vt 0.340448 0.274268
vt 0.117412 0.378608
vt 0.157143 0.378676
vt 0.280263 0.274164
vt 0.238572 0.288262
vt 0.267103 0.274142
vt 0.094484 0.112507
vt 0.066002 0.098287
vt 0.117901 0.094953
vt 0.107643 0.112529
vt 0.157632 0.095021
vt 0.167829 0.112633
vt 0.107365 0.273866
vt 0.117562 0.291477
vt 0.065675 0.287963
vt 0.094205 0.273843
vt 0.167551 0.273970
vt 0.157293 0.291545
vt 0.267382 0.112805
vt 0.238900 0.098586
vt 0.170575 0.092468
vt 0.175431 0.066176
vt 0.204443 0.091131
vt 0.244002 0.091200
vt 0.175482 0.036797
vt 0.277865 0.092654
vt 0.290799 0.095251
vt 0.204090 0.295597
vt 0.174993 0.320451
vt 0.170227 0.294143
vt 0.104619 0.294030
vt 0.099763 0.320322
vt 0.070751 0.295368
vt 0.104967 0.092355
vt 0.071103 0.090901
vt 0.100201 0.066047
vt 0.290459 0.291776
vt 0.277517 0.294328
vt 0.174942 0.349832
vt 0.243649 0.295665
vt 0.376988 0.295895
vt 0.099712 0.349702
vt 0.343124 0.294441
vt 0.330191 0.291844
vt 0.330530 0.095320
vt 0.343472 0.092767
vt 0.100252 0.036667
vt 0.377341 0.091430
vt 0.007812 0.273694
vt 0.008091 0.112358
vt 0.909688 0.890974
vt 0.917199 0.891688
vt 0.916526 0.897199
vt 0.908482 0.896367
vt 0.924572 0.892058
vt 0.924205 0.897595
vt 0.931888 0.892297
vt 0.931681 0.897836
vt 0.939183 0.892473
vt 0.939073 0.898015
vt 0.946486 0.892603
vt 0.946474 0.898153
vt 0.953828 0.892665
vt 0.953978 0.898232
vt 0.961255 0.892585
vt 0.961721 0.898145
vt 0.968878 0.892173
vt 0.969880 0.897567
vt 0.977209 0.890768
vt 0.978413 0.896086
vt 0.901673 0.889222
vt 0.900012 0.894484
vt 0.912111 0.650855
vt 0.905383 0.654035
vt 0.903669 0.642063
vt 0.915675 0.644272
vt 0.914683 0.636824
vt 0.909498 0.631367
vt 0.902091 0.629992
vt 0.895284 0.633232
vt 0.891665 0.639854
vt 0.892602 0.647343
vt 0.897705 0.652858
vt 0.910617 0.888010
vt 0.917741 0.888603
vt 0.924926 0.888976
vt 0.932142 0.889229
vt 0.939371 0.889407
vt 0.946605 0.889525
vt 0.953835 0.889558
vt 0.961049 0.889446
vt 0.968222 0.889065
vt 0.975297 0.888187
vt 0.903652 0.886930
vt 0.911419 0.771140
vt 0.918813 0.770943
vt 0.926291 0.770892
vt 0.933803 0.770915
vt 0.941324 0.770998
vt 0.948840 0.771141
vt 0.956336 0.771348
vt 0.963784 0.771633
vt 0.971125 0.772057
vt 0.978207 0.772915
vt 0.904225 0.771785
vt 0.910843 0.769533
vt 0.918584 0.769282
vt 0.926220 0.769211
vt 0.933811 0.769225
vt 0.941386 0.769304
vt 0.948956 0.769445
vt 0.956532 0.769655
vt 0.964135 0.769963
vt 0.971809 0.770489
vt 0.979592 0.771698
vt 0.902885 0.770432
vt 0.903980 0.661929
vt 0.913817 0.662084
vt 0.923577 0.662063
vt 0.933295 0.662045
vt 0.942997 0.662116
vt 0.952704 0.662304
vt 0.962434 0.662589
vt 0.972222 0.662902
vt 0.982117 0.663098
vt 0.992188 0.662940
vt 0.894056 0.661322
vt 0.914425 0.654082
vt 0.923878 0.653970
vt 0.933527 0.653908
vt 0.943252 0.653965
vt 0.952969 0.654154
vt 0.962593 0.654448
vt 0.972005 0.654758
vt 0.980998 0.654865
vt 0.989148 0.654117
vn 0.000000 1.000000 0.000000
vn 0.000000 1.000000 0.000000
vn 0.000000 1.000000 0.000000
vn 0.000000 1.000000 0.000000
vn 0.000000 -1.000000 0.000000
vn 0.000000 -1.000000 0.000000
vn 0.000000 -1.000000 0.000000
vn 0.000000 -1.000000 0.000000
vn -0.371943 0.583862 0.721640
vn -0.371943 0.583862 0.721640
vn -0.371943 0.583862 0.721640
vn -0.371943 0.583862 0.721640
vn -0.805393 0.000000 0.592742
vn -0.805393 0.000000 0.592742
vn -0.805393 0.000000 0.592742
vn -0.805393 0.000000 0.592742
vn -0.805393 0.000000 -0.592742
vn -0.805393 0.000000 -0.592742
vn -0.805393 0.000000 -0.592742
vn -0.805393 0.000000 -0.592742
vn -0.371889 0.583848 -0.721679
vn -0.371889 0.583848 -0.721679
vn -0.371889 0.583848 -0.721679
vn -0.371889 0.583848 -0.721679
vn -0.371914 -0.583842 -0.721671
vn -0.371914 -0.583842 -0.721671
vn -0.371914 -0.583842 -0.721671
vn -0.371914 -0.583842 -0.721671
vn 0.371941 0.583867 0.721637
vn 0.371941 0.583867 0.721637
vn 0.371941 0.583867 0.721637
vn 0.371941 0.583867 0.721637
vn 0.805393 0.000000 0.592742
vn 0.805393 0.000000 0.592742
vn 0.805393 0.000000 0.592742
vn 0.805393 0.000000 0.592742
vn 0.371901 0.583851 -0.721670
vn 0.371901 0.583851 -0.721670
vn 0.371901 0.583851 -0.721670
vn 0.371901 0.583851 -0.721670
vn 0.805393 0.000000 -0.592742
vn 0.805393 0.000000 -0.592742
vn 0.805393 0.000000 -0.592742
vn 0.805393 0.000000 -0.592742
vn 0.371914 -0.583849 -0.721665
vn 0.371914 -0.583849 -0.721665
vn 0.371914 -0.583849 -0.721665
vn 0.371914 -0.583849 -0.721665
vn -0.371931 -0.583867 0.721642
vn -0.371931 -0.583867 0.721642
vn -0.371931 -0.583867 0.721642
vn -0.371931 -0.583867 0.721642
vn 0.371916 -0.583871 0.721646
vn 0.371916 -0.583871 0.721646
vn 0.371916 -0.583872 0.721646
vn 0.371916 -0.583871 0.721646
vn 1.000000 0.000000 0.000000
vn 1.000000 0.000000 0.000000
vn 1.000000 0.000000 0.000000
vn 1.000000 0.000000 0.000000
vn -1.000000 0.000000 0.000000
vn -1.000000 0.000000 0.000000
vn -1.000000 0.000000 0.000000
vn -1.000000 0.000000 0.000000
vn 0.000000 0.000000 -1.000000
vn 0.000000 0.000000 -1.000000
vn 0.000000 0.000000 -1.000000
vn 0.000000 0.000000 -1.000000
vn 0.000000 0.000000 1.000000
vn 0.000000 0.000000 1.000000
vn 0.000000 0.000000 1.000000
vn 0.000000 0.000000 1.000000
vn -0.571621 0.820518 0.000000
vn -0.571621 0.820518 0.000000
vn -0.571621 0.820518 0.000000
vn -0.571621 0.820518 0.000000
vn 0.571621 0.820518 0.000000
vn 0.571621 0.820518 0.000000
vn 0.571621 0.820518 0.000000
vn 0.571621 0.820518 0.000000
vn -0.571614 -0.820523 0.000000
vn -0.571614 -0.820523 0.000000
vn -0.571614 -0.820523 0.000000
vn -0.571614 -0.820523 0.000000
vn 0.571614 -0.820523 0.000000
vn 0.571614 -0.820523 0.000000
vn 0.571614 -0.820523 0.000000
vn 0.571614 -0.820523 0.000000
vn 0.000000 0.000000 -1.000000
vn 0.000000 0.000000 -1.000000
vn 0.000000 0.000000 -1.000000
vn 0.000000 0.000000 -1.000000
vn 0.000000 0.000000 1.000000
vn 0.000000 0.000000 1.000000
vn 0.000000 0.000000 1.000000
vn 0.000000 0.000000 1.000000
vn 0.000000 1.000000 0.000000
vn 0.000000 1.000000 0.000000
vn 0.000000 1.000000 0.000000
vn 0.000000 1.000000 0.000000
vn 0.000000 -1.000000 0.000000
vn 0.000000 -1.000000 0.000000
vn 0.000000 -1.000000 0.000000
vn 0.000000 -1.000000 0.000000
vn 0.587957 0.000000 -0.808892
vn 0.587957 0.000000 -0.808892
vn 0.587957 0.000000 -0.808892
vn 0.587957 0.000000 -0.808892
vn 0.000000 0.000000 -1.000000
vn 0.000000 0.000000 -1.000000
vn 0.000000 0.000000 -1.000000
vn 0.000000 0.000000 -1.000000
vn -0.587932 0.000000 -0.808910
vn -0.587932 0.000000 -0.808910
vn -0.587932 0.000000 -0.808910
vn -0.587932 0.000000 -0.808910
vn -0.951032 0.000000 -0.309094
vn -0.951032 0.000000 -0.309094
vn -0.951032 0.000000 -0.309094
vn -0.951032 0.000000 -0.309094
vn -0.951058 0.000000 0.309012
vn -0.951058 0.000000 0.309012
vn -0.951058 0.000000 0.309012
vn -0.951058 0.000000 0.309012
vn -0.587750 0.000000 0.809042
vn -0.587750 0.000000 0.809042
vn -0.587750 0.000000 0.809042
vn -0.587750 0.000000 0.809042
vn 0.000000 0.000000 1.000000
vn 0.000000 0.000000 1.000000
vn 0.000000 0.000000 1.000000
vn 0.000000 0.000000 1.000000
vn 0.587775 0.000000 0.809024
vn 0.587775 0.000000 0.809024
vn 0.587775 0.000000 0.809024
vn 0.587775 0.000000 0.809024
vn 0.951058 0.000000 0.309012
vn 0.951058 0.000000 0.309012
vn 0.951058 0.000000 0.309012
vn 0.951058 0.000000 0.309012
vn 0.951032 0.000000 -0.309094
vn 0.951032 0.000000 -0.309094
vn 0.951032 0.000000 -0.309094
vn 0.951032 0.000000 -0.309094
vn 0.000000 -1.000000 -0.000005
vn 0.000000 -1.000000 0.000005
vn 0.000000 -1.000000 -0.000000
vn 0.000000 -1.000000 0.000000
vn 0.000000 -1.000000 0.000010
vn 0.000000 -1.000000 0.000000
vn 0.000000 -1.000000 -0.000005
vn 0.000000 -1.000000 0.000005
vn 0.000000 -1.000000 0.000000
vn 0.000000 -1.000000 -0.000010
vn 0.000000 -1.000000 0.000000
vn 0.000000 -1.000000 0.000000
vn 0.000000 -1.000000 -0.000009
vn 0.000000 -1.000000 -0.000009
vn 0.000000 -1.000000 -0.000000
vn 0.000000 -1.000000 0.000026
vn 0.000000 -1.000000 0.000026
vn 0.000000 -1.000000 0.000026
vn 0.000000 -1.000000 0.000026
vn 0.000000 -1.000000 0.000009
vn 0.000000 -1.000000 0.000009
vn 0.000000 -1.000000 -0.000009
vn 0.000000 -1.000000 -0.000009
vn 0.000000 -1.000000 -0.000018
vn 0.000000 -1.000000 -0.000018
vn 0.000000 -1.000000 -0.000009
vn 0.000000 -1.000000 -0.000009
vn 0.000000 -1.000000 -0.000009
vn 0.000000 -1.000000 -0.000009
vn 0.000000 -1.000000 -0.000009
vn 0.000000 -1.000000 -0.000009
vn 0.587884 0.000003 -0.808945
vn 0.587884 0.000003 -0.808945
vn 0.587884 0.000003 -0.808945
vn 0.587884 0.000003 -0.808945
vn 0.000000 0.000008 -1.000000
vn 0.000000 0.000008 -1.000000
vn 0.000000 0.000008 -1.000000
vn 0.000000 0.000008 -1.000000
vn -0.587781 0.000006 -0.809020
vn -0.587781 0.000006 -0.809020
vn -0.587781 0.000006 -0.809020
vn -0.587781 0.000006 -0.809020
vn -0.951055 0.000000 -0.309021
vn -0.951055 0.000000 -0.309021
vn -0.951055 0.000000 -0.309021
vn -0.951055 0.000000 -0.309021
vn -0.951055 0.000000 0.309021
vn -0.951055 0.000000 0.309021
vn -0.951055 0.000000 0.309021
vn -0.951055 0.000000 0.309021
vn -0.587869 0.000000 0.808956
vn -0.587869 0.000000 0.808956
vn -0.587869 0.000000 0.808956
vn -0.587869 0.000000 0.808956
vn 0.000000 0.000000 1.000000
vn 0.000000 0.000000 1.000000
vn 0.000000 0.000000 1.000000
vn 0.000000 0.000000 1.000000
vn 0.587884 0.000000 0.808945
vn 0.587884 0.000000 0.808945
vn 0.587884 0.000000 0.808945
vn 0.587884 0.000000 0.808945
vn 0.951055 0.000000 0.309021
vn 0.951055 0.000000 0.309021
vn 0.951055 0.000000 0.309021
vn 0.951055 0.000000 0.309021
vn 0.951042 0.000000 -0.309061
vn 0.951042 0.000000 -0.309061
vn 0.951042 0.000000 -0.309061
vn 0.951042 0.000000 -0.309061
vn 0.000000 1.000000 0.000017
vn 0.000000 1.000000 0.000004
vn 0.000000 1.000000 0.000004
vn 0.000000 1.000000 0.000017
vn 0.000000 1.000000 0.000004
vn 0.000000 1.000000 0.000004
vn 0.000000 1.000000 -0.000009
vn 0.000000 1.000000 -0.000009
vn 0.000000 1.000000 0.000000
vn 0.000000 1.000000 0.000000
vn 0.000000 1.000000 0.000013
vn 0.000000 1.000000 0.000013
vn 0.000000 1.000000 0.000017
vn 0.000000 1.000000 0.000017
vn 0.000000 1.000000 -0.000004
vn 0.000000 1.000000 -0.000004
vn 0.000000 1.000000 -0.000009
vn 0.000000 1.000000 -0.000009
vn 0.000000 1.000000 0.000000
vn 0.000000 1.000000 0.000000
vn 0.587562 0.028730 -0.808669
vn 0.587562 0.028730 -0.808669
vn 0.587805 -0.003615 -0.808995
vn 0.587805 -0.003615 -0.808995
vn 0.000113 0.028727 -0.999587
vn 0.000113 0.028727 -0.999587
vn 0.000107 -0.003618 -0.999993
vn 0.000107 -0.003617 -0.999993
vn -0.587500 0.028726 -0.808714
vn -0.587500 0.028726 -0.808714
vn -0.587739 -0.003621 -0.809043
vn -0.587739 -0.003619 -0.809043
vn -0.950676 0.028731 -0.308853
vn -0.950676 0.028731 -0.308853
vn -0.951062 -0.003615 -0.308979
vn -0.951062 -0.003614 -0.308979
vn -0.950679 0.028732 0.308842
vn -0.950679 0.028732 0.308842
vn -0.951065 -0.003616 0.308970
vn -0.951065 -0.003617 0.308970
vn -0.587568 0.028729 0.808665
vn -0.587568 0.028729 0.808665
vn -0.587799 -0.003616 0.808999
vn -0.587799 -0.003617 0.808999
vn 0.000113 0.028727 0.999587
vn 0.000113 0.028727 0.999587
vn 0.000107 -0.003623 0.999993
vn 0.000107 -0.003624 0.999993
vn 0.587481 0.028736 0.808727
vn 0.587481 0.028736 0.808727
vn 0.587717 -0.003616 0.809058
vn 0.587717 -0.003617 0.809059
vn 0.950679 0.028729 0.308843
vn 0.950679 0.028729 0.308843
vn 0.951065 -0.003614 0.308969
vn 0.951065 -0.003616 0.308969
vn 0.950654 0.028735 -0.308921
vn 0.950654 0.028735 -0.308921
vn 0.951040 -0.003615 -0.309046
vn 0.951040 -0.003616 -0.309046
vn 0.513581 -0.486631 -0.706701
vn 0.513580 -0.486631 -0.706701
vn 0.000000 -0.486647 -0.873599
vn 0.000000 -0.486647 -0.873599
vn -0.513450 -0.486671 -0.706767
vn -0.513450 -0.486671 -0.706767
vn -0.830848 -0.486651 -0.269931
vn -0.830848 -0.486651 -0.269931
vn -0.830820 -0.486697 0.269935
vn -0.830820 -0.486697 0.269935
vn -0.513363 -0.486721 0.706797
vn -0.513363 -0.486721 0.706797
vn 0.000000 -0.486720 0.873558
vn 0.000000 -0.486720 0.873558
vn 0.513342 -0.486774 0.706775
vn 0.513342 -0.486774 0.706775
vn 0.830836 -0.486676 0.269922
vn 0.830836 -0.486676 0.269922
vn 0.830809 -0.486699 -0.269963
vn 0.830809 -0.486699 -0.269963
s 1
g Hammer1 tools
usemtl initialShadingGroup
f 10/1/1 9/61/2 3/62/3 4/4/4
s 2
f 30/5/5 32/6/6 31/7/7 29/8/8
s off
f 1/9/9 2/58/10 4/60/11 3/3/12
f 2/57/13 1/9/14 21/11/15 22/39/16
f 5/13/17 6/56/18 8/49/19 7/16/20
f 6/55/21 5/13/22 9/2/23 10/53/24
f 7/16/25 8/50/26 26/52/27 25/18/28
f 11/19/29 12/47/30 14/46/31 13/22/32
f 13/22/33 14/21/34 28/23/35 27/24/36
f 15/25/37 16/43/38 20/45/39 19/28/40
f 16/26/41 15/25/42 17/29/43 18/30/44
f 18/42/45 17/29/46 31/7/47 32/40/48
f 22/38/49 21/11/50 23/31/51 24/36/52
f 27/24/53 28/33/54 30/35/55 29/8/56
f 27/24/57 17/29/58 15/25/59 13/22/60
f 7/16/61 21/11/62 1/9/63 5/13/64
s 3
f 6/14/65 10/54/66 20/44/67 16/26/68
s 4
f 2/10/69 14/21/70 12/48/71 4/59/72
s off
f 1/9/73 3/3/74 9/2/75 5/13/76
f 11/19/77 13/22/78 15/25/79 19/28/80
f 23/31/81 21/11/82 7/16/83 25/18/84
f 27/24/85 29/8/86 31/7/87 17/29/88
s 3
f 8/15/89 18/30/90 32/41/91 26/51/92
f 6/14/65 16/26/68 18/30/90 8/15/89
s 4
f 22/12/93 24/37/94 30/34/95 28/23/96
f 22/12/93 28/23/96 14/21/70 2/10/69
s 1
f 20/27/97 12/20/98 11/19/99 19/28/100
f 10/1/1 4/4/4 12/20/98 20/27/97
s 2
f 24/32/101 26/17/102 32/6/6 30/5/5
f 24/32/101 23/31/103 25/18/104 26/17/102
s off
f 33/63/105 34/64/106 44/65/107 43/66/108
f 34/64/109 35/67/110 45/68/111 44/65/112
f 35/67/113 36/69/114 46/70/115 45/68/116
f 36/69/117 37/71/118 47/72/119 46/70/120
f 37/71/121 38/73/122 48/74/123 47/72/124
f 38/73/125 39/75/126 49/76/127 48/74/128
f 39/75/129 40/77/130 50/78/131 49/76/132
f 40/77/133 41/79/134 51/80/135 50/78/136
f 41/79/137 42/81/138 52/82/139 51/80/140
f 42/83/141 33/63/142 43/66/143 52/84/144
s 5
f 94/85/145 93/86/146 95/87/147
f 96/88/148 94/85/145 95/87/147
f 97/89/149 96/88/148 95/87/147
f 98/90/150 97/89/149 95/87/147
f 99/91/151 98/90/150 95/87/147
f 100/92/152 99/91/151 95/87/147
f 101/93/153 100/92/152 95/87/147
f 102/94/154 101/93/153 95/87/147
f 103/95/155 102/94/154 95/87/147
f 93/86/146 103/95/155 95/87/147
s 6
f 34/64/156 33/63/157 53/96/158 54/97/159
f 35/67/160 34/64/156 54/97/159 55/98/161
f 36/69/162 35/67/160 55/98/161 56/99/163
f 37/71/164 36/69/162 56/99/163 57/100/165
f 38/73/166 37/71/164 57/100/165 58/101/167
f 39/75/168 38/73/166 58/101/167 59/102/169
f 40/77/170 39/75/168 59/102/169 60/103/171
f 41/79/172 40/77/170 60/103/171 61/104/173
f 42/81/174 41/79/172 61/104/173 62/105/175
f 33/63/157 42/83/174 62/106/175 53/96/158
s off
f 54/97/176 53/96/177 63/107/178 64/108/179
f 55/98/180 54/97/181 64/108/182 65/109/183
f 56/99/184 55/98/185 65/109/186 66/110/187
f 57/100/188 56/99/189 66/110/190 67/111/191
f 58/101/192 57/100/193 67/111/194 68/112/195
f 59/102/196 58/101/197 68/112/198 69/113/199
f 60/103/200 59/102/201 69/113/202 70/114/203
f 61/104/204 60/103/205 70/114/206 71/115/207
f 62/105/208 61/104/209 71/115/210 72/116/211
f 53/96/212 62/106/213 72/117/214 63/107/215
s 7
f 64/108/216 63/107/217 73/118/218 74/119/219
f 65/109/220 64/108/216 74/119/219 75/120/221
f 66/110/222 65/109/220 75/120/221 76/121/223
f 67/111/224 66/110/222 76/121/223 77/122/225
f 68/112/226 67/111/224 77/122/225 78/123/227
f 69/113/228 68/112/226 78/123/227 79/124/229
f 70/114/230 69/113/228 79/124/229 80/125/231
f 71/115/232 70/114/230 80/125/231 81/126/233
f 72/116/234 71/115/232 81/126/233 82/127/235
f 63/107/217 72/117/234 82/128/235 73/118/218
s 8
f 74/119/236 73/118/237 83/129/238 84/130/239
s 9
f 75/120/240 74/119/241 84/130/242 85/131/243
s 10
f 76/121/244 75/120/245 85/131/246 86/132/247
s 11
f 77/122/248 76/121/249 86/132/250 87/133/251
s 12
f 78/123/252 77/122/253 87/133/254 88/134/255
s 13
f 79/124/256 78/123/257 88/134/258 89/135/259
s 14
f 80/125/260 79/124/261 89/135/262 90/136/263
s 15
f 81/126/264 80/125/265 90/136/266 91/137/267
s 16
f 82/127/268 81/126/269 91/137/270 92/138/271
s 17
f 73/118/272 82/128/273 92/139/274 83/129/275
s 8
f 84/130/239 83/129/238 93/86/276 94/140/277
s 9
f 85/131/243 84/130/242 94/140/278 96/141/279
s 10
f 86/132/247 85/131/246 96/141/280 97/142/281
s 11
f 87/133/251 86/132/250 97/142/282 98/143/283
s 12
f 88/134/255 87/133/254 98/143/284 99/144/285
s 13
f 89/135/259 88/134/258 99/144/286 100/145/287
s 14
f 90/136/263 89/135/262 100/145/288 101/146/289
s 15
f 91/137/267 90/136/266 101/146/290 102/147/291
s 16
f 92/138/271 91/137/270 102/147/292 103/148/293
s 17
f 83/129/275 92/139/274 103/95/294 93/86/295
