# This file uses centimeters as units for non-parametric coordinates.

mtllib Metal_Bolt_2.mtl
g default
v -3.890026 2.204298 -0.124007
v -3.985252 2.204298 -0.193457
v -4.102957 2.204298 -0.193457
v -4.198183 2.204298 -0.124007
v -4.234556 2.204298 -0.011634
v -4.198183 2.204298 0.100739
v -4.102957 2.204298 0.170189
v -3.985252 2.204298 0.170189
v -3.890027 2.204298 0.100739
v -3.853653 2.204298 -0.011634
v -3.783539 2.869932 -0.201670
v -3.944578 2.869932 -0.319119
v -4.143632 2.869932 -0.319119
v -4.304670 2.869932 -0.201670
v -4.366181 2.869932 -0.011634
v -4.304670 2.869932 0.178403
v -4.143632 2.869932 0.295852
v -3.944578 2.869932 0.295852
v -3.783539 2.869932 0.178403
v -3.722028 2.869932 -0.011634
v -4.044105 2.204298 -0.011634
v -3.786350 2.427025 -0.199620
v -3.725503 2.427025 -0.011634
v -3.786350 2.427025 0.176353
v -3.945651 2.427025 0.292534
v -4.142558 2.427025 0.292534
v -4.301859 2.427025 0.176353
v -4.362707 2.427025 -0.011634
v -4.301859 2.427025 -0.199620
v -4.142558 2.427025 -0.315802
v -3.945651 2.427025 -0.315802
v -3.722175 2.450773 -0.334164
v -4.033870 2.450773 -0.465425
v -4.345564 2.450773 -0.334164
v -4.474672 2.450773 -0.017274
v -4.345564 2.450773 0.299616
v -4.033870 2.450773 0.430877
v -3.722175 2.450773 0.299616
v -3.593067 2.450773 -0.017274
v -3.722175 2.520547 -0.334164
v -4.033870 2.520547 -0.465425
v -4.345564 2.520547 -0.334164
v -4.474672 2.520547 -0.017274
v -4.345564 2.520547 0.299616
v -4.033870 2.520547 0.430877
v -3.722175 2.520547 0.299616
v -3.593067 2.520547 -0.017274
v -4.033870 2.450773 -0.017274
v -4.033870 2.520547 -0.017274
v -3.706170 2.614069 -0.336586
v -4.033870 2.614069 -0.468849
v -4.361569 2.614069 -0.336586
v -4.497307 2.614069 -0.017274
v -4.361569 2.614069 0.302038
v -4.033870 2.614069 0.434301
v -3.706170 2.614069 0.302038
v -3.570433 2.614069 -0.017274
v -3.706170 2.692150 -0.336586
v -4.033870 2.692150 -0.468849
v -4.361569 2.692150 -0.336586
v -4.497307 2.692150 -0.017274
v -4.361569 2.692150 0.302038
v -4.033870 2.692150 0.434301
v -3.706170 2.692150 0.302038
v -3.570433 2.692150 -0.017274
v -4.033870 2.614069 -0.017274
v -4.033870 2.692150 -0.017274
v -3.726338 2.777687 -0.339048
v -4.035259 2.777687 -0.472737
v -4.344179 2.777687 -0.339048
v -4.472137 2.777687 -0.016296
v -4.344179 2.777687 0.306457
v -4.035259 2.777687 0.440146
v -3.726338 2.777687 0.306457
v -3.598380 2.777687 -0.016296
v -3.726338 2.879972 -0.339048
v -4.035259 2.879972 -0.472737
v -4.344179 2.879972 -0.339048
v -4.472137 2.879972 -0.016296
v -4.344179 2.879972 0.306457
v -4.035259 2.879972 0.440146
v -3.726338 2.879972 0.306457
v -3.598380 2.879972 -0.016296
v -4.035259 2.777687 -0.016296
v -3.450310 2.882580 -0.617159
v -4.030422 2.882580 -0.857449
v -4.610532 2.882580 -0.617159
v -4.850824 2.882580 -0.037047
v -4.610532 2.882580 0.543064
v -4.030422 2.882580 0.783355
v -3.450310 2.882580 0.543064
v -3.210020 2.882580 -0.037047
v -3.567867 3.182706 -0.499601
v -4.030422 3.182706 -0.691198
v -4.492975 3.182706 -0.499601
v -4.684572 3.182706 -0.037047
v -4.492975 3.182706 0.425507
v -4.030422 3.182706 0.617103
v -3.567867 3.182706 0.425507
v -3.376271 3.182706 -0.037047
v -3.780089 3.383245 -0.287380
v -4.030422 3.383245 -0.391071
v -4.280753 3.383245 -0.287380
v -4.384444 3.383245 -0.037047
v -4.280753 3.383245 0.213285
v -4.030422 3.383245 0.316976
v -3.780089 3.383245 0.213285
v -3.676398 3.383245 -0.037047
v -4.030422 3.453664 -0.037047
v -4.030422 2.882580 -0.006358
vt 0.878526 0.909153
vt 0.896659 0.891241
vt 0.941436 0.924231
vt 0.911102 0.954196
vt 0.908422 0.868667
vt 0.961115 0.886468
vt 0.912716 0.843543
vt 0.968297 0.844439
vt 0.747530 0.844397
vt 0.752172 0.869514
vt 0.699727 0.887885
vt 0.691961 0.845867
vt 0.764219 0.892038
vt 0.719879 0.925565
vt 0.782512 0.909786
vt 0.750482 0.955255
vt 0.805331 0.921066
vt 0.788655 0.974125
vt 0.830541 0.924823
vt 0.830828 0.980411
vt 0.855751 0.920717
vt 0.873002 0.973541
vt 0.761529 0.578605
vt 0.773325 0.517638
vt 0.861421 0.565954
vt 0.787889 0.634739
vt 0.842335 0.664600
vt 0.904072 0.656781
vt 0.949517 0.614269
vt 0.961313 0.553302
vt 0.934954 0.497168
vt 0.880507 0.467308
vt 0.818770 0.475127
vt 0.467181 0.861215
vt 0.513741 0.861215
vt 0.514084 0.965164
vt 0.467380 0.965164
vt 0.420681 0.861215
vt 0.420614 0.965164
vt 0.374222 0.861215
vt 0.374006 0.965165
vt 0.327644 0.861215
vt 0.327644 0.965164
vt 0.281114 0.861215
vt 0.281114 0.965164
vt 0.234489 0.861215
vt 0.234489 0.965165
vt 0.187869 0.861215
vt 0.187869 0.965165
vt 0.606777 0.861215
vt 0.653435 0.861215
vt 0.653435 0.965165
vt 0.607045 0.965164
vt 0.560393 0.861215
vt 0.560496 0.965164
vt 0.146761 0.166011
vt 0.050718 0.166011
vt 0.050703 0.146603
vt 0.146761 0.146400
vt 0.055164 0.192478
vt 0.151219 0.192369
vt 0.151219 0.212075
vt 0.055172 0.212075
vt 0.248399 0.192259
vt 0.248399 0.212075
vt 0.345576 0.192148
vt 0.345582 0.212075
vt 0.441630 0.192039
vt 0.441630 0.212075
vt 0.437172 0.166011
vt 0.341127 0.166011
vt 0.341115 0.145991
vt 0.437172 0.145788
vt 0.243941 0.166011
vt 0.243941 0.146195
vt 0.747515 0.173439
vt 0.684793 0.232445
vt 0.645036 0.125547
vt 0.750103 0.089989
vt 0.685435 0.026490
vt 0.602391 0.026461
vt 0.544328 0.084475
vt 0.539614 0.173434
vt 0.598677 0.232443
vt 0.900727 0.419740
vt 0.833533 0.420281
vt 0.865972 0.340743
vt 0.786101 0.373438
vt 0.784920 0.308003
vt 0.831218 0.261747
vt 0.898412 0.261205
vt 0.945843 0.308048
vt 0.947025 0.373483
vt 0.159128 0.058599
vt 0.051384 0.058590
vt 0.051384 0.034784
vt 0.159128 0.034793
vt 0.042468 0.092785
vt 0.150213 0.092769
vt 0.150213 0.116575
vt 0.042468 0.116592
vt 0.256000 0.092753
vt 0.256000 0.116559
vt 0.361787 0.092737
vt 0.361787 0.116543
vt 0.469531 0.092720
vt 0.469532 0.116527
vt 0.478446 0.058627
vt 0.370702 0.058617
vt 0.370703 0.034811
vt 0.478447 0.034820
vt 0.264915 0.058608
vt 0.264915 0.034802
vt 0.905538 0.027159
vt 0.970206 0.090658
vt 0.865139 0.126216
vt 0.822494 0.027130
vt 0.764431 0.085144
vt 0.759717 0.174103
vt 0.818780 0.233112
vt 0.904896 0.233114
vt 0.967618 0.174108
vt 0.688012 0.428603
vt 0.620818 0.429144
vt 0.653257 0.349606
vt 0.573386 0.382301
vt 0.572205 0.316866
vt 0.618503 0.270610
vt 0.685697 0.270068
vt 0.733128 0.316911
vt 0.734310 0.382346
vt 0.041816 0.241217
vt 0.165591 0.241217
vt 0.165591 0.278247
vt 0.041816 0.278247
vt 0.289366 0.241217
vt 0.289366 0.278247
vt 0.413141 0.241217
vt 0.413141 0.278247
vt 0.536915 0.241217
vt 0.536915 0.278247
vt 0.529316 0.345052
vt 0.405542 0.345052
vt 0.405542 0.308023
vt 0.529316 0.308023
vt 0.281767 0.345052
vt 0.281767 0.308023
vt 0.157993 0.345052
vt 0.157993 0.308023
vt 0.034217 0.345052
vt 0.034217 0.308023
vt 0.719781 0.539158
vt 0.717465 0.613858
vt 0.625731 0.570988
vt 0.661894 0.482317
vt 0.587557 0.482291
vt 0.535582 0.534222
vt 0.531363 0.613854
vt 0.584233 0.666676
vt 0.661319 0.666678
vt 0.302318 0.791535
vt 0.199456 0.825231
vt 0.198065 0.770110
vt 0.271863 0.746069
vt 0.094764 0.793019
vt 0.124321 0.745754
vt 0.026071 0.711155
vt 0.075889 0.682382
vt 0.030819 0.522987
vt 0.101359 0.437924
vt 0.134581 0.485968
vt 0.082298 0.552961
vt 0.210608 0.400336
vt 0.212963 0.459143
vt 0.322853 0.433060
vt 0.292054 0.483972
vt 0.397462 0.519345
vt 0.344747 0.550842
vt 0.369576 0.712829
vt 0.321768 0.684038
vt 0.198260 0.713194
vt 0.238686 0.699545
vt 0.158261 0.699321
vt 0.135164 0.663555
vt 0.170725 0.535098
vt 0.144971 0.574394
vt 0.213655 0.519892
vt 0.256565 0.534066
vt 0.281781 0.571872
vt 0.263356 0.663091
vt 0.198934 0.654840
vt 0.213858 0.582182
vt 0.490149 0.736330
vt 0.445977 0.657033
vt 0.515188 0.651614
vt 0.573380 0.765932
vt 0.567960 0.696721
vt 0.406289 0.779017
vt 0.400870 0.709806
vt 0.528273 0.818704
vt 0.459062 0.824124
vn 0.629781 -0.629179 -0.455533
vn 0.240991 -0.629828 -0.738404
vn 0.306212 -0.156493 -0.939013
vn 0.800082 -0.156232 -0.579189
vn -0.240991 -0.629827 -0.738404
vn -0.306212 -0.156492 -0.939012
vn -0.629781 -0.629178 -0.455534
vn -0.800082 -0.156231 -0.579190
vn -0.777583 -0.628780 0.000000
vn -0.987746 -0.156071 0.000000
vn -0.629781 -0.629178 0.455534
vn -0.800082 -0.156231 0.579190
vn -0.240991 -0.629827 0.738404
vn -0.306212 -0.156492 0.939012
vn 0.240991 -0.629828 0.738404
vn 0.306212 -0.156492 0.939012
vn 0.629781 -0.629179 0.455533
vn 0.800082 -0.156232 0.579189
vn 0.777584 -0.628779 0.000001
vn 0.987746 -0.156071 0.000000
vn 0.000000 -1.000000 0.000000
vn 0.810055 -0.007856 -0.586302
vn 0.999969 -0.007845 0.000000
vn 0.810055 -0.007855 0.586302
vn 0.310074 -0.007872 0.950680
vn -0.310074 -0.007872 0.950680
vn -0.810055 -0.007855 0.586302
vn -0.999969 -0.007845 0.000000
vn -0.810055 -0.007855 -0.586301
vn -0.310074 -0.007872 -0.950680
vn 0.310074 -0.007872 -0.950680
vn 0.712927 0.000000 -0.701238
vn 0.000000 0.000000 -1.000000
vn 0.000000 0.922881 -0.385084
vn 0.275310 0.922428 -0.270796
vn -0.712927 0.000000 -0.701238
vn -0.275311 0.922428 -0.270797
vn -1.000000 0.000000 0.000000
vn -0.387257 0.921972 -0.000000
vn -0.712927 0.000000 0.701238
vn -0.275311 0.922428 0.270797
vn -0.000000 0.000000 1.000000
vn -0.000000 0.922881 0.385085
vn 0.712927 0.000000 0.701238
vn 0.275310 0.922428 0.270797
vn 1.000000 0.000000 -0.000000
vn 0.387256 0.921972 0.000000
vn 0.000000 -1.000000 0.000000
vn 0.000000 -1.000000 0.000000
vn 0.000000 -1.000000 0.000000
vn 0.000000 -1.000000 0.000000
vn 0.000000 -1.000000 0.000000
vn 0.000000 -1.000000 0.000000
vn 0.000000 -1.000000 0.000000
vn 0.000000 -1.000000 0.000000
vn 0.000000 -1.000000 0.000000
vn 0.000000 1.000000 -0.000000
vn 0.697882 0.000000 -0.716213
vn 0.000000 0.000000 -1.000000
vn 0.000000 0.909331 -0.416073
vn 0.289126 0.910145 -0.296720
vn -0.697882 0.000000 -0.716213
vn -0.289126 0.910145 -0.296720
vn -1.000000 0.000000 0.000000
vn -0.412516 0.910950 0.000000
vn -0.697881 0.000000 0.716213
vn -0.289126 0.910145 0.296721
vn -0.000000 0.000000 1.000000
vn -0.000000 0.909331 0.416073
vn 0.697882 0.000000 0.716213
vn 0.289126 0.910145 0.296721
vn 1.000000 0.000000 0.000000
vn 0.412516 0.910950 0.000000
vn 0.000000 -1.000000 0.000000
vn 0.000000 -1.000000 0.000000
vn 0.000000 -1.000000 -0.000000
vn 0.000000 -1.000000 0.000000
vn 0.000000 -1.000000 -0.000000
vn 0.000000 -1.000000 -0.000000
vn 0.000000 -1.000000 0.000000
vn 0.000000 -1.000000 0.000000
vn 0.000000 -1.000000 0.000000
vn 0.000000 1.000000 0.000000
vn 0.722418 0.000000 -0.691457
vn 0.000000 0.000000 -1.000000
vn 0.000000 0.000000 -1.000000
vn 0.722418 0.000000 -0.691457
vn -0.722418 0.000000 -0.691456
vn -0.722418 0.000000 -0.691456
vn -1.000000 0.000000 0.000000
vn -1.000000 0.000000 0.000000
vn -0.722418 0.000000 0.691456
vn -0.722418 0.000000 0.691456
vn 0.000000 0.000000 1.000000
vn 0.000000 0.000000 1.000000
vn 0.722418 0.000000 0.691457
vn 0.722418 0.000000 0.691457
vn 1.000000 0.000000 0.000000
vn 1.000000 0.000000 0.000000
vn 0.000000 -1.000000 0.000000
vn 0.000000 -1.000000 0.000000
vn 0.000000 -1.000000 0.000000
vn 0.000000 -1.000000 0.000001
vn 0.000000 -1.000000 0.000000
vn 0.000000 -1.000000 -0.000000
vn 0.000000 -1.000000 0.000000
vn 0.000000 -1.000000 0.000000
vn 0.000000 -1.000000 0.000000
vn 0.618547 0.484561 -0.618547
vn 0.000000 0.484562 -0.874757
vn -0.000000 0.617335 -0.786700
vn 0.556281 0.617335 -0.556281
vn -0.618547 0.484562 -0.618547
vn -0.556281 0.617335 -0.556281
vn -0.874757 0.484563 0.000000
vn -0.786700 0.617336 0.000000
vn -0.618547 0.484562 0.618547
vn -0.556281 0.617336 0.556281
vn 0.000000 0.484561 0.874757
vn -0.000000 0.617335 0.786700
vn 0.618547 0.484561 0.618547
vn 0.556281 0.617335 0.556281
vn 0.874757 0.484561 0.000000
vn 0.786700 0.617335 -0.000000
vn -0.000000 0.868197 -0.496220
vn 0.350880 0.868197 -0.350881
vn -0.350881 0.868197 -0.350880
vn -0.496220 0.868197 0.000000
vn -0.350881 0.868197 0.350880
vn -0.000000 0.868197 0.496220
vn 0.350880 0.868197 0.350881
vn 0.496220 0.868197 -0.000000
vn -0.000000 1.000000 -0.000000
vn 0.000000 -1.000000 0.000000
vn 0.000000 -1.000000 0.000000
vn 0.000000 -1.000000 0.000000
vn 0.000000 -1.000000 0.000000
vn 0.000000 -1.000000 0.000000
vn 0.000000 -1.000000 0.000000
vn 0.000000 -1.000000 0.000000
vn 0.000000 -1.000000 -0.000000
vn 0.000000 -1.000000 -0.000000
s 1
g polySurface468
usemtl initialShadingGroup
f 1/1/1 2/2/2 31/3/3 22/4/4
f 2/2/2 3/5/5 30/6/6 31/3/3
f 3/5/5 4/7/7 29/8/8 30/6/6
f 4/9/7 5/10/9 28/11/10 29/12/8
f 5/10/9 6/13/11 27/14/12 28/11/10
f 6/13/11 7/15/13 26/16/14 27/14/12
f 7/15/13 8/17/15 25/18/16 26/16/14
f 8/17/15 9/19/17 24/20/18 25/18/16
f 9/19/17 10/21/19 23/22/20 24/20/18
f 10/21/19 1/1/1 22/4/4 23/22/20
f 2/23/2 1/24/1 21/25/21
f 3/26/5 2/23/2 21/25/21
f 4/27/7 3/26/5 21/25/21
f 5/28/9 4/27/7 21/25/21
f 6/29/11 5/28/9 21/25/21
f 7/30/13 6/29/11 21/25/21
f 8/31/15 7/30/13 21/25/21
f 9/32/17 8/31/15 21/25/21
f 10/33/19 9/32/17 21/25/21
f 1/24/1 10/33/19 21/25/21
f 23/34/20 22/35/4 11/36/22 20/37/23
f 24/38/18 23/34/20 20/37/23 19/39/24
f 25/40/16 24/38/18 19/39/24 18/41/25
f 26/42/14 25/40/16 18/41/25 17/43/26
f 27/44/12 26/42/14 17/43/26 16/45/27
f 28/46/10 27/44/12 16/45/27 15/47/28
f 29/48/8 28/46/10 15/47/28 14/49/29
f 30/50/6 29/51/8 14/52/29 13/53/30
f 31/54/3 30/50/6 13/53/30 12/55/31
f 22/35/4 31/54/3 12/55/31 11/36/22
s 2
f 32/56/32 33/57/33 41/58/34 40/59/35
f 33/60/33 34/61/36 42/62/37 41/63/34
f 34/61/36 35/64/38 43/65/39 42/62/37
f 35/64/38 36/66/40 44/67/41 43/65/39
f 36/66/40 37/68/42 45/69/43 44/67/41
f 37/70/42 38/71/44 46/72/45 45/73/43
f 38/71/44 39/74/46 47/75/47 46/72/45
f 39/74/46 32/56/32 40/59/35 47/75/47
s 3
f 33/76/48 32/77/49 48/78/50
f 34/79/51 33/76/48 48/78/50
f 35/80/52 34/79/51 48/78/50
f 36/81/53 35/80/52 48/78/50
f 37/82/54 36/81/53 48/78/50
f 38/83/55 37/82/54 48/78/50
f 39/84/56 38/83/55 48/78/50
f 32/77/49 39/84/56 48/78/50
s 2
f 40/85/35 41/86/34 49/87/57
f 41/86/34 42/88/37 49/87/57
f 42/88/37 43/89/39 49/87/57
f 43/89/39 44/90/41 49/87/57
f 44/90/41 45/91/43 49/87/57
f 45/91/43 46/92/45 49/87/57
f 46/92/45 47/93/47 49/87/57
f 47/93/47 40/85/35 49/87/57
s 4
f 50/94/58 51/95/59 59/96/60 58/97/61
f 51/98/59 52/99/62 60/100/63 59/101/60
f 52/99/62 53/102/64 61/103/65 60/100/63
f 53/102/64 54/104/66 62/105/67 61/103/65
f 54/104/66 55/106/68 63/107/69 62/105/67
f 55/108/68 56/109/70 64/110/71 63/111/69
f 56/109/70 57/112/72 65/113/73 64/110/71
f 57/112/72 50/94/58 58/97/61 65/113/73
s 5
f 51/114/74 50/115/75 66/116/76
f 52/117/77 51/114/74 66/116/76
f 53/118/78 52/117/77 66/116/76
f 54/119/79 53/118/78 66/116/76
f 55/120/80 54/119/79 66/116/76
f 56/121/81 55/120/80 66/116/76
f 57/122/82 56/121/81 66/116/76
f 50/115/75 57/122/82 66/116/76
s 4
f 58/123/61 59/124/60 67/125/83
f 59/124/60 60/126/63 67/125/83
f 60/126/63 61/127/65 67/125/83
f 61/127/65 62/128/67 67/125/83
f 62/128/67 63/129/69 67/125/83
f 63/129/69 64/130/71 67/125/83
f 64/130/71 65/131/73 67/125/83
f 65/131/73 58/123/61 67/125/83
s 6
f 68/132/84 69/133/85 77/134/86 76/135/87
f 69/133/85 70/136/88 78/137/89 77/134/86
f 70/136/88 71/138/90 79/139/91 78/137/89
f 71/138/90 72/140/92 80/141/93 79/139/91
f 72/142/92 73/143/94 81/144/95 80/145/93
f 73/143/94 74/146/96 82/147/97 81/144/95
f 74/146/96 75/148/98 83/149/99 82/147/97
f 75/148/98 68/150/84 76/151/87 83/149/99
s 7
f 69/152/100 68/153/101 84/154/102
f 70/155/103 69/152/100 84/154/102
f 71/156/104 70/155/103 84/154/102
f 72/157/105 71/156/104 84/154/102
f 73/158/106 72/157/105 84/154/102
f 74/159/107 73/158/106 84/154/102
f 75/160/108 74/159/107 84/154/102
f 68/153/101 75/160/108 84/154/102
s 8
f 85/161/109 86/162/110 94/163/111 93/164/112
f 86/162/110 87/165/113 95/166/114 94/163/111
f 87/165/113 88/167/115 96/168/116 95/166/114
f 88/169/115 89/170/117 97/171/118 96/172/116
f 89/170/117 90/173/119 98/174/120 97/171/118
f 90/173/119 91/175/121 99/176/122 98/174/120
f 91/175/121 92/177/123 100/178/124 99/176/122
f 92/179/123 85/161/109 93/164/112 100/180/124
f 93/164/112 94/163/111 102/181/125 101/182/126
f 94/163/111 95/166/114 103/183/127 102/181/125
f 95/166/114 96/168/116 104/184/128 103/183/127
f 96/172/116 97/171/118 105/185/129 104/186/128
f 97/171/118 98/174/120 106/187/130 105/185/129
f 98/174/120 99/176/122 107/188/131 106/187/130
f 99/176/122 100/178/124 108/189/132 107/188/131
f 100/180/124 93/164/112 101/182/126 108/190/132
f 101/182/126 102/181/125 109/191/133
f 102/181/125 103/183/127 109/191/133
f 103/183/127 104/184/128 109/191/133
f 104/186/128 105/185/129 109/192/133
f 105/185/129 106/187/130 109/192/133
f 106/187/130 107/188/131 109/192/133
f 107/188/131 108/189/132 109/192/133
f 108/190/132 101/182/126 109/191/133
s 9
f 110/193/134 92/194/135 91/195/136
f 89/196/137 110/193/134 90/197/138
f 86/198/139 85/199/140 110/193/134
f 110/193/134 85/199/140 92/194/135
f 110/193/134 91/195/136 90/197/138
f 88/200/141 110/193/134 89/196/137
f 87/201/142 110/193/134 88/200/141
f 86/198/139 110/193/134 87/201/142
