# This file uses centimeters as units for non-parametric coordinates.

mtllib Metal_Sheet_Model.mtl
g default
v -1.512926 -1.872991 -0.219809
v 1.512926 -1.872991 -0.219809
v -1.512926 1.906474 0.059291
v 1.512926 1.906474 0.059291
v -1.512926 0.872168 0.150968
v 1.512926 0.872168 0.150968
v -1.512926 0.419664 -0.106598
v 1.512926 0.419664 -0.106598
v -1.512926 -0.179791 0.076136
v 1.512926 -0.179791 0.076136
v -1.512926 -0.857071 -0.159961
v 1.512926 -0.857071 -0.159961
v -1.512926 -1.333614 0.095045
v 1.512926 -1.333614 0.095045
v -1.512926 1.468328 -0.052061
v 1.512926 1.468328 -0.052061
v -1.512926 1.467496 0.017248
v 1.512926 1.467496 0.017248
v 1.512926 1.890235 0.128400
v -1.512926 1.890235 0.128400
v -1.512926 0.419850 -0.038483
v 1.512926 0.419850 -0.038483
v 1.512926 0.869676 0.219809
v -1.512926 0.869676 0.219809
v -1.512926 -0.179693 0.144222
v 1.512926 -0.179693 0.144222
v -1.512926 -0.852482 -0.093665
v 1.512926 -0.852482 -0.093665
v -1.512926 -1.335897 0.158301
v 1.512926 -1.335897 0.158301
v -1.512926 -1.906474 -0.157770
v 1.512926 -1.906474 -0.157770
v -1.512926 1.222827 0.087333
v 1.512926 1.222827 0.087333
v 1.512926 1.221164 0.156409
v -1.512926 1.221164 0.156409
v -1.512926 0.119936 -0.018814
v 1.512926 0.119936 -0.018814
v 1.512926 0.120079 0.049286
v -1.512926 0.120079 0.049286
v -1.512926 -0.518431 0.028488
v 1.512926 -0.518431 0.028488
v 1.512926 -0.516087 0.095679
v -1.512926 -0.516087 0.095679
v -1.512926 -1.095343 0.054157
v 1.512926 -1.095343 0.054157
v 1.512926 -1.094190 0.118933
v -1.512926 -1.094190 0.118933
v -1.512926 -1.603303 -0.062382
v 1.512926 -1.603303 -0.062382
v 1.512926 -1.621186 0.000265
v -1.512926 -1.621186 0.000265
vt 0.066197 0.894280
vt 0.366265 0.895599
vt 0.366069 0.940213
vt 0.066001 0.938894
vt 0.066705 0.778710
vt 0.366785 0.777144
vt 0.366551 0.830503
vt 0.066483 0.829118
vt 0.066987 0.714514
vt 0.367063 0.713989
vt 0.366923 0.745676
vt 0.066845 0.746701
vt 0.067304 0.642429
vt 0.367389 0.639770
vt 0.367216 0.679230
vt 0.067138 0.680048
vt 0.067555 0.585170
vt 0.367633 0.584145
vt 0.367524 0.608935
vt 0.067446 0.610080
vt 0.067845 0.519131
vt 0.367920 0.518878
vt 0.367780 0.550758
vt 0.067700 0.552224
vt 0.366388 0.867579
vt 0.066320 0.866261
vt 0.066584 0.135277
vt 0.066422 0.089161
vt 0.374409 0.088273
vt 0.374531 0.134393
vt 0.067164 0.253531
vt 0.066872 0.200427
vt 0.374645 0.199558
vt 0.374681 0.252686
vt 0.067613 0.317443
vt 0.067373 0.285382
vt 0.374669 0.284558
vt 0.374627 0.316645
vt 0.068320 0.391821
vt 0.067915 0.352312
vt 0.374541 0.351550
vt 0.374380 0.391111
vt 0.069070 0.449110
vt 0.068720 0.424473
vt 0.374181 0.423819
vt 0.373984 0.448507
vt 0.056413 0.512675
vt 0.069593 0.480928
vt 0.373658 0.480403
vt 0.383438 0.512353
vt 0.066703 0.164075
vt 0.374590 0.163196
vt 0.381754 0.895667
vt 0.381558 0.940280
vt 0.066399 0.081919
vt 0.374387 0.081030
vt 0.054541 0.938844
vt 0.054737 0.894230
vt 0.382277 0.776601
vt 0.382041 0.830217
vt 0.055024 0.828914
vt 0.055247 0.778182
vt 0.382551 0.714294
vt 0.382409 0.746598
vt 0.055381 0.747649
vt 0.055525 0.714857
vt 0.382879 0.639639
vt 0.382710 0.678080
vt 0.055682 0.679000
vt 0.055844 0.642281
vt 0.383128 0.582930
vt 0.383008 0.610134
vt 0.055980 0.611385
vt 0.056100 0.583960
vt 0.383282 0.547958
vt 0.056251 0.549490
vt 0.381877 0.867647
vt 0.054860 0.866211
vn 0.000000 0.041825 0.999125
vn 0.000000 0.041825 0.999125
vn 0.000000 -0.254289 0.967128
vn 0.000000 -0.254289 0.967128
vn 0.000000 -0.221819 0.975088
vn 0.000000 -0.221819 0.975088
vn 0.000000 -0.236326 0.971674
vn 0.000000 -0.236326 0.971674
vn 0.000000 0.072732 0.997352
vn 0.000000 0.072732 0.997352
vn 0.000000 0.291506 0.956569
vn 0.000000 0.291506 0.956569
vn 0.000000 0.040192 0.999192
vn 0.000000 0.040192 0.999192
vn 0.000000 -0.333359 0.942800
vn 0.000000 -0.333359 0.942800
vn 0.000000 -0.219677 0.975573
vn 0.000000 -0.219677 0.975573
vn 0.000000 0.462205 0.886773
vn 0.000000 0.462205 0.886773
vn 0.000000 -0.484570 0.874752
vn 0.000000 -0.484570 0.874752
vn 0.000000 -0.484570 0.874752
vn 0.000000 -0.484570 0.874752
vn 0.000000 -0.236326 0.971674
vn 0.000000 -0.236326 0.971674
vn 0.000000 0.320911 0.947109
vn 0.000000 0.320911 0.947109
vn 0.000000 -0.040985 -0.999160
vn 0.000000 0.246313 -0.969190
vn 0.000000 0.246313 -0.969190
vn 0.000000 -0.040985 -0.999160
vn 0.000000 0.220167 -0.975462
vn 0.000000 0.234714 -0.972064
vn 0.000000 0.234714 -0.972064
vn 0.000000 0.220167 -0.975462
vn 0.000000 -0.073895 -0.997266
vn 0.000000 -0.291586 -0.956545
vn 0.000000 -0.291586 -0.956545
vn 0.000000 -0.073895 -0.997266
vn 0.000000 -0.044450 -0.999012
vn 0.000000 0.329168 -0.944271
vn 0.000000 0.329168 -0.944271
vn 0.000000 -0.044450 -0.999012
vn 0.000000 0.223615 -0.974678
vn 0.000000 -0.471812 -0.881699
vn 0.000000 -0.471812 -0.881699
vn 0.000000 0.223615 -0.974678
vn 0.000000 0.504131 -0.863627
vn 0.000000 0.504131 -0.863627
vn 0.000000 0.504131 -0.863627
vn 0.000000 0.504131 -0.863627
vn 0.000000 0.234714 -0.972064
vn 0.000000 -0.322379 -0.946611
vn 0.000000 -0.322379 -0.946611
vn 0.000000 0.234714 -0.972064
vn 1.000000 0.000000 0.000000
vn 1.000000 0.000000 0.000000
vn 1.000000 0.000000 0.000000
vn 1.000000 0.000000 0.000000
vn 0.000000 0.973487 0.228742
vn 0.000000 0.973487 0.228742
vn 0.000000 0.973487 0.228742
vn 0.000000 0.973487 0.228742
vn -1.000000 0.000000 0.000000
vn -1.000000 0.000001 0.000000
vn -1.000000 0.000001 0.000000
vn -1.000000 0.000000 0.000000
vn 1.000000 0.000000 0.000000
vn 1.000000 0.000000 0.000000
vn 1.000000 0.000000 0.000000
vn 1.000000 0.000000 0.000000
vn -1.000000 -0.000001 0.000000
vn -1.000000 -0.000001 0.000000
vn -1.000000 -0.000001 0.000000
vn -1.000000 -0.000001 0.000000
vn 1.000000 0.000000 0.000000
vn 1.000000 0.000000 0.000000
vn 1.000000 0.000000 0.000000
vn 1.000000 0.000000 0.000000
vn -1.000000 -0.000001 0.000000
vn -1.000000 -0.000001 0.000000
vn -1.000000 0.000000 0.000000
vn -1.000000 0.000000 0.000000
vn 1.000000 0.000000 0.000000
vn 1.000000 0.000000 0.000000
vn 1.000000 0.000000 0.000000
vn 1.000000 0.000000 0.000000
vn -1.000000 0.000001 0.000000
vn -1.000000 0.000002 0.000000
vn -1.000000 0.000002 0.000000
vn -1.000000 0.000002 0.000000
vn 1.000000 0.000000 0.000000
vn 1.000000 0.000000 0.000000
vn 1.000000 0.000000 0.000000
vn 1.000000 0.000000 0.000000
vn -1.000000 0.000000 0.000000
vn -1.000000 0.000000 0.000000
vn -1.000000 -0.000001 0.000000
vn -1.000000 -0.000001 0.000000
vn 0.000000 -0.880014 -0.474947
vn 0.000000 -0.880014 -0.474947
vn 0.000000 -0.880014 -0.474947
vn 0.000000 -0.880014 -0.474947
vn 1.000000 0.000000 0.000000
vn 1.000000 0.000000 0.000000
vn 1.000000 0.000000 0.000000
vn 1.000000 0.000000 0.000000
vn -1.000000 0.000000 0.000000
vn -1.000000 0.000001 0.000000
vn -1.000000 0.000003 0.000000
vn -1.000000 0.000003 0.000000
vn 1.000000 0.000000 0.000000
vn 1.000000 0.000000 0.000000
vn 1.000000 0.000000 0.000000
vn 1.000000 0.000000 0.000000
vn -1.000000 0.000000 0.000000
vn -1.000000 0.000001 0.000000
vn -1.000000 -0.000001 0.000000
vn -1.000000 -0.000001 0.000000
vn 0.000000 -0.322379 -0.946611
vn 0.000000 -0.322379 -0.946611
vn 0.000000 -0.040985 -0.999160
vn 0.000000 -0.040985 -0.999160
vn 1.000000 0.000000 0.000000
vn 1.000000 0.000000 0.000000
vn 1.000000 0.000000 0.000000
vn 1.000000 0.000000 0.000000
vn 0.000000 0.320911 0.947109
vn 0.000000 0.320911 0.947109
vn 0.000000 0.041825 0.999125
vn 0.000000 0.041825 0.999125
vn -1.000000 0.000001 0.000000
vn -1.000000 0.000001 0.000000
vn -1.000000 0.000000 0.000000
vn -1.000000 0.000001 0.000000
vn 0.000000 -0.291586 -0.956545
vn 0.000000 -0.291586 -0.956545
vn 0.000000 0.220167 -0.975462
vn 0.000000 0.220167 -0.975462
vn 1.000000 0.000000 0.000000
vn 1.000000 0.000000 0.000000
vn 1.000000 0.000000 0.000000
vn 1.000000 0.000000 0.000000
vn 0.000000 0.291506 0.956569
vn 0.000000 0.291506 0.956569
vn 0.000000 -0.221819 0.975088
vn 0.000000 -0.221819 0.975088
vn -1.000000 -0.000001 0.000000
vn -1.000000 -0.000001 0.000000
vn -1.000000 -0.000001 0.000000
vn -1.000000 -0.000001 0.000000
vn 0.000000 0.329168 -0.944271
vn 0.000000 0.329168 -0.944271
vn 0.000000 -0.073895 -0.997266
vn 0.000000 -0.073895 -0.997266
vn 1.000000 0.000000 0.000000
vn 1.000000 0.000000 0.000000
vn 1.000000 0.000000 0.000000
vn 1.000000 0.000000 0.000000
vn 0.000000 -0.333359 0.942800
vn 0.000000 -0.333359 0.942800
vn 0.000000 0.072732 0.997352
vn 0.000000 0.072732 0.997352
vn -1.000000 0.000000 0.000000
vn -1.000000 0.000002 0.000000
vn -1.000000 0.000001 0.000000
vn -1.000000 0.000000 0.000000
vn 0.000000 -0.471812 -0.881699
vn 0.000000 -0.471812 -0.881699
vn 0.000000 -0.044450 -0.999012
vn 0.000000 -0.044450 -0.999012
vn 1.000000 0.000000 0.000000
vn 1.000000 0.000000 0.000000
vn 1.000000 0.000000 0.000000
vn 1.000000 0.000000 0.000000
vn 0.000000 0.462205 0.886773
vn 0.000000 0.462205 0.886773
vn 0.000000 0.040192 0.999192
vn 0.000000 0.040192 0.999192
vn -1.000000 0.000002 0.000000
vn -1.000000 0.000000 0.000000
vn -1.000000 0.000000 0.000000
vn -1.000000 0.000002 0.000000
vn 0.000000 0.504131 -0.863627
vn 0.000000 0.504131 -0.863627
vn 0.000000 0.223615 -0.974678
vn 0.000000 0.223615 -0.974678
vn 1.000000 0.000000 0.000000
vn 1.000000 0.000000 0.000000
vn 1.000000 0.000000 0.000000
vn 1.000000 0.000000 0.000000
vn 0.000000 -0.484570 0.874752
vn 0.000000 -0.484570 0.874752
vn 0.000000 -0.219677 0.975573
vn 0.000000 -0.219677 0.975573
vn -1.000000 -0.000001 0.000000
vn -1.000000 0.000001 0.000000
vn -1.000000 0.000000 0.000000
vn -1.000000 -0.000001 0.000000
s off
g Metal_Sheet_Model:pPlane2
usemtl initialShadingGroup
f 17/1/1 18/2/2 19/3/3 20/4/4
f 21/5/5 22/6/6 23/7/7 24/8/8
f 25/9/9 26/10/10 39/11/11 40/12/12
f 27/13/13 28/14/14 43/15/15 44/16/16
f 29/17/17 30/18/18 47/19/19 48/20/20
f 31/21/21 32/22/22 51/23/23 52/24/24
f 24/8/25 23/7/26 35/25/27 36/26/28
f 15/27/29 3/28/30 4/29/31 16/30/32
f 7/31/33 5/32/34 6/33/35 8/34/36
f 9/35/37 37/36/38 38/37/39 10/38/40
f 11/39/41 41/40/42 42/41/43 12/42/44
f 13/43/45 45/44/46 46/45/47 14/46/48
f 1/47/49 49/48/50 50/49/51 2/50/52
f 5/32/53 33/51/54 34/52/55 6/33/56
f 16/53/57 4/54/58 19/3/59 18/2/60
f 4/29/61 3/28/62 20/55/63 19/56/64
f 3/57/65 15/58/66 17/1/67 20/4/68
f 8/59/69 6/60/70 23/7/71 22/6/72
f 5/61/73 7/62/74 21/5/75 24/8/76
f 10/63/77 38/64/78 39/11/79 26/10/80
f 40/12/81 37/65/82 9/66/83 25/9/84
f 12/67/85 42/68/86 43/15/87 28/14/88
f 44/16/89 41/69/90 11/70/91 27/13/92
f 14/71/93 46/72/94 47/19/95 30/18/96
f 48/20/97 45/73/98 13/74/99 29/17/100
f 1/47/101 2/50/102 32/22/103 31/21/104
f 2/50/105 50/75/106 51/23/107 32/22/108
f 52/24/109 49/76/110 1/47/111 31/21/112
f 6/60/113 34/77/114 35/25/115 23/7/116
f 36/26/117 33/78/118 5/61/119 24/8/120
f 34/52/121 33/51/122 15/27/123 16/30/124
f 35/25/125 34/77/126 16/53/127 18/2/128
f 36/26/129 35/25/130 18/2/131 17/1/132
f 15/58/133 33/78/134 36/26/135 17/1/136
f 38/37/137 37/36/138 7/31/139 8/34/140
f 39/11/141 38/64/142 8/59/143 22/6/144
f 40/12/145 39/11/146 22/6/147 21/5/148
f 7/62/149 37/65/150 40/12/151 21/5/152
f 42/41/153 41/40/154 9/35/155 10/38/156
f 43/15/157 42/68/158 10/63/159 26/10/160
f 44/16/161 43/15/162 26/10/163 25/9/164
f 9/66/165 41/69/166 44/16/167 25/9/168
f 46/45/169 45/44/170 11/39/171 12/42/172
f 47/19/173 46/72/174 12/67/175 28/14/176
f 48/20/177 47/19/178 28/14/179 27/13/180
f 11/70/181 45/73/182 48/20/183 27/13/184
f 50/49/185 49/48/186 13/43/187 14/46/188
f 51/23/189 50/75/190 14/71/191 30/18/192
f 52/24/193 51/23/194 30/18/195 29/17/196
f 13/74/197 49/76/198 52/24/199 29/17/200
