# This file uses centimeters as units for non-parametric coordinates.

mtllib Metal_Sheet_Model.mtl
g default
v 0.711351 1.347350 4.249404
v 3.737204 1.347350 4.249404
v 0.711351 5.126815 4.528504
v 3.737204 5.126815 4.528504
v 0.711351 4.092509 4.620181
v 3.737204 4.092509 4.620181
v 0.711351 3.640005 4.362615
v 3.737204 3.640005 4.362615
v 0.711351 3.040550 4.545349
v 3.737204 3.040550 4.545349
v 0.711351 2.363270 4.309252
v 3.737204 2.363270 4.309252
v 0.711351 1.886727 4.564258
v 3.737204 1.886727 4.564258
v 0.711351 4.688669 4.417152
v 3.737204 4.688669 4.417152
v 0.711351 4.687837 4.486461
v 3.737204 4.687837 4.486461
v 3.737204 5.110576 4.597613
v 0.711351 5.110576 4.597613
v 0.711351 3.640191 4.430730
v 3.737204 3.640191 4.430730
v 3.737204 4.090017 4.689022
v 0.711351 4.090017 4.689022
v 0.711351 3.040648 4.613435
v 3.737204 3.040648 4.613435
v 0.711351 2.367859 4.375548
v 3.737204 2.367859 4.375548
v 0.711351 1.884444 4.627514
v 3.737204 1.884444 4.627514
v 0.711351 1.313867 4.311443
v 3.737204 1.313867 4.311443
v 0.711351 4.443168 4.556546
v 3.737204 4.443168 4.556546
v 3.737204 4.441505 4.625622
v 0.711351 4.441505 4.625622
v 0.711351 3.340277 4.450399
v 3.737204 3.340277 4.450399
v 3.737204 3.340420 4.518499
v 0.711351 3.340420 4.518499
v 0.711351 2.701910 4.497701
v 3.737204 2.701910 4.497701
v 3.737204 2.704254 4.564892
v 0.711351 2.704254 4.564892
v 0.711351 2.124998 4.523370
v 3.737204 2.124998 4.523370
v 3.737204 2.126151 4.588146
v 0.711351 2.126151 4.588146
v 0.711351 1.617038 4.406831
v 3.737204 1.617038 4.406831
v 3.737204 1.599155 4.469478
v 0.711351 1.599155 4.469478
vt 0.066197 0.894280
vt 0.366265 0.895599
vt 0.374387 0.081030
vt 0.066001 0.938894
vt 0.066705 0.778710
vt 0.366785 0.777144
vt 0.366551 0.830503
vt 0.066483 0.829118
vt 0.066987 0.714514
vt 0.367063 0.713989
vt 0.366923 0.745676
vt 0.066845 0.746701
vt 0.067304 0.642429
vt 0.367389 0.639770
vt 0.367216 0.679230
vt 0.067138 0.680048
vt 0.067555 0.585170
vt 0.367633 0.584145
vt 0.367524 0.608935
vt 0.067446 0.610080
vt 0.067845 0.519131
vt 0.367920 0.518878
vt 0.367780 0.550758
vt 0.067700 0.552224
vt 0.366388 0.867579
vt 0.066320 0.866261
vt 0.066584 0.135277
vt 0.054541 0.938844
vt 0.374409 0.088273
vt 0.381754 0.895667
vt 0.067164 0.253531
vt 0.055024 0.828914
vt 0.382041 0.830217
vt 0.382277 0.776601
vt 0.067613 0.317443
vt 0.055381 0.747649
vt 0.382409 0.746598
vt 0.382551 0.714294
vt 0.068320 0.391821
vt 0.055682 0.679000
vt 0.382710 0.678080
vt 0.382879 0.639639
vt 0.069070 0.449110
vt 0.055980 0.611385
vt 0.383008 0.610134
vt 0.383128 0.582930
vt 0.056413 0.512675
vt 0.056251 0.549490
vt 0.383282 0.547958
vt 0.383438 0.512353
vt 0.054860 0.866211
vt 0.381877 0.867647
vt 0.373658 0.480403
vt 0.373984 0.448507
vt 0.069593 0.480928
vt 0.056100 0.583960
vt 0.374181 0.423819
vt 0.374380 0.391111
vt 0.068720 0.424473
vt 0.055844 0.642281
vt 0.374541 0.351550
vt 0.374627 0.316645
vt 0.067915 0.352312
vt 0.055525 0.714857
vt 0.374669 0.284558
vt 0.374681 0.252686
vt 0.067373 0.285382
vt 0.055247 0.778182
vt 0.374590 0.163196
vt 0.374531 0.134393
vt 0.066703 0.164075
vt 0.054737 0.894230
vt 0.066422 0.089161
vt 0.381558 0.940280
vt 0.374645 0.199558
vt 0.066872 0.200427
vt 0.066399 0.081919
vt 0.366069 0.940213
vn 0.000000 0.041825 0.999125
vn 0.000000 0.041825 0.999125
vn 0.000000 -0.254289 0.967128
vn 0.000000 -0.254289 0.967128
vn 0.000000 -0.221819 0.975088
vn 0.000000 -0.221819 0.975088
vn 0.000000 -0.236326 0.971674
vn 0.000000 -0.236326 0.971674
vn 0.000000 0.072732 0.997352
vn 0.000000 0.072732 0.997352
vn 0.000000 0.291506 0.956569
vn 0.000000 0.291506 0.956569
vn 0.000000 0.040192 0.999192
vn 0.000000 0.040192 0.999192
vn 0.000000 -0.333359 0.942800
vn 0.000000 -0.333359 0.942800
vn 0.000000 -0.219677 0.975573
vn 0.000000 -0.219677 0.975573
vn 0.000000 0.462205 0.886773
vn 0.000000 0.462205 0.886773
vn 0.000000 -0.484570 0.874752
vn 0.000000 -0.484570 0.874752
vn 0.000000 -0.484570 0.874752
vn 0.000000 -0.484570 0.874752
vn 0.000000 0.320911 0.947109
vn 0.000000 0.320911 0.947109
vn 0.000000 -0.040985 -0.999160
vn 0.000000 0.246313 -0.969191
vn 0.000000 0.246313 -0.969191
vn 0.000000 -0.040985 -0.999160
vn 0.000000 0.220167 -0.975462
vn 0.000000 0.234714 -0.972065
vn 0.000000 0.234714 -0.972065
vn 0.000000 0.220167 -0.975462
vn 0.000000 -0.073895 -0.997266
vn 0.000000 -0.291586 -0.956545
vn 0.000000 -0.291586 -0.956545
vn 0.000000 -0.073895 -0.997266
vn 0.000000 -0.044450 -0.999012
vn 0.000000 0.329168 -0.944271
vn 0.000000 0.329168 -0.944271
vn 0.000000 -0.044450 -0.999012
vn 0.000000 0.223615 -0.974678
vn 0.000000 -0.471812 -0.881699
vn 0.000000 -0.471812 -0.881699
vn 0.000000 0.223615 -0.974678
vn 0.000000 0.504131 -0.863627
vn 0.000000 0.504131 -0.863627
vn 0.000000 0.504131 -0.863627
vn 0.000000 0.504131 -0.863627
vn 0.000000 -0.322379 -0.946611
vn 0.000000 -0.322379 -0.946611
vn 1.000000 0.000000 0.000000
vn 1.000000 0.000000 0.000000
vn 1.000000 0.000000 0.000000
vn 1.000000 -0.000000 0.000000
vn 0.000000 0.973487 0.228742
vn 0.000000 0.973487 0.228742
vn 0.000000 0.973487 0.228742
vn 0.000000 0.973487 0.228742
vn -1.000000 0.000000 0.000000
vn -1.000000 0.000001 0.000000
vn -1.000000 0.000001 0.000000
vn -1.000000 0.000000 0.000000
vn 1.000000 -0.000000 0.000000
vn 1.000000 -0.000000 0.000000
vn 1.000000 -0.000000 0.000000
vn 1.000000 -0.000000 0.000000
vn -1.000000 -0.000001 0.000000
vn -1.000000 -0.000001 0.000000
vn -1.000000 -0.000001 0.000000
vn -1.000000 -0.000001 0.000000
vn 1.000000 0.000000 0.000000
vn 1.000000 0.000000 0.000000
vn 1.000000 0.000000 0.000000
vn 1.000000 0.000000 0.000000
vn -1.000000 -0.000001 0.000000
vn -1.000000 -0.000001 0.000000
vn -1.000000 0.000000 0.000000
vn -1.000000 0.000000 0.000000
vn 1.000000 -0.000000 0.000000
vn 1.000000 -0.000000 0.000000
vn 1.000000 -0.000000 0.000000
vn 1.000000 -0.000000 0.000000
vn -1.000000 0.000001 0.000000
vn -1.000000 0.000002 0.000000
vn -1.000000 0.000002 0.000000
vn -1.000000 0.000002 0.000000
vn 1.000000 0.000000 0.000000
vn 1.000000 0.000000 0.000000
vn 1.000000 0.000000 0.000000
vn 1.000000 0.000000 0.000000
vn -1.000000 0.000000 0.000000
vn -1.000000 0.000000 0.000000
vn -1.000000 -0.000001 0.000000
vn -1.000000 -0.000001 0.000000
vn 0.000000 -0.880014 -0.474947
vn 0.000000 -0.880014 -0.474947
vn 0.000000 -0.880014 -0.474947
vn 0.000000 -0.880014 -0.474947
vn 1.000000 -0.000000 0.000000
vn 1.000000 -0.000000 0.000000
vn 1.000000 -0.000000 0.000000
vn 1.000000 -0.000000 0.000000
vn -1.000000 0.000000 0.000000
vn -1.000000 0.000001 0.000000
vn -1.000000 0.000003 0.000000
vn -1.000000 0.000003 0.000000
vn 1.000000 -0.000000 0.000000
vn 1.000000 -0.000000 0.000000
vn -1.000000 0.000000 0.000000
vn -1.000000 0.000001 0.000000
s 1
g pPlane2
usemtl StingrayPBS4SG
f 17/1/1 18/2/2 19/78/3 20/4/4
f 21/5/5 22/6/6 23/7/7 24/8/8
f 25/9/9 26/10/10 39/11/11 40/12/12
f 27/13/13 28/14/14 43/15/15 44/16/16
f 29/17/17 30/18/18 47/19/19 48/20/20
f 31/21/21 32/22/22 51/23/23 52/24/24
f 24/8/8 23/7/7 35/25/25 36/26/26
s 6
f 15/27/27 3/73/28 4/29/29 16/70/30
f 7/31/31 5/76/32 6/75/33 8/66/34
f 9/35/35 37/67/36 38/65/37 10/62/38
f 11/39/39 41/63/40 42/61/41 12/58/42
f 13/43/43 45/59/44 46/57/45 14/54/46
f 1/47/47 49/55/48 50/53/49 2/50/50
f 5/76/32 33/71/51 34/69/52 6/75/33
s 8
f 16/30/53 4/74/54 19/78/55 18/2/56
s off
f 4/29/57 3/73/58 20/77/59 19/3/60
s 9
f 3/28/61 15/72/62 17/1/63 20/4/64
s 8
f 8/34/65 6/33/66 23/7/67 22/6/68
s 9
f 5/32/69 7/68/70 21/5/71 24/8/72
s 8
f 10/38/73 38/37/74 39/11/75 26/10/76
s 9
f 40/12/77 37/36/78 9/64/79 25/9/80
s 8
f 12/42/81 42/41/82 43/15/83 28/14/84
s 9
f 44/16/85 41/40/86 11/60/87 27/13/88
s 8
f 14/46/89 46/45/90 47/19/91 30/18/92
s 9
f 48/20/93 45/44/94 13/56/95 29/17/96
s off
f 1/47/97 2/50/98 32/22/99 31/21/100
s 8
f 2/50/101 50/49/102 51/23/103 32/22/104
s 9
f 52/24/105 49/48/106 1/47/107 31/21/108
s 8
f 6/33/66 34/52/109 35/25/110 23/7/67
s 9
f 36/26/111 33/51/112 5/32/69 24/8/72
s 6
f 34/69/52 33/71/51 15/27/27 16/70/30
s 8
f 35/25/110 34/52/109 16/30/53 18/2/56
s 1
f 36/26/26 35/25/25 18/2/2 17/1/1
s 9
f 15/72/62 33/51/112 36/26/111 17/1/63
s 6
f 38/65/37 37/67/36 7/31/31 8/66/34
s 8
f 39/11/75 38/37/74 8/34/65 22/6/68
s 1
f 40/12/12 39/11/11 22/6/6 21/5/5
s 9
f 7/68/70 37/36/78 40/12/77 21/5/71
s 6
f 42/61/41 41/63/40 9/35/35 10/62/38
s 8
f 43/15/83 42/41/82 10/38/73 26/10/76
s 1
f 44/16/16 43/15/15 26/10/10 25/9/9
s 9
f 9/64/79 41/40/86 44/16/85 25/9/80
s 6
f 46/57/45 45/59/44 11/39/39 12/58/42
s 8
f 47/19/91 46/45/90 12/42/81 28/14/84
s 1
f 48/20/20 47/19/19 28/14/14 27/13/13
s 9
f 11/60/87 45/44/94 48/20/93 27/13/88
s 6
f 50/53/49 49/55/48 13/43/43 14/54/46
s 8
f 51/23/103 50/49/102 14/46/89 30/18/92
s 1
f 52/24/24 51/23/23 30/18/18 29/17/17
s 9
f 13/56/95 49/48/106 52/24/105 29/17/96
