# Blender 4.1.1
# www.blender.org
mtllib New ingot.mtl
o Metal_Ingot_2
v 0.531013 -0.195199 -1.141138
v -0.533069 -0.195199 -1.141138
v 0.335845 0.276108 -0.922762
v -0.337900 0.276108 -0.922762
v 0.335845 0.276108 0.945471
v -0.337900 0.276108 0.945471
v 0.531013 -0.195199 1.153974
v -0.533069 -0.195199 1.153974
v 0.335845 0.276108 0.006418
v 0.531013 -0.195199 0.006418
v -0.533068 -0.195199 0.006418
v -0.337900 0.276108 0.006418
vn -0.0000 0.4204 -0.9073
vn -0.0000 1.0000 -0.0000
vn -0.0000 0.4046 0.9145
vn -0.0000 -1.0000 -0.0000
vn -0.9239 0.3826 -0.0000
vn 0.9239 0.3826 -0.0000
vt 0.152764 0.249484
vt 0.331469 0.250809
vt 0.298045 0.337803
vt 0.184894 0.336964
vt 0.437520 0.394215
vt 0.438870 0.530937
vt 0.250313 0.532798
vt 0.248963 0.396076
vt 0.719361 0.349967
vt 0.597742 0.350270
vt 0.562281 0.257328
vt 0.754359 0.256850
vt 0.154193 0.056760
vt 0.332898 0.058085
vt 0.418569 0.058721
vt 0.417412 0.214770
vt 0.068522 0.056125
vt 0.067365 0.212174
vt 0.753843 0.049703
vt 0.845926 0.049474
vt 0.846348 0.218984
vt 0.561765 0.050182
vt 0.469683 0.050411
vt 0.470105 0.219920
vt 0.059752 0.534679
vt 0.058403 0.397957
s 0
usemtl StingrayPBS2SG
f 1/1/1 2/2/1 4/3/1 3/4/1
s 1
f 3/5/2 4/6/2 12/7/2 9/8/2
s 0
f 5/9/3 6/10/3 8/11/3 7/12/3
s 1
f 10/13/4 11/14/4 2/2/4 1/1/4
f 2/2/5 11/14/5 12/15/5 4/16/5
f 9/17/6 10/13/6 1/1/6 3/18/6
f 7/12/6 10/19/6 9/20/6 5/21/6
f 7/12/4 8/11/4 11/22/4 10/19/4
f 12/23/5 11/22/5 8/11/5 6/24/5
f 9/8/2 12/7/2 6/25/2 5/26/2
