# This file uses centimeters as units for non-parametric coordinates.

mtllib Pressed_Plastic.mtl
g default
v -0.869543 -0.046469 0.611168
v 0.661978 -0.046469 0.465229
v -0.869543 0.046467 0.611168
v 0.661978 0.046467 0.465229
v -0.596612 0.046467 -0.685205
v 0.776474 0.046467 -0.747168
v -0.596612 -0.046469 -0.685205
v 0.776474 -0.046469 -0.747168
v -0.405492 -0.046469 0.880949
v -0.405492 0.046467 0.880949
v -0.371279 0.046467 -0.947483
v -0.371279 -0.046469 -0.947483
v 0.349789 -0.046469 0.814379
v 0.349789 0.046467 0.814379
v 0.349789 0.046467 -0.826849
v 0.349789 -0.046469 -0.826849
v -0.010745 -0.046469 1.017908
v -0.010745 0.046467 1.017908
v -0.010745 0.046467 -1.017906
v -0.010745 -0.046469 -1.017906
v -1.018256 0.046467 -0.152109
v -1.018256 -0.046469 -0.152109
v -0.371279 -0.046469 0.146515
v -0.010745 -0.046469 0.151075
v 0.349789 -0.046469 0.038225
v 1.083548 -0.046469 -0.121872
v 1.083548 0.046467 -0.121872
v 0.349789 0.046467 0.038225
v -0.010745 0.046467 0.151075
v -0.371279 0.046467 0.146515
v -0.902389 -0.046469 -0.403538
v -0.902389 0.046467 -0.403538
v -0.371279 0.046467 -0.400484
v -0.010745 0.046467 -0.508022
v 0.349789 0.046467 -0.456629
v 0.992087 0.046468 -0.497026
v 0.992087 -0.046468 -0.497026
v 0.349789 -0.046469 -0.456629
v -0.010745 -0.046469 -0.508022
v -0.371279 -0.046469 -0.400484
v -1.083548 0.046467 0.103462
v -1.083548 -0.046469 0.103462
v -0.371279 -0.046469 0.479202
v -0.010745 -0.046469 0.485588
v 0.349789 -0.046469 0.327597
v 0.994392 -0.046469 0.103462
v 0.994392 0.046467 0.103462
v 0.349789 0.046467 0.327597
v -0.010745 0.046467 0.485588
v -0.371279 0.046467 0.479202
vt 0.382214 0.221570
vt 0.461496 0.221350
vt 0.461534 0.235076
vt 0.382252 0.235296
vt 0.168582 0.539850
vt 0.275642 0.529077
vt 0.248954 0.605225
vt 0.088184 0.614106
vt 0.159617 0.235914
vt 0.108545 0.236056
vt 0.108507 0.222329
vt 0.159579 0.222188
vt 0.457887 0.447511
vt 0.568600 0.570157
vt 0.533662 0.645142
vt 0.463294 0.560424
vt 0.653540 0.220817
vt 0.726106 0.220615
vt 0.726144 0.234342
vt 0.653579 0.234543
vt 0.300873 0.235522
vt 0.300835 0.221796
vt 0.523211 0.221178
vt 0.523249 0.234905
vt 0.316529 0.634192
vt 0.275694 0.529434
vt 0.365038 0.538706
vt 0.054287 0.236207
vt 0.054249 0.222480
vt 0.637609 0.596825
vt 0.600050 0.699381
vt 0.584400 0.234735
vt 0.584362 0.221009
vt 0.460547 0.799836
vt 0.368448 0.696784
vt 0.416962 0.613008
vt 0.437344 0.705568
vt 0.931822 0.220044
vt 0.931860 0.233771
vt 0.867749 0.233949
vt 0.867710 0.220222
vt 0.683870 0.685608
vt 0.718216 0.591825
vt 0.858218 0.594126
vt 0.768651 0.640369
vt 0.992089 0.219877
vt 0.992127 0.233604
vt 0.220984 0.222017
vt 0.221022 0.235744
vt 0.607346 0.329926
vt 0.669264 0.295295
vt 0.630669 0.400678
vt 0.528562 0.362616
vt 0.707716 0.405399
vt 0.743692 0.307166
vt 0.773549 0.440739
vt 0.799671 0.369413
vt 0.900143 0.478275
vt 0.876253 0.414870
vt 0.818971 0.234084
vt 0.818933 0.220358
vt 0.262310 0.903745
vt 0.296230 0.837535
vt 0.404857 0.905129
vt 0.343980 0.929003
vt 0.181820 0.905441
vt 0.228326 0.814292
vt 0.124720 0.861307
vt 0.173681 0.764026
vt 0.077542 0.719588
vt 0.107964 0.795491
vt 0.261874 0.221904
vt 0.261912 0.235630
vt 0.078482 0.665130
vt 0.221587 0.665851
vt 0.287758 0.695198
vt 0.341309 0.748607
vt 0.455155 0.847507
vt 0.761937 0.234243
vt 0.761899 0.220516
vt 0.891294 0.557004
vt 0.738634 0.536076
vt 0.661211 0.532379
vt 0.592074 0.506062
vt 0.488499 0.402880
vn -0.502598 0.000000 0.864520
vn -0.428035 0.000000 0.903762
vn -0.428035 0.000000 0.903762
vn -0.502598 0.000000 0.864520
vn 0.000000 1.000000 0.000001
vn 0.000000 1.000000 0.000000
vn 0.000000 1.000000 0.000000
vn 0.000000 1.000000 0.000000
vn -0.758506 0.000000 -0.651666
vn -0.493808 0.000000 -0.869571
vn -0.493808 0.000000 -0.869571
vn -0.758506 0.000000 -0.651666
vn 0.000000 -1.000000 0.000000
vn 0.000000 -1.000000 0.000000
vn 0.000000 -1.000000 -0.000001
vn 0.000000 -1.000000 0.000000
vn 0.736346 0.000000 0.676605
vn 0.812282 0.000000 0.583265
vn 0.812282 0.000000 0.583265
vn 0.736346 0.000000 0.676605
vn -0.981543 0.000000 0.191239
vn -0.981543 0.000000 0.191239
vn -0.921483 0.000000 0.388419
vn -0.921483 0.000000 0.388419
vn -0.428035 0.000000 0.903762
vn -0.428035 0.000000 0.903762
vn 0.087801 0.000000 0.996138
vn 0.087801 0.000000 0.996138
vn 0.000000 1.000000 0.000000
vn 0.000000 1.000000 0.000000
vn 0.000000 1.000000 0.000000
vn 0.000000 1.000000 0.000000
vn -0.493808 0.000000 -0.869571
vn -0.493808 0.000000 -0.869571
vn 0.165006 0.000000 -0.986293
vn 0.165006 0.000000 -0.986293
vn 0.000000 -1.000000 -0.000001
vn 0.000000 -1.000000 0.000000
vn 0.000000 -1.000000 0.000000
vn 0.000000 -1.000000 -0.000001
vn 0.634798 0.000000 0.772678
vn 0.634798 0.000000 0.772678
vn 0.745462 0.000000 0.666548
vn 0.745462 0.000000 0.666548
vn 0.000000 1.000000 -0.000001
vn 0.000000 1.000000 0.000000
vn 0.000000 1.000000 0.000000
vn 0.000000 1.000000 0.000000
vn 0.325220 0.000000 -0.945638
vn 0.325220 0.000000 -0.945638
vn 0.183569 0.000000 -0.983007
vn 0.183569 0.000000 -0.983007
vn 0.000000 -1.000000 0.000000
vn 0.000000 -1.000000 0.000000
vn 0.000000 -1.000000 0.000000
vn 0.000000 -1.000000 0.000000
vn 0.087801 0.000000 0.996138
vn 0.087801 0.000000 0.996138
vn 0.634798 0.000000 0.772678
vn 0.634798 0.000000 0.772678
vn 0.000000 1.000000 0.000000
vn 0.000000 1.000000 0.000000
vn 0.000000 1.000000 0.000000
vn 0.000000 1.000000 0.000000
vn 0.165006 0.000000 -0.986293
vn 0.165006 0.000000 -0.986293
vn 0.325220 0.000000 -0.945638
vn 0.325220 0.000000 -0.945638
vn 0.000000 -1.000000 -0.000001
vn 0.000000 -1.000000 0.000000
vn 0.000000 -1.000000 0.000000
vn 0.000000 -1.000000 0.000000
vn -0.677518 0.000000 -0.735506
vn -0.784327 0.000000 -0.620348
vn -0.784327 0.000000 -0.620348
vn -0.677518 0.000000 -0.735506
vn 0.000000 -1.000000 0.000000
vn 0.000000 -1.000000 0.000000
vn 0.000000 -1.000000 0.000000
vn 0.000000 -1.000000 0.000000
vn 0.000000 -1.000000 0.000000
vn 0.000000 -1.000000 0.000000
vn 0.000000 -1.000000 0.000000
vn 0.000000 -1.000000 0.000000
vn 0.000000 -1.000000 0.000000
vn 0.000000 -1.000000 0.000000
vn 0.000000 -1.000000 0.000000
vn 0.000000 -1.000000 0.000001
vn 0.000000 -1.000000 -0.000001
vn 0.000000 -1.000000 0.000000
vn 0.000000 -1.000000 0.000001
vn 0.000001 -1.000000 0.000002
vn 0.897607 0.000000 -0.440797
vn 0.897607 0.000000 -0.440797
vn 0.757453 0.000000 -0.652890
vn 0.757453 0.000000 -0.652890
vn 0.000000 1.000000 0.000000
vn 0.000000 1.000000 0.000000
vn 0.000000 1.000000 0.000000
vn -0.000001 1.000000 0.000001
vn 0.000000 1.000000 0.000000
vn 0.000000 1.000000 0.000000
vn 0.000000 1.000000 0.000000
vn 0.000000 1.000000 0.000000
vn 0.000000 1.000000 0.000000
vn 0.000000 1.000000 0.000000
vn 0.000000 1.000000 0.000000
vn 0.000000 1.000000 0.000000
vn 0.000000 1.000000 0.000000
vn 0.000000 1.000000 0.000000
vn 0.000000 1.000000 0.000000
vn 0.000000 1.000000 -0.000001
vn -0.784327 0.000000 -0.620348
vn -0.784327 0.000000 -0.620348
vn -0.941690 0.000000 -0.336483
vn -0.941690 0.000000 -0.336483
vn 0.000000 1.000000 0.000000
vn 0.000000 1.000000 0.000000
vn 0.000000 1.000000 0.000000
vn 0.000000 1.000000 0.000000
vn 0.000000 1.000000 0.000000
vn 0.000000 1.000000 0.000000
vn 0.000000 1.000000 0.000000
vn 0.000000 1.000000 0.000000
vn 0.000000 1.000000 0.000000
vn 0.000000 1.000000 0.000000
vn 0.000000 1.000000 0.000000
vn 0.000000 1.000000 0.000000
vn 0.000000 1.000000 0.000000
vn 0.000000 1.000000 0.000000
vn 0.000000 1.000000 0.000000
vn 0.000000 1.000000 0.000000
vn 0.999993 0.000000 -0.003837
vn 0.999993 0.000000 -0.003836
vn 0.897607 0.000000 -0.440797
vn 0.897607 0.000000 -0.440797
vn 0.000000 -1.000000 -0.000001
vn 0.000000 -1.000000 -0.000001
vn 0.000000 -1.000000 0.000000
vn 0.000000 -1.000000 -0.000001
vn 0.000000 -1.000000 -0.000001
vn 0.000000 -1.000000 0.000000
vn 0.000000 -1.000000 0.000000
vn 0.000000 -1.000000 0.000000
vn 0.000000 -1.000000 0.000000
vn 0.000000 -1.000000 0.000000
vn 0.000000 -1.000000 0.000000
vn 0.000000 -1.000000 0.000000
vn 0.000000 -1.000000 0.000000
vn 0.000000 -1.000000 0.000000
vn 0.000000 -1.000000 0.000000
vn 0.000000 -1.000000 0.000000
vn -0.941690 0.000000 -0.336483
vn -0.941690 0.000000 -0.336483
vn -0.981543 0.000000 0.191239
vn -0.981543 0.000000 0.191239
vn 0.000000 -1.000000 0.000000
vn 0.000000 -1.000000 0.000000
vn 0.000000 -1.000000 0.000000
vn 0.000000 -1.000000 0.000000
vn 0.000000 -1.000000 0.000000
vn 0.000000 -1.000000 0.000000
vn 0.000000 -1.000000 0.000000
vn 0.000000 -1.000000 0.000000
vn 0.000000 -1.000000 0.000000
vn 0.000000 -1.000000 0.000000
vn 0.000000 -1.000000 0.000000
vn 0.000000 -1.000000 -0.000001
vn 0.000000 -1.000000 0.000000
vn 0.000000 -1.000000 0.000000
vn 0.000000 -1.000000 -0.000001
vn 0.000000 -1.000000 -0.000001
vn 0.812282 0.000000 0.583265
vn 0.812282 0.000000 0.583265
vn 0.999993 0.000000 -0.003836
vn 0.999993 0.000000 -0.003837
vn 0.000000 1.000000 0.000000
vn 0.000000 1.000000 0.000000
vn 0.000000 1.000000 0.000000
vn 0.000000 1.000000 -0.000001
vn 0.000000 1.000000 0.000000
vn 0.000000 1.000000 0.000000
vn 0.000000 1.000000 0.000000
vn 0.000000 1.000000 0.000000
vn 0.000000 1.000000 0.000000
vn 0.000000 1.000000 0.000000
vn 0.000000 1.000000 0.000000
vn 0.000000 1.000000 0.000000
vn 0.000000 1.000000 0.000000
vn 0.000000 1.000000 0.000000
vn 0.000000 1.000000 0.000000
vn 0.000000 1.000000 0.000000
s off
g Pressed_Plastic:pCube240
usemtl initialShadingGroup
f 1/1/1 9/2/2 10/3/3 3/4/4
f 3/5/5 10/6/6 50/7/7 41/8/8
f 5/9/9 11/10/10 12/11/11 7/12/12
f 42/13/13 43/14/14 9/15/15 1/16/16
f 2/17/17 46/18/18 47/19/19 4/20/20
f 41/21/21 42/22/22 1/1/23 3/4/24
f 10/3/25 9/2/26 17/23/27 18/24/28
f 49/25/29 50/7/30 10/26/31 18/27/32
f 12/11/33 11/10/34 19/28/35 20/29/36
f 9/15/37 43/14/38 44/30/39 17/31/40
f 14/32/41 13/33/42 2/17/43 4/20/44
f 47/34/45 48/35/46 14/36/47 4/37/48
f 16/38/49 15/39/50 6/40/51 8/41/52
f 13/42/53 45/43/54 46/44/55 2/45/56
f 18/24/57 17/23/58 13/33/59 14/32/60
f 48/35/61 49/25/62 18/27/63 14/36/64
f 20/46/65 19/47/66 15/39/67 16/38/68
f 17/31/69 44/30/70 45/43/71 13/42/72
f 7/12/73 31/48/74 32/49/75 5/9/76
f 7/50/77 12/51/78 40/52/79 31/53/80
f 39/54/81 40/52/82 12/51/83 20/55/84
f 38/56/85 39/54/86 20/55/87 16/57/88
f 37/58/89 38/56/90 16/57/91 8/59/92
f 36/60/93 37/61/94 8/41/95 6/40/96
f 15/62/97 35/63/98 36/64/99 6/65/100
f 19/66/101 34/67/102 35/63/103 15/62/104
f 11/68/105 33/69/106 34/67/107 19/66/108
f 32/70/109 33/69/110 11/68/111 5/71/112
f 32/49/113 31/48/114 22/72/115 21/73/116
f 21/74/117 30/75/118 33/69/119 32/70/120
f 34/67/121 33/69/122 30/75/123 29/76/124
f 35/63/125 34/67/126 29/76/127 28/77/128
f 36/64/129 35/63/130 28/77/131 27/78/132
f 27/79/133 26/80/134 37/61/135 36/60/136
f 26/81/137 25/82/138 38/56/139 37/58/140
f 25/82/141 24/83/142 39/54/143 38/56/144
f 24/83/145 23/84/146 40/52/147 39/54/148
f 31/53/149 40/52/150 23/84/151 22/85/152
f 21/73/153 22/72/154 42/22/155 41/21/156
f 22/85/157 23/84/158 43/14/159 42/13/160
f 44/30/161 43/14/162 23/84/163 24/83/164
f 45/43/165 44/30/166 24/83/167 25/82/168
f 46/44/169 45/43/170 25/82/171 26/81/172
f 47/19/173 46/18/174 26/80/175 27/79/176
f 27/78/177 28/77/178 48/35/179 47/34/180
f 28/77/181 29/76/182 49/25/183 48/35/184
f 29/76/185 30/75/186 50/7/187 49/25/188
f 41/8/189 50/7/190 30/75/191 21/74/192
