# This file uses centimeters as units for non-parametric coordinates.

mtllib Pressed_Plastic.mtl
g default
v 11.909915 8.201689 21.537136
v 13.441436 8.201689 21.391197
v 11.909915 8.294624 21.537136
v 13.441436 8.294624 21.391197
v 12.182846 8.294624 20.240763
v 13.555932 8.294624 20.178801
v 12.182846 8.201689 20.240763
v 13.555932 8.201689 20.178801
v 12.373966 8.201689 21.806917
v 12.373966 8.294624 21.806917
v 12.408179 8.294624 19.978485
v 12.408179 8.201689 19.978485
v 13.129247 8.201689 21.740347
v 13.129247 8.294624 21.740347
v 13.129247 8.294624 20.099119
v 13.129247 8.201689 20.099119
v 12.768713 8.201689 21.943876
v 12.768713 8.294624 21.943876
v 12.768713 8.294624 19.908062
v 12.768713 8.201689 19.908062
v 11.761202 8.294624 20.773859
v 11.761202 8.201689 20.773859
v 12.408179 8.201689 21.072483
v 12.768713 8.201689 21.077044
v 13.129247 8.201689 20.964193
v 13.863006 8.201689 20.804096
v 13.863006 8.294624 20.804096
v 13.129247 8.294624 20.964193
v 12.768713 8.294624 21.077044
v 12.408179 8.294624 21.072483
v 11.877069 8.201689 20.522430
v 11.877069 8.294624 20.522430
v 12.408179 8.294624 20.525484
v 12.768713 8.294624 20.417946
v 13.129247 8.294624 20.469339
v 13.771545 8.294625 20.428942
v 13.771545 8.201690 20.428942
v 13.129247 8.201689 20.469339
v 12.768713 8.201689 20.417946
v 12.408179 8.201689 20.525484
v 11.695910 8.294624 21.029430
v 11.695910 8.201689 21.029430
v 12.408179 8.201689 21.405170
v 12.768713 8.201689 21.411556
v 13.129247 8.201689 21.253565
v 13.773850 8.201689 21.029430
v 13.773850 8.294624 21.029430
v 13.129247 8.294624 21.253565
v 12.768713 8.294624 21.411556
v 12.408179 8.294624 21.405170
vt 0.382214 0.221570
vt 0.533662 0.645142
vt 0.275694 0.529434
vt 0.168582 0.539850
vt 0.248954 0.605225
vt 0.088184 0.614106
vt 0.159617 0.235914
vt 0.124720 0.861307
vt 0.669264 0.295295
vt 0.607346 0.329926
vt 0.457887 0.447511
vt 0.568600 0.570157
vt 0.768651 0.640369
vt 0.726106 0.220615
vt 0.460547 0.799836
vt 0.437344 0.705568
vt 0.600050 0.699381
vt 0.365038 0.538706
vt 0.316529 0.634192
vt 0.181820 0.905441
vt 0.743692 0.307166
vt 0.637609 0.596825
vt 0.416962 0.613008
vt 0.683870 0.685608
vt 0.368448 0.696784
vt 0.799671 0.369413
vt 0.262310 0.903745
vt 0.343980 0.929003
vt 0.876253 0.414870
vt 0.718216 0.591825
vt 0.528562 0.362616
vt 0.077542 0.719588
vt 0.630669 0.400678
vt 0.707716 0.405399
vt 0.773549 0.440739
vt 0.900143 0.478275
vt 0.818971 0.234084
vt 0.296230 0.837535
vt 0.228326 0.814292
vt 0.173681 0.764026
vt 0.261874 0.221904
vt 0.261912 0.235630
vt 0.221587 0.665851
vt 0.287758 0.695198
vt 0.341309 0.748607
vt 0.455155 0.847507
vt 0.891294 0.557004
vt 0.738634 0.536076
vt 0.661211 0.532379
vt 0.592074 0.506062
vt 0.726144 0.234342
vt 0.761937 0.234243
vt 0.858218 0.594126
vt 0.653540 0.220817
vt 0.300835 0.221796
vt 0.463294 0.560424
vt 0.818933 0.220358
vt 0.761899 0.220516
vt 0.404857 0.905129
vt 0.867749 0.233949
vt 0.220984 0.222017
vt 0.488499 0.402880
vt 0.523249 0.234905
vt 0.992089 0.219877
vt 0.931822 0.220044
vt 0.054287 0.236207
vt 0.931860 0.233771
vt 0.584400 0.234735
vt 0.523211 0.221178
vt 0.584362 0.221009
vt 0.867710 0.220222
vt 0.653579 0.234543
vt 0.461534 0.235076
vt 0.275642 0.529077
vt 0.108507 0.222329
vt 0.108545 0.236056
vt 0.461496 0.221350
vt 0.159579 0.222188
vt 0.382252 0.235296
vt 0.300873 0.235522
vt 0.078482 0.665130
vt 0.221022 0.235744
vt 0.107964 0.795491
vt 0.992127 0.233604
vt 0.054249 0.222480
vn -0.502598 0.000000 0.864520
vn -0.428035 0.000000 0.903762
vn -0.428035 0.000000 0.903762
vn -0.502598 0.000000 0.864520
vn 0.000000 1.000000 0.000001
vn 0.000000 1.000000 0.000000
vn 0.000000 1.000000 0.000000
vn 0.000000 1.000000 0.000000
vn -0.758506 0.000000 -0.651666
vn -0.493808 0.000000 -0.869571
vn -0.493808 0.000000 -0.869571
vn -0.758506 0.000000 -0.651666
vn 0.000000 -1.000000 0.000000
vn 0.000000 -1.000000 -0.000000
vn 0.000000 -1.000000 -0.000001
vn 0.000000 -1.000000 -0.000000
vn 0.736346 0.000000 0.676605
vn 0.812282 0.000000 0.583265
vn 0.812282 0.000000 0.583265
vn 0.736346 0.000000 0.676605
vn -0.981543 0.000000 0.191239
vn -0.981543 0.000000 0.191239
vn -0.921483 0.000000 0.388419
vn -0.921483 0.000000 0.388419
vn 0.087801 0.000000 0.996138
vn 0.087801 0.000000 0.996138
vn 0.000000 1.000000 0.000000
vn 0.000000 1.000000 0.000000
vn 0.165006 0.000000 -0.986293
vn 0.165006 0.000000 -0.986293
vn 0.000000 -1.000000 -0.000000
vn 0.000000 -1.000000 -0.000001
vn 0.634798 0.000000 0.772678
vn 0.634798 0.000000 0.772678
vn 0.745462 0.000000 0.666548
vn 0.745462 0.000000 0.666548
vn 0.000000 1.000000 -0.000001
vn 0.000000 1.000000 -0.000000
vn 0.000000 1.000000 0.000000
vn 0.000000 1.000000 0.000000
vn 0.325220 0.000000 -0.945638
vn 0.325220 0.000000 -0.945638
vn 0.183569 0.000000 -0.983007
vn 0.183569 0.000000 -0.983007
vn 0.000000 -1.000000 0.000000
vn 0.000000 -1.000000 0.000000
vn 0.000000 -1.000000 0.000000
vn 0.000000 -1.000000 0.000000
vn -0.677518 0.000000 -0.735506
vn -0.784327 0.000000 -0.620348
vn -0.784327 0.000000 -0.620348
vn -0.677518 0.000000 -0.735506
vn 0.000000 -1.000000 0.000000
vn 0.000000 -1.000000 0.000000
vn 0.000000 -1.000000 -0.000000
vn 0.000000 -1.000000 -0.000000
vn 0.000000 -1.000000 0.000000
vn 0.000000 -1.000000 0.000000
vn 0.000000 -1.000000 -0.000000
vn 0.000000 -1.000000 0.000001
vn 0.000000 -1.000000 -0.000001
vn 0.000001 -1.000000 0.000002
vn 0.897607 0.000000 -0.440797
vn 0.897607 0.000000 -0.440797
vn 0.757453 0.000000 -0.652890
vn 0.757453 0.000000 -0.652890
vn -0.000000 1.000000 0.000000
vn -0.000000 1.000000 0.000000
vn -0.000000 1.000000 0.000000
vn -0.000001 1.000000 0.000001
vn 0.000000 1.000000 0.000000
vn 0.000000 1.000000 0.000000
vn 0.000000 1.000000 -0.000000
vn 0.000000 1.000000 -0.000000
vn 0.000000 1.000000 -0.000000
vn 0.000000 1.000000 -0.000001
vn -0.941690 0.000000 -0.336483
vn -0.941690 0.000000 -0.336483
vn 0.000000 1.000000 0.000000
vn 0.000000 1.000000 0.000000
vn 0.000000 1.000000 0.000000
vn -0.000000 1.000000 -0.000000
vn -0.000000 1.000000 -0.000000
vn 0.999993 0.000000 -0.003837
vn 0.999993 0.000000 -0.003836
vn 0.000000 -1.000000 -0.000001
vn 0.000000 -1.000000 -0.000001
vn 0.000000 -1.000000 0.000000
vn 0.000000 -1.000000 0.000000
vn 0.000000 -1.000000 0.000000
s 1
g pCube240
usemtl initialShadingGroup
f 1/1/1 9/77/2 10/73/3 3/79/4
s 2
f 3/4/5 10/74/6 50/5/7 41/6/8
s 3
f 5/7/9 11/76/10 12/75/11 7/78/12
s 4
f 42/11/13 43/12/14 9/2/15 1/56/16
s 5
f 2/54/17 46/14/18 47/51/19 4/72/20
s 6
f 41/80/21 42/55/22 1/1/23 3/79/24
s 1
f 10/73/3 9/77/2 17/69/25 18/63/26
s 2
f 49/19/27 50/5/7 10/3/6 18/18/28
s 3
f 12/75/11 11/76/10 19/66/29 20/85/30
s 4
f 9/2/15 43/12/14 44/22/31 17/17/32
s 1
f 14/68/33 13/70/34 2/54/35 4/72/36
s 2
f 47/15/37 48/25/38 14/23/39 4/16/40
s 3
f 16/65/41 15/67/42 6/60/43 8/71/44
s 4
f 13/24/45 45/30/46 46/53/47 2/13/48
s 1
f 18/63/26 17/69/25 13/70/34 14/68/33
s 2
f 48/25/38 49/19/27 18/18/28 14/23/39
s 3
f 20/64/30 19/84/29 15/67/42 16/65/41
s 4
f 17/17/32 44/22/31 45/30/46 13/24/45
s 6
f 7/78/49 31/61/50 32/82/51 5/7/52
s 4
f 7/10/53 12/9/54 40/33/55 31/31/56
f 39/34/57 40/33/55 12/9/54 20/21/58
f 38/35/59 39/34/57 20/21/58 16/26/60
f 37/36/61 38/35/59 16/26/60 8/29/62
s 5
f 36/37/63 37/57/64 8/71/65 6/60/66
s 2
f 15/27/67 35/38/68 36/59/69 6/28/70
f 19/20/71 34/39/72 35/38/68 15/27/67
f 11/8/73 33/40/74 34/39/72 19/20/71
f 32/32/75 33/40/74 11/8/73 5/83/76
s 6
f 32/82/51 31/61/50 22/41/77 21/42/78
s 2
f 21/81/79 30/43/80 33/40/74 32/32/75
f 34/39/72 33/40/74 30/43/80 29/44/81
f 35/38/68 34/39/72 29/44/81 28/45/82
f 36/59/69 35/38/68 28/45/82 27/46/83
s 5
f 27/52/84 26/58/85 37/57/64 36/37/63
s 4
f 26/47/86 25/48/87 38/35/59 37/36/61
f 25/48/87 24/49/88 39/34/57 38/35/59
f 24/49/88 23/50/89 40/33/55 39/34/57
f 31/31/56 40/33/55 23/50/89 22/62/90
s 6
f 21/42/78 22/41/77 42/55/22 41/80/21
s 4
f 22/62/90 23/50/89 43/12/14 42/11/13
f 44/22/31 43/12/14 23/50/89 24/49/88
f 45/30/46 44/22/31 24/49/88 25/48/87
f 46/53/47 45/30/46 25/48/87 26/47/86
s 5
f 47/51/19 46/14/18 26/58/85 27/52/84
s 2
f 27/46/83 28/45/82 48/25/38 47/15/37
f 28/45/82 29/44/81 49/19/27 48/25/38
f 29/44/81 30/43/80 50/5/7 49/19/27
f 41/6/8 50/5/7 30/43/80 21/81/79
