# This file uses centimeters as units for non-parametric coordinates.

mtllib spout.mtl
g default
v 0.197335 0.098792 0.342925
v 0.077987 0.182668 0.357411
v -0.067248 0.169368 0.372442
v -0.170415 0.065115 0.380984
v -0.183239 -0.081310 0.379042
v -0.099720 -0.201393 0.367523
v 0.041061 -0.238946 0.351818
v 0.173234 -0.176397 0.339275
v 0.234951 -0.043014 0.335763
v 0.401810 0.240257 0.415775
v 0.146335 0.419802 0.446782
v -0.164556 0.391332 0.478957
v -0.385393 0.168168 0.497244
v -0.412845 -0.145268 0.493086
v -0.234065 -0.402317 0.468429
v 0.067292 -0.482703 0.434810
v 0.350218 -0.348811 0.407960
v 0.482330 -0.063292 0.400443
v 0.421876 0.257047 0.641368
v 0.166401 0.436592 0.672376
v -0.144490 0.408122 0.704550
v -0.365327 0.184958 0.722837
v -0.392778 -0.128479 0.718679
v -0.213999 -0.385528 0.694023
v 0.087358 -0.465913 0.660404
v 0.370285 -0.332021 0.633554
v 0.502396 -0.046502 0.626036
v 0.260284 0.140749 0.670347
v 0.115815 0.242280 0.687882
v -0.059992 0.226181 0.706077
v -0.184874 0.099983 0.716418
v -0.200398 -0.077263 0.714067
v -0.099299 -0.222623 0.700123
v 0.071116 -0.268080 0.681112
v 0.231110 -0.192366 0.665929
v 0.305818 -0.030906 0.661677
v 0.257895 0.141295 0.759383
v 0.113426 0.242826 0.776918
v -0.062381 0.226727 0.795113
v -0.187263 0.100529 0.805454
v -0.202787 -0.076717 0.803103
v -0.101688 -0.222077 0.789159
v 0.068727 -0.267534 0.770148
v 0.228721 -0.191819 0.754965
v 0.303429 -0.030360 0.750713
v 0.147843 0.110105 -0.161890
v 0.028496 0.193981 -0.147404
v -0.116740 0.180681 -0.132373
v -0.219906 0.076428 -0.123830
v -0.232730 -0.069997 -0.125773
v -0.149212 -0.190080 -0.137291
v -0.008430 -0.227633 -0.152997
v 0.123742 -0.165084 -0.165540
v 0.185459 -0.031701 -0.169052
v 0.095003 0.064681 -0.399275
v 0.016964 0.119526 -0.389803
v -0.078002 0.110829 -0.379975
v -0.145460 0.042661 -0.374389
v -0.153845 -0.053083 -0.375659
v -0.099235 -0.131602 -0.383191
v -0.007181 -0.156157 -0.393460
v 0.079243 -0.115258 -0.401662
v 0.119599 -0.028042 -0.403958
v 0.175469 0.124245 -0.406498
v 0.041426 0.218449 -0.390229
v -0.121692 0.203511 -0.373347
v -0.237561 0.086422 -0.363752
v -0.251964 -0.078032 -0.365934
v -0.158162 -0.212901 -0.378871
v -0.000046 -0.255077 -0.396510
v 0.148400 -0.184827 -0.410598
v 0.217716 -0.035021 -0.414542
v 0.143007 0.130598 -0.741630
v 0.009158 0.224672 -0.725385
v -0.153729 0.209757 -0.708527
v -0.269435 0.092831 -0.698946
v -0.283815 -0.071391 -0.701125
v -0.190145 -0.206065 -0.714043
v -0.032258 -0.248177 -0.731657
v 0.115972 -0.178026 -0.745724
v 0.185189 -0.028438 -0.749662
v 0.102111 0.100392 -0.737903
v -0.002737 0.174082 -0.725177
v -0.130332 0.162399 -0.711972
v -0.220968 0.070808 -0.704467
v -0.232233 -0.057833 -0.706174
v -0.158858 -0.163328 -0.716293
v -0.035180 -0.196315 -0.730090
v 0.080934 -0.141364 -0.741110
v 0.135154 -0.024187 -0.744195
vt 0.589771 0.080923
vt 0.520349 0.040843
vt 0.441406 0.054763
vt 0.389880 0.116170
vt 0.389880 0.196330
vt 0.441406 0.257737
vt 0.520349 0.271657
vt 0.589771 0.231577
vt 0.617188 0.156250
vt 0.619694 0.055814
vt 0.527133 0.002374
vt 0.421875 0.020934
vt 0.353173 0.102809
vt 0.353173 0.209691
vt 0.421875 0.291566
vt 0.527133 0.310126
vt 0.619694 0.256686
vt 0.656250 0.156250
vt 0.375000 0.312500
vt 0.402778 0.312500
vt 0.430556 0.312500
vt 0.458333 0.312500
vt 0.486111 0.312500
vt 0.513889 0.312500
vt 0.541667 0.312500
vt 0.569445 0.312500
vt 0.597222 0.312500
vt 0.625000 0.312500
vt 0.375000 0.688440
vt 0.402778 0.688440
vt 0.430556 0.688440
vt 0.458333 0.688440
vt 0.486111 0.688440
vt 0.513889 0.688440
vt 0.541667 0.688440
vt 0.569445 0.688440
vt 0.597222 0.688440
vt 0.625000 0.688440
vt 0.619694 0.743314
vt 0.527133 0.689874
vt 0.421875 0.708434
vt 0.353173 0.790309
vt 0.353173 0.897191
vt 0.421875 0.979066
vt 0.527133 0.997626
vt 0.619694 0.944186
vt 0.656250 0.843750
vt 0.589771 0.768423
vt 0.520349 0.728343
vt 0.441406 0.742263
vt 0.389880 0.803670
vt 0.389880 0.883830
vt 0.441406 0.945237
vt 0.520349 0.959157
vt 0.589771 0.919077
vt 0.617188 0.843750
vt 0.000000 0.000000
vt 1.000000 0.000000
vt 1.000000 1.000000
vt 0.000000 1.000000
vt 0.000000 0.000000
vt 1.000000 0.000000
vt 1.000000 1.000000
vt 0.000000 1.000000
vt 0.000000 0.000000
vt 1.000000 0.000000
vt 1.000000 1.000000
vt 0.000000 1.000000
vt 0.000000 0.000000
vt 1.000000 0.000000
vt 1.000000 1.000000
vt 0.000000 1.000000
vt 0.000000 0.000000
vt 1.000000 0.000000
vt 1.000000 1.000000
vt 0.000000 1.000000
vt 0.000000 0.000000
vt 1.000000 0.000000
vt 1.000000 1.000000
vt 0.000000 1.000000
vt 0.000000 0.000000
vt 1.000000 0.000000
vt 1.000000 1.000000
vt 0.000000 1.000000
vt 0.000000 0.000000
vt 1.000000 0.000000
vt 1.000000 1.000000
vt 0.000000 1.000000
vt 0.000000 0.000000
vt 1.000000 0.000000
vt 1.000000 1.000000
vt 0.000000 1.000000
vt 0.000000 0.000000
vt 1.000000 0.000000
vt 1.000000 1.000000
vt 0.000000 1.000000
vt 0.000000 0.000000
vt 1.000000 0.000000
vt 1.000000 1.000000
vt 0.000000 1.000000
vt 0.000000 0.000000
vt 1.000000 0.000000
vt 1.000000 1.000000
vt 0.000000 1.000000
vt 0.000000 0.000000
vt 1.000000 0.000000
vt 1.000000 1.000000
vt 0.000000 1.000000
vt 0.000000 0.000000
vt 1.000000 0.000000
vt 1.000000 1.000000
vt 0.000000 1.000000
vt 0.000000 0.000000
vt 1.000000 0.000000
vt 1.000000 1.000000
vt 0.000000 1.000000
vt 0.000000 0.000000
vt 1.000000 0.000000
vt 1.000000 1.000000
vt 0.000000 1.000000
vt 0.000000 0.000000
vt 1.000000 0.000000
vt 1.000000 1.000000
vt 0.000000 1.000000
vt 0.000000 0.000000
vt 1.000000 0.000000
vt 1.000000 1.000000
vt 0.000000 1.000000
vt 0.000000 0.000000
vt 1.000000 0.000000
vt 1.000000 1.000000
vt 0.000000 1.000000
vt 0.000000 0.000000
vt 1.000000 0.000000
vt 1.000000 1.000000
vt 0.000000 1.000000
vt 0.000000 0.000000
vt 1.000000 0.000000
vt 1.000000 1.000000
vt 0.000000 1.000000
vt 0.000000 0.000000
vt 1.000000 0.000000
vt 1.000000 1.000000
vt 0.000000 1.000000
vt 0.000000 0.000000
vt 1.000000 0.000000
vt 1.000000 1.000000
vt 0.000000 1.000000
vt 0.000000 0.000000
vt 1.000000 0.000000
vt 1.000000 1.000000
vt 0.000000 1.000000
vt 0.000000 0.000000
vt 1.000000 0.000000
vt 1.000000 1.000000
vt 0.000000 1.000000
vt 0.000000 0.000000
vt 1.000000 0.000000
vt 1.000000 1.000000
vt 0.000000 1.000000
vt 0.000000 0.000000
vt 1.000000 0.000000
vt 1.000000 1.000000
vt 0.000000 1.000000
vt 0.000000 0.000000
vt 1.000000 0.000000
vt 1.000000 1.000000
vt 0.000000 1.000000
vt 0.000000 0.000000
vt 1.000000 0.000000
vt 1.000000 1.000000
vt 0.000000 1.000000
vt 0.000000 0.000000
vt 1.000000 0.000000
vt 1.000000 1.000000
vt 0.000000 1.000000
vt 0.000000 0.000000
vt 1.000000 0.000000
vt 1.000000 1.000000
vt 0.000000 1.000000
vt 0.000000 0.000000
vt 1.000000 0.000000
vt 1.000000 1.000000
vt 0.000000 1.000000
vt 0.000000 0.000000
vt 1.000000 0.000000
vt 1.000000 1.000000
vt 0.000000 1.000000
vt 0.000000 0.000000
vt 1.000000 0.000000
vt 1.000000 1.000000
vt 0.000000 1.000000
vt 0.000000 0.000000
vt 1.000000 0.000000
vt 1.000000 1.000000
vt 0.000000 1.000000
vt 0.000000 0.000000
vt 1.000000 0.000000
vt 1.000000 1.000000
vt 0.000000 1.000000
vt 0.000000 0.000000
vt 1.000000 0.000000
vt 1.000000 1.000000
vt 0.000000 1.000000
vt 0.000000 0.000000
vt 1.000000 0.000000
vt 1.000000 1.000000
vt 0.000000 1.000000
vt 0.000000 0.000000
vt 1.000000 0.000000
vt 1.000000 1.000000
vt 0.000000 1.000000
vt 0.000000 0.000000
vt 1.000000 0.000000
vt 1.000000 1.000000
vt 0.000000 1.000000
vt 0.000000 0.000000
vt 1.000000 0.000000
vt 1.000000 1.000000
vt 0.000000 1.000000
vt 0.000000 0.000000
vt 1.000000 0.000000
vt 1.000000 1.000000
vt 0.000000 1.000000
vt 0.000000 0.000000
vt 1.000000 0.000000
vt 1.000000 1.000000
vt 0.000000 1.000000
vt 0.000000 0.000000
vt 1.000000 0.000000
vt 1.000000 1.000000
vt 0.000000 1.000000
vt 0.000000 0.000000
vt 1.000000 0.000000
vt 1.000000 1.000000
vt 0.000000 1.000000
vt 0.000000 0.000000
vt 1.000000 0.000000
vt 1.000000 1.000000
vt 0.000000 1.000000
vt 0.000000 0.000000
vt 1.000000 0.000000
vt 1.000000 1.000000
vt 0.000000 1.000000
vt 0.000000 0.000000
vt 1.000000 0.000000
vt 1.000000 1.000000
vt 0.000000 1.000000
vt 0.000000 0.000000
vt 1.000000 0.000000
vt 1.000000 1.000000
vt 0.000000 1.000000
vt 0.000000 0.000000
vt 1.000000 0.000000
vt 1.000000 1.000000
vt 0.000000 1.000000
vt 0.000000 0.000000
vt 1.000000 0.000000
vt 1.000000 1.000000
vt 0.000000 1.000000
vt 0.000000 0.000000
vt 1.000000 0.000000
vt 1.000000 1.000000
vt 0.000000 1.000000
vt 0.000000 0.000000
vt 1.000000 0.000000
vt 1.000000 1.000000
vt 0.000000 1.000000
vt 0.000000 0.000000
vt 1.000000 0.000000
vt 1.000000 1.000000
vt 0.000000 1.000000
vn 0.188045 0.221004 -0.956973
vn -0.008433 0.354782 -0.934911
vn -0.011311 0.355497 -0.934609
vn 0.186137 0.223639 -0.956733
vn -0.242654 0.331189 -0.911830
vn -0.243901 0.330587 -0.911715
vn -0.407014 0.164550 -0.898478
vn -0.406898 0.164800 -0.898485
vn -0.428351 -0.068807 -0.900989
vn -0.428767 -0.067178 -0.900914
vn -0.295380 -0.263665 -0.918276
vn -0.297659 -0.262010 -0.918014
vn -0.066299 -0.327980 -0.942355
vn -0.069260 -0.328200 -0.942066
vn 0.151333 -0.227840 -0.961867
vn 0.150404 -0.228765 -0.961793
vn 0.252190 -0.009830 -0.967628
vn 0.252305 -0.008382 -0.967611
vn 0.562385 0.819390 -0.111005
vn 0.562385 0.819391 -0.111005
vn 0.562385 0.819391 -0.111005
vn 0.562385 0.819391 -0.111005
vn -0.097692 0.993077 -0.065219
vn -0.097692 0.993077 -0.065219
vn -0.097692 0.993077 -0.065219
vn -0.097692 0.993077 -0.065219
vn -0.710318 0.703798 0.010803
vn -0.710318 0.703798 0.010803
vn -0.710318 0.703798 0.010803
vn -0.710318 0.703798 0.010803
vn -0.992932 0.085875 0.081929
vn -0.992931 0.085875 0.081929
vn -0.992932 0.085875 0.081929
vn -0.992931 0.085875 0.081929
vn -0.810332 -0.574607 0.114842
vn -0.810332 -0.574607 0.114842
vn -0.810332 -0.574607 0.114842
vn -0.810332 -0.574607 0.114842
vn -0.246822 -0.964517 0.093737
vn -0.246822 -0.964517 0.093737
vn -0.246822 -0.964517 0.093737
vn -0.246822 -0.964517 0.093737
vn 0.429820 -0.902451 0.028932
vn 0.429820 -0.902451 0.028932
vn 0.429820 -0.902451 0.028932
vn 0.429820 -0.902451 0.028932
vn 0.905957 -0.420491 -0.049289
vn 0.905957 -0.420491 -0.049289
vn 0.905957 -0.420491 -0.049289
vn 0.905957 -0.420491 -0.049289
vn 0.959933 0.259923 -0.104729
vn 0.959933 0.259923 -0.104729
vn 0.959933 0.259923 -0.104729
vn 0.959933 0.259923 -0.104729
vn 0.163219 0.019011 0.986407
vn 0.123182 0.047036 0.991269
vn 0.123105 0.047057 0.991277
vn 0.163303 0.018890 0.986395
vn 0.074418 0.042919 0.996303
vn 0.074180 0.042809 0.996326
vn 0.039412 0.008212 0.999189
vn 0.039324 0.008025 0.999194
vn 0.034901 -0.041165 0.998543
vn 0.034907 -0.041184 0.998542
vn 0.063282 -0.081805 0.994637
vn 0.063226 -0.081766 0.994644
vn 0.111070 -0.094439 0.989315
vn 0.111014 -0.094444 0.989321
vn 0.155666 -0.073233 0.985091
vn 0.155595 -0.073305 0.985097
vn 0.176150 -0.028360 0.983955
vn 0.176134 -0.028554 0.983952
vn 0.575808 0.817518 0.010435
vn 0.575808 0.817518 0.010435
vn 0.575808 0.817518 0.010435
vn 0.575808 0.817518 0.010435
vn -0.092071 0.995715 -0.008577
vn -0.092071 0.995715 -0.008577
vn -0.092071 0.995715 -0.008577
vn -0.092071 0.995715 -0.008577
vn -0.711565 0.702230 -0.023398
vn -0.711565 0.702230 -0.023398
vn -0.711565 0.702230 -0.023398
vn -0.711565 0.702230 -0.023398
vn -0.995785 0.087574 -0.027254
vn -0.995785 0.087574 -0.027254
vn -0.995785 0.087574 -0.027254
vn -0.995785 0.087574 -0.027254
vn -0.821653 -0.569686 -0.018551
vn -0.821653 -0.569686 -0.018551
vn -0.821653 -0.569686 -0.018551
vn -0.821653 -0.569686 -0.018551
vn -0.257836 -0.966188 -0.000993
vn -0.257836 -0.966188 -0.000993
vn -0.257836 -0.966188 -0.000993
vn -0.257836 -0.966188 -0.000993
vn 0.429016 -0.903136 0.017049
vn 0.429016 -0.903136 0.017049
vn 0.429016 -0.903136 0.017049
vn 0.429016 -0.903136 0.017049
vn 0.907497 -0.419195 0.026919
vn 0.907497 -0.419195 0.026919
vn 0.907497 -0.419195 0.026919
vn 0.907497 -0.419195 0.026919
vn 0.966590 0.255168 0.024368
vn 0.966590 0.255168 0.024368
vn 0.966590 0.255168 0.024368
vn 0.966590 0.255168 0.024368
vn 0.571521 0.819723 -0.037662
vn 0.571521 0.819723 -0.037662
vn 0.563034 0.819540 -0.106527
vn 0.564229 0.819776 -0.098047
vn -0.087975 0.995642 0.030937
vn -0.087975 0.995642 0.030937
vn -0.097579 0.993164 -0.064054
vn -0.096454 0.993953 -0.052477
vn -0.704751 0.704359 0.084877
vn -0.704751 0.704359 0.084877
vn -0.711651 0.702010 -0.027123
vn -0.711466 0.702449 -0.019528
vn -0.991395 0.085513 0.099112
vn -0.991395 0.085513 0.099112
vn -0.996093 0.087407 -0.012623
vn -0.996063 0.087431 -0.014670
vn -0.816078 -0.574028 0.067144
vn -0.816078 -0.574028 0.067144
vn -0.821908 -0.568904 -0.028552
vn -0.822081 -0.568062 -0.038579
vn -0.257360 -0.966309 0.003577
vn -0.257360 -0.966309 0.003577
vn -0.264272 -0.961999 -0.068685
vn -0.265186 -0.960917 -0.079466
vn 0.422157 -0.904423 -0.061656
vn 0.422157 -0.904423 -0.061656
vn 0.416232 -0.902206 -0.113031
vn 0.415446 -0.901777 -0.119177
vn 0.902215 -0.420037 -0.097865
vn 0.902215 -0.420037 -0.097865
vn 0.897318 -0.418859 -0.139202
vn 0.897144 -0.418812 -0.140462
vn 0.961666 0.259561 -0.088464
vn 0.961666 0.259561 -0.088464
vn 0.955866 0.260423 -0.136014
vn 0.956318 0.260385 -0.132877
vn 0.531051 0.802571 -0.271780
vn 0.531051 0.802571 -0.271780
vn -0.116738 0.950932 -0.286534
vn -0.116738 0.950932 -0.286534
vn -0.691265 0.659942 -0.294328
vn -0.691265 0.659942 -0.294328
vn -0.951655 0.087254 -0.294517
vn -0.951655 0.087254 -0.294517
vn -0.798917 -0.528032 -0.287947
vn -0.798917 -0.528032 -0.287947
vn -0.276323 -0.920836 -0.275147
vn -0.276323 -0.920836 -0.275147
vn 0.392746 -0.882084 -0.260151
vn 0.392746 -0.882084 -0.260151
vn 0.875735 -0.411840 -0.251943
vn 0.875735 -0.411840 -0.251943
vn 0.930831 0.259889 -0.256927
vn 0.930831 0.259889 -0.256927
vn 0.105362 -0.021782 0.994195
vn 0.105362 -0.021782 0.994195
vn 0.105362 -0.021782 0.994195
vn 0.105362 -0.021782 0.994195
vn 0.104882 -0.021660 0.994249
vn 0.104882 -0.021660 0.994249
vn 0.104882 -0.021660 0.994249
vn 0.104882 -0.021660 0.994249
vn 0.104436 -0.021873 0.994291
vn 0.104436 -0.021873 0.994291
vn 0.104436 -0.021873 0.994291
vn 0.104436 -0.021873 0.994291
vn 0.104227 -0.022318 0.994303
vn 0.104227 -0.022318 0.994303
vn 0.104227 -0.022318 0.994303
vn 0.104227 -0.022318 0.994303
vn 0.104346 -0.022797 0.994280
vn 0.104346 -0.022797 0.994280
vn 0.104346 -0.022797 0.994280
vn 0.104346 -0.022797 0.994280
vn 0.104755 -0.023098 0.994230
vn 0.104755 -0.023098 0.994230
vn 0.104755 -0.023098 0.994230
vn 0.104755 -0.023098 0.994230
vn 0.105261 -0.023058 0.994177
vn 0.105261 -0.023058 0.994177
vn 0.105261 -0.023058 0.994177
vn 0.105261 -0.023058 0.994177
vn 0.105620 -0.022699 0.994147
vn 0.105620 -0.022699 0.994147
vn 0.105620 -0.022699 0.994147
vn 0.105620 -0.022699 0.994147
vn 0.105658 -0.022183 0.994155
vn 0.105658 -0.022183 0.994155
vn 0.105658 -0.022183 0.994155
vn 0.105658 -0.022183 0.994155
vn 0.571311 0.819768 -0.039793
vn 0.571311 0.819768 -0.039793
vn 0.571311 0.819768 -0.039793
vn 0.571311 0.819768 -0.039793
vn -0.088386 0.995720 0.026998
vn -0.088386 0.995720 0.026998
vn -0.088386 0.995720 0.026998
vn -0.088386 0.995720 0.026998
vn -0.705187 0.704434 0.080527
vn -0.705187 0.704434 0.080527
vn -0.705187 0.704434 0.080527
vn -0.705187 0.704434 0.080527
vn -0.991702 0.085574 0.095934
vn -0.991702 0.085574 0.095934
vn -0.991702 0.085574 0.095934
vn -0.991702 0.085574 0.095934
vn -0.816170 -0.574010 0.066178
vn -0.816170 -0.574010 0.066178
vn -0.816170 -0.574010 0.066178
vn -0.816170 -0.574010 0.066178
vn -0.257217 -0.966342 0.004830
vn -0.257217 -0.966342 0.004830
vn -0.257217 -0.966342 0.004830
vn -0.257217 -0.966342 0.004830
vn 0.422415 -0.904465 -0.059226
vn 0.422415 -0.904465 -0.059226
vn 0.422415 -0.904465 -0.059226
vn 0.422415 -0.904465 -0.059226
vn 0.902411 -0.420081 -0.095844
vn 0.902411 -0.420081 -0.095844
vn 0.902411 -0.420081 -0.095844
vn 0.902411 -0.420081 -0.095844
vn 0.961691 0.259545 -0.088240
vn 0.961691 0.259545 -0.088240
vn 0.961691 0.259545 -0.088240
vn 0.961691 0.259545 -0.088240
vn -0.105374 0.020704 -0.994217
vn -0.106373 0.021357 -0.994097
vn -0.106385 0.021372 -0.994095
vn -0.105398 0.020710 -0.994214
vn -0.104219 0.020849 -0.994336
vn -0.104235 0.020841 -0.994334
vn -0.103429 0.021679 -0.994401
vn -0.103432 0.021672 -0.994400
vn -0.103329 0.022812 -0.994386
vn -0.103331 0.022817 -0.994385
vn -0.103965 0.023762 -0.994297
vn -0.103980 0.023773 -0.994295
vn -0.105080 0.024104 -0.994172
vn -0.105107 0.024103 -0.994169
vn -0.106178 0.023632 -0.994066
vn -0.106191 0.023619 -0.994065
vn -0.106704 0.022531 -0.994036
vn -0.106704 0.022532 -0.994035
s 1
g pCylinder1
usemtl initialShadingGroup
f 1/1/1 2/2/2 11/11/3 10/10/4
f 2/2/2 3/3/5 12/12/6 11/11/3
f 3/3/5 4/4/7 13/13/8 12/12/6
f 4/4/7 5/5/9 14/14/10 13/13/8
f 5/5/9 6/6/11 15/15/12 14/14/10
f 6/6/11 7/7/13 16/16/14 15/15/12
f 7/7/13 8/8/15 17/17/16 16/16/14
f 8/8/15 9/9/17 18/18/18 17/17/16
f 9/9/17 1/1/1 10/10/4 18/18/18
s off
f 10/19/19 11/20/20 20/30/21 19/29/22
f 11/20/23 12/21/24 21/31/25 20/30/26
f 12/21/27 13/22/28 22/32/29 21/31/30
f 13/22/31 14/23/32 23/33/33 22/32/34
f 14/23/35 15/24/36 24/34/37 23/33/38
f 15/24/39 16/25/40 25/35/41 24/34/42
f 16/25/43 17/26/44 26/36/45 25/35/46
f 17/26/47 18/27/48 27/37/49 26/36/50
f 18/27/51 10/28/52 19/38/53 27/37/54
s 2
f 19/46/55 20/45/56 29/54/57 28/55/58
f 20/45/56 21/44/59 30/53/60 29/54/57
f 21/44/59 22/43/61 31/52/62 30/53/60
f 22/43/61 23/42/63 32/51/64 31/52/62
f 23/42/63 24/41/65 33/50/66 32/51/64
f 24/41/65 25/40/67 34/49/68 33/50/66
f 25/40/67 26/39/69 35/48/70 34/49/68
f 26/39/69 27/47/71 36/56/72 35/48/70
f 27/47/71 19/46/55 28/55/58 36/56/72
s off
f 28/57/73 29/58/74 38/59/75 37/60/76
f 29/61/77 30/62/78 39/63/79 38/64/80
f 30/65/81 31/66/82 40/67/83 39/68/84
f 31/69/85 32/70/86 41/71/87 40/72/88
f 32/73/89 33/74/90 42/75/91 41/76/92
f 33/77/93 34/78/94 43/79/95 42/80/96
f 34/81/97 35/82/98 44/83/99 43/84/100
f 35/85/101 36/86/102 45/87/103 44/88/104
f 36/89/105 28/90/106 37/91/107 45/92/108
s 3
f 2/93/109 1/94/110 46/95/111 47/96/112
s 4
f 3/97/113 2/98/114 47/99/115 48/100/116
s 5
f 4/101/117 3/102/118 48/103/119 49/104/120
s 6
f 5/105/121 4/106/122 49/107/123 50/108/124
s 7
f 6/109/125 5/110/126 50/111/127 51/112/128
s 8
f 7/113/129 6/114/130 51/115/131 52/116/132
s 9
f 8/117/133 7/118/134 52/119/135 53/120/136
s 10
f 9/121/137 8/122/138 53/123/139 54/124/140
s 11
f 1/125/141 9/126/142 54/127/143 46/128/144
s 3
f 47/129/112 46/130/111 55/131/145 56/132/146
s 4
f 48/133/116 47/134/115 56/135/147 57/136/148
s 5
f 49/137/120 48/138/119 57/139/149 58/140/150
s 6
f 50/141/124 49/142/123 58/143/151 59/144/152
s 7
f 51/145/128 50/146/127 59/147/153 60/148/154
s 8
f 52/149/132 51/150/131 60/151/155 61/152/156
s 9
f 53/153/136 52/154/135 61/155/157 62/156/158
s 10
f 54/157/140 53/158/139 62/159/159 63/160/160
s 11
f 46/161/144 54/162/143 63/163/161 55/164/162
s off
f 56/165/163 55/166/164 64/167/165 65/168/166
f 57/169/167 56/170/168 65/171/169 66/172/170
f 58/173/171 57/174/172 66/175/173 67/176/174
f 59/177/175 58/178/176 67/179/177 68/180/178
f 60/181/179 59/182/180 68/183/181 69/184/182
f 61/185/183 60/186/184 69/187/185 70/188/186
f 62/189/187 61/190/188 70/191/189 71/192/190
f 63/193/191 62/194/192 71/195/193 72/196/194
f 55/197/195 63/198/196 72/199/197 64/200/198
f 65/201/199 64/202/200 73/203/201 74/204/202
f 66/205/203 65/206/204 74/207/205 75/208/206
f 67/209/207 66/210/208 75/211/209 76/212/210
f 68/213/211 67/214/212 76/215/213 77/216/214
f 69/217/215 68/218/216 77/219/217 78/220/218
f 70/221/219 69/222/220 78/223/221 79/224/222
f 71/225/223 70/226/224 79/227/225 80/228/226
f 72/229/227 71/230/228 80/231/229 81/232/230
f 64/233/231 72/234/232 81/235/233 73/236/234
s 12
f 74/237/235 73/238/236 82/239/237 83/240/238
f 75/241/239 74/242/235 83/243/238 84/244/240
f 76/245/241 75/246/239 84/247/240 85/248/242
f 77/249/243 76/250/241 85/251/242 86/252/244
f 78/253/245 77/254/243 86/255/244 87/256/246
f 79/257/247 78/258/245 87/259/246 88/260/248
f 80/261/249 79/262/247 88/263/248 89/264/250
f 81/265/251 80/266/249 89/267/250 90/268/252
f 73/269/236 81/270/251 90/271/252 82/272/237
