# This file uses centimeters as units for non-parametric coordinates.

mtllib Water_Bucket.mtl
g default
v 7.517324 1.567166 17.328291
v 11.127048 1.567166 17.328291
v 7.214902 4.046227 17.570923
v 11.429470 4.046227 17.570923
v 7.214902 4.046227 14.597564
v 11.429470 4.046227 14.597564
v 7.517324 1.567166 14.840205
v 11.127048 1.567166 14.840205
v 7.267096 1.965418 17.500767
v 7.267096 1.965418 14.667732
v 11.377276 1.965418 14.667732
v 11.377276 1.965418 17.500767
v 7.313107 3.640906 14.666847
v 7.313107 3.640906 17.501640
v 11.331265 3.640906 17.501640
v 11.331265 3.640906 14.666847
v 7.214902 4.046227 14.894899
v 7.313107 3.640906 14.950331
v 7.267096 1.965418 14.951035
v 7.517324 1.567166 15.089015
v 11.127048 1.567166 15.089015
v 11.377276 1.965418 14.951035
v 11.331265 3.640906 14.950331
v 11.429470 4.046227 14.894899
v 7.214903 4.046227 17.303324
v 7.313107 3.640906 17.246511
v 7.267096 1.965418 17.245787
v 7.517324 1.567166 17.104362
v 11.127048 1.567166 17.104362
v 11.377276 1.965418 17.245787
v 11.331265 3.640906 17.246511
v 11.429470 4.046227 17.303324
v 7.878296 1.567166 17.328291
v 7.678114 1.965418 17.500767
v 7.714923 3.640906 17.501640
v 7.636359 4.046227 17.570923
v 7.658492 4.046227 17.279016
v 7.658492 4.046227 14.923830
v 7.636359 4.046227 14.597564
v 7.714923 3.640906 14.666847
v 7.678114 1.965418 14.667732
v 7.878296 1.567166 14.840205
v 7.878296 1.567166 15.089015
v 7.878296 1.567166 17.104362
v 11.007360 1.965418 17.500767
v 10.802173 1.567166 17.328291
v 10.802173 1.567166 17.104362
v 10.802173 1.567166 15.089015
v 10.802173 1.567166 14.840205
v 11.007360 1.965418 14.667732
v 10.969631 3.640906 14.666847
v 11.050159 4.046227 14.597564
v 11.034951 4.046227 14.923830
v 11.034951 4.046227 17.279016
v 11.050159 4.046227 17.570923
v 10.969631 3.640906 17.501640
v 7.679840 2.178110 17.255507
v 7.679476 2.178110 14.951584
v 11.020176 2.178110 17.255335
v 11.020429 2.178110 14.951680
vt 0.544493 0.543194
vt 0.568115 0.543436
vt 0.554724 0.571703
vt 0.527826 0.571426
vt 0.062971 0.686833
vt 0.099652 0.687260
vt 0.101282 0.712688
vt 0.062700 0.710123
vt 0.794620 0.797231
vt 0.766435 0.796572
vt 0.753404 0.766492
vt 0.778156 0.767070
vt 0.900501 0.360977
vt 0.900526 0.341620
vt 0.912535 0.341635
vt 0.912509 0.360993
vt 0.912764 0.167418
vt 0.900756 0.167402
vt 0.908373 0.142190
vt 0.922046 0.142208
vt 0.908052 0.386209
vt 0.921725 0.386227
vt 0.910990 0.498461
vt 0.907972 0.476093
vt 0.921654 0.476111
vt 0.925340 0.498480
vt 0.794855 0.940403
vt 0.765955 0.939727
vt 0.761226 0.911405
vt 0.788780 0.912048
vt 0.922211 0.052325
vt 0.908530 0.052307
vt 0.911606 0.029946
vt 0.925956 0.029965
vt 0.529711 0.681102
vt 0.556006 0.681372
vt 0.550589 0.708228
vt 0.523008 0.707945
vt 0.769635 0.475911
vt 0.784838 0.475931
vt 0.781836 0.498291
vt 0.765891 0.498270
vt 0.769801 0.386027
vt 0.784994 0.386047
vt 0.779083 0.360817
vt 0.792426 0.360835
vt 0.779109 0.341460
vt 0.792452 0.341477
vt 0.785315 0.142028
vt 0.792681 0.167260
vt 0.779338 0.167243
vt 0.770122 0.142008
vt 0.785395 0.052145
vt 0.770193 0.052125
vt 0.782452 0.029776
vt 0.766507 0.029755
vt 0.060260 0.919737
vt 0.098896 0.917668
vt 0.096640 0.946042
vt 0.059959 0.945615
vt 0.772591 0.573940
vt 0.759455 0.545402
vt 0.780715 0.545620
vt 0.796799 0.574189
vt 0.768996 0.683560
vt 0.792661 0.683803
vt 0.773989 0.710523
vt 0.798812 0.710778
vt 0.395148 0.716108
vt 0.396767 0.690718
vt 0.429780 0.691102
vt 0.429509 0.714392
vt 0.392762 0.921089
vt 0.427069 0.924006
vt 0.393755 0.949500
vt 0.426768 0.949885
vt 0.538045 0.906189
vt 0.531864 0.934257
vt 0.505854 0.933649
vt 0.513247 0.905609
vt 0.538143 0.791237
vt 0.512777 0.790645
vt 0.552909 0.761806
vt 0.530631 0.761286
vt 0.792658 0.184682
vt 0.779315 0.184664
vt 0.900733 0.184824
vt 0.912741 0.184840
vt 0.397965 0.244185
vt 0.399540 0.409836
vt 0.159371 0.412144
vt 0.157753 0.246513
vt 0.532272 0.240913
vt 0.533882 0.410250
vt 0.402366 0.544149
vt 0.159600 0.546482
vt 0.025067 0.415159
vt 0.023412 0.245823
vt 0.155407 0.112191
vt 0.398172 0.109839
vn 0.000000 -0.397414 0.917640
vn 0.000000 -0.397414 0.917640
vn 0.000000 -0.267118 0.963664
vn 0.000000 -0.264749 0.964317
vn 0.000000 1.000000 0.000000
vn 0.000000 1.000000 0.000000
vn 0.000000 1.000000 0.000000
vn 0.000000 1.000000 0.000000
vn 0.000000 -0.264752 -0.964316
vn 0.000000 -0.267122 -0.963663
vn 0.000000 -0.397406 -0.917643
vn 0.000000 -0.397406 -0.917643
vn 0.000000 -1.000000 0.000000
vn 0.000000 -1.000000 0.000000
vn 0.000000 -1.000000 0.000000
vn 0.000000 -1.000000 0.000000
vn 0.846735 -0.532015 0.000000
vn 0.846735 -0.532015 0.000000
vn 0.927894 -0.372845 0.000000
vn 0.929015 -0.370042 0.000000
vn -0.927894 -0.372845 0.000000
vn -0.846734 -0.532017 0.000000
vn -0.846734 -0.532017 0.000000
vn -0.929015 -0.370042 0.000000
vn -0.951895 -0.306426 0.000000
vn -0.942207 -0.335032 0.000000
vn -0.942413 -0.334451 0.000000
vn -0.951895 -0.306425 -0.000001
vn 0.000000 -0.216618 -0.976256
vn 0.000000 -0.216618 -0.976256
vn 0.000000 -0.238089 -0.971243
vn 0.000000 -0.237611 -0.971360
vn 0.942413 -0.334452 0.000000
vn 0.942207 -0.335033 0.000000
vn 0.951894 -0.306426 0.000000
vn 0.951894 -0.306426 0.000000
vn 0.000000 -0.237607 0.971361
vn 0.000000 -0.238085 0.971244
vn 0.000000 -0.216618 0.976256
vn 0.000000 -0.216618 0.976256
vn -0.942207 -0.335032 0.000000
vn -0.927894 -0.372845 0.000000
vn -0.929015 -0.370042 0.000000
vn -0.942413 -0.334451 0.000000
vn 0.000000 -0.264749 0.964317
vn 0.000000 -0.267118 0.963664
vn 0.000000 -0.238085 0.971244
vn 0.000000 -0.237607 0.971361
vn 0.929015 -0.370042 0.000000
vn 0.927894 -0.372845 0.000000
vn 0.942207 -0.335033 0.000000
vn 0.942413 -0.334452 0.000000
vn 0.000000 -0.237611 -0.971360
vn 0.000000 -0.238089 -0.971243
vn 0.000000 -0.267122 -0.963663
vn 0.000000 -0.264752 -0.964316
vn -0.942413 -0.334451 0.000000
vn -0.942188 -0.335085 0.000000
vn -0.951895 -0.306426 0.000000
vn -0.951895 -0.306426 0.000000
vn -0.929015 -0.370042 0.000000
vn -0.927786 -0.373113 0.000000
vn -0.942188 -0.335085 0.000000
vn -0.942413 -0.334451 0.000000
vn -0.846734 -0.532017 0.000000
vn -0.846734 -0.532017 0.000000
vn -0.927786 -0.373113 0.000000
vn -0.929015 -0.370042 0.000000
vn 0.000000 -1.000000 0.000000
vn 0.000000 -1.000000 0.000000
vn 0.000000 -1.000000 0.000000
vn 0.000000 -1.000000 0.000000
vn 0.927786 -0.373113 0.000000
vn 0.846735 -0.532015 0.000000
vn 0.846735 -0.532015 0.000000
vn 0.929015 -0.370041 0.000000
vn 0.942188 -0.335085 0.000000
vn 0.927786 -0.373113 0.000000
vn 0.929015 -0.370041 0.000000
vn 0.942413 -0.334452 0.000000
vn 0.951894 -0.306426 0.000000
vn 0.942188 -0.335085 0.000000
vn 0.942413 -0.334452 0.000000
vn 0.951894 -0.306427 0.000000
vn 0.000000 1.000000 0.000000
vn 0.000000 1.000000 0.000000
vn 0.000000 1.000000 0.000000
vn 0.000000 1.000000 0.000000
vn -0.951895 -0.306426 0.000000
vn -0.942188 -0.335085 0.000000
vn -0.942207 -0.335032 0.000000
vn -0.951895 -0.306426 0.000000
vn -0.942188 -0.335085 0.000000
vn -0.927786 -0.373113 0.000000
vn -0.927894 -0.372845 0.000000
vn -0.942207 -0.335032 0.000000
vn -0.927786 -0.373113 0.000000
vn -0.846734 -0.532017 0.000000
vn -0.846734 -0.532017 0.000000
vn -0.927894 -0.372845 0.000000
vn 0.000000 -1.000000 0.000000
vn 0.000000 -1.000000 0.000000
vn 0.000000 -1.000000 0.000000
vn 0.000000 -1.000000 0.000000
vn 0.927894 -0.372845 0.000000
vn 0.846735 -0.532015 0.000000
vn 0.846735 -0.532015 0.000000
vn 0.927786 -0.373113 0.000000
vn 0.942207 -0.335033 0.000000
vn 0.927894 -0.372845 0.000000
vn 0.927786 -0.373113 0.000000
vn 0.942188 -0.335085 0.000000
vn 0.951894 -0.306426 0.000000
vn 0.942207 -0.335033 0.000000
vn 0.942188 -0.335085 0.000000
vn 0.951894 -0.306426 0.000000
vn 0.000000 1.000000 0.000000
vn 0.000000 1.000000 0.000000
vn 0.000000 1.000000 0.000000
vn 0.000000 1.000000 0.000000
vn 0.000000 -0.266912 0.963721
vn 0.000000 -0.397414 0.917640
vn 0.000000 -0.397414 0.917640
vn 0.000000 -0.264749 0.964317
vn 0.000000 -0.238046 0.971254
vn 0.000000 -0.266912 0.963721
vn 0.000000 -0.264749 0.964317
vn 0.000000 -0.237607 0.971361
vn 0.000000 -0.216618 0.976256
vn 0.000000 -0.238046 0.971254
vn 0.000000 -0.237607 0.971361
vn 0.000000 -0.216618 0.976256
vn 0.000000 1.000000 0.000000
vn 0.000000 1.000000 0.000000
vn 0.000000 1.000000 0.000000
vn 0.000000 1.000000 0.000000
vn 0.000000 1.000000 0.000000
vn 0.000000 1.000000 0.000000
vn 0.000000 1.000000 0.000000
vn 0.000000 1.000000 0.000000
vn 0.000000 1.000000 0.000000
vn 0.000000 1.000000 0.000000
vn 0.000000 1.000000 0.000000
vn 0.000000 1.000000 0.000000
vn 0.000000 -0.238050 -0.971253
vn 0.000000 -0.216618 -0.976256
vn 0.000000 -0.216618 -0.976256
vn 0.000000 -0.237611 -0.971360
vn 0.000000 -0.266915 -0.963720
vn 0.000000 -0.238050 -0.971253
vn 0.000000 -0.237611 -0.971360
vn 0.000000 -0.264752 -0.964316
vn 0.000000 -0.397406 -0.917643
vn 0.000000 -0.266915 -0.963720
vn 0.000000 -0.264752 -0.964316
vn 0.000000 -0.397406 -0.917643
vn 0.000000 -1.000000 0.000000
vn 0.000000 -1.000000 0.000000
vn 0.000000 -1.000000 0.000000
vn 0.000000 -1.000000 0.000000
vn 0.000000 -1.000000 0.000000
vn 0.000000 -1.000000 0.000000
vn 0.000000 -1.000000 0.000000
vn 0.000000 -1.000000 0.000000
vn 0.000000 -1.000000 0.000000
vn 0.000000 -1.000000 0.000000
vn 0.000000 -1.000000 0.000000
vn 0.000000 -1.000000 0.000000
vn 0.000000 -0.267118 0.963664
vn 0.000000 -0.397414 0.917640
vn 0.000000 -0.397414 0.917640
vn 0.000000 -0.266912 0.963721
vn 0.000000 -1.000000 0.000000
vn 0.000000 -1.000000 0.000000
vn 0.000000 -1.000000 0.000000
vn 0.000000 -1.000000 0.000000
vn 0.000000 -1.000000 0.000000
vn 0.000000 -1.000000 0.000000
vn 0.000000 -1.000000 0.000000
vn 0.000000 -1.000000 0.000000
vn 0.000000 -1.000000 0.000000
vn 0.000000 -1.000000 0.000000
vn 0.000000 -1.000000 0.000000
vn 0.000000 -1.000000 0.000000
vn 0.000000 -0.397406 -0.917643
vn 0.000000 -0.267122 -0.963663
vn 0.000000 -0.266915 -0.963720
vn 0.000000 -0.397406 -0.917643
vn 0.000000 -0.267122 -0.963663
vn 0.000000 -0.238089 -0.971243
vn 0.000000 -0.238050 -0.971253
vn 0.000000 -0.266915 -0.963720
vn 0.000000 -0.238089 -0.971243
vn 0.000000 -0.216618 -0.976256
vn 0.000000 -0.216618 -0.976256
vn 0.000000 -0.238050 -0.971253
vn 0.000000 1.000000 0.000000
vn 0.000000 1.000000 0.000000
vn 0.000000 1.000000 0.000000
vn 0.000000 1.000000 0.000000
vn 0.000000 1.000000 0.000000
vn 0.000000 1.000000 0.000000
vn 0.000000 1.000000 0.000000
vn 0.000000 1.000000 0.000000
vn 0.000000 1.000000 0.000000
vn 0.000000 1.000000 0.000000
vn 0.000000 1.000000 0.000000
vn 0.000000 1.000000 0.000000
vn 0.000000 -0.216618 0.976256
vn 0.000000 -0.238085 0.971244
vn 0.000000 -0.238046 0.971254
vn 0.000000 -0.216618 0.976256
vn 0.000000 -0.238085 0.971244
vn 0.000000 -0.267118 0.963664
vn 0.000000 -0.266912 0.963721
vn 0.000000 -0.238046 0.971254
vn 0.954402 0.298525 0.000000
vn 0.954402 0.298525 0.000000
vn 0.954402 0.298525 0.000000
vn 0.954402 0.298525 0.000000
vn 0.000000 0.210755 -0.977539
vn 0.000000 0.210755 -0.977539
vn 0.000000 0.210755 -0.977539
vn 0.000000 0.210755 -0.977539
vn -0.954402 0.298525 -0.000000
vn -0.954402 0.298525 -0.000000
vn -0.954402 0.298525 -0.000000
vn -0.954402 0.298525 -0.000000
vn 0.000000 0.210753 0.977539
vn 0.000000 0.210753 0.977539
vn 0.000000 0.210753 0.977539
vn 0.000000 0.210753 0.977539
s off
g Water_Bucket:pCube254
usemtl initialShadingGroup
f 1/1/1 33/2/2 34/3/3 9/4/4
f 3/5/5 36/6/6 37/7/7 25/8/8
f 10/9/9 41/10/10 42/11/11 7/12/12
f 28/13/13 44/14/14 33/15/15 1/16/16
f 2/17/17 29/18/18 30/19/19 12/20/20
f 27/21/21 28/13/22 1/16/23 9/22/24
f 25/23/25 26/24/26 14/25/27 3/26/28
f 5/27/29 39/28/30 40/29/31 13/30/32
f 15/31/33 31/32/34 32/33/35 4/34/36
f 14/35/37 35/36/38 36/37/39 3/38/40
f 26/24/41 27/21/42 9/22/43 14/25/44
f 9/4/45 34/3/46 35/36/47 14/35/48
f 12/20/49 30/19/50 31/32/51 15/31/52
f 13/30/53 40/29/54 41/10/55 10/9/56
f 13/39/57 18/40/58 17/41/59 5/42/60
f 10/43/61 19/44/62 18/40/63 13/39/64
f 7/45/65 20/46/66 19/44/67 10/43/68
f 7/45/69 42/47/70 43/48/71 20/46/72
f 22/49/73 21/50/74 8/51/75 11/52/76
f 23/53/77 22/49/78 11/52/79 16/54/80
f 24/55/81 23/53/82 16/54/83 6/56/84
f 17/57/85 38/58/86 39/59/87 5/60/88
f 17/41/89 18/40/90 26/24/91 25/23/92
f 18/40/93 19/44/94 27/21/95 26/24/96
f 19/44/97 20/46/98 28/13/99 27/21/100
f 20/46/101 43/48/102 44/14/103 28/13/104
f 30/19/105 29/18/106 21/50/107 22/49/108
f 31/32/109 30/19/110 22/49/111 23/53/112
f 32/33/113 31/32/114 23/53/115 24/55/116
f 25/8/117 37/7/118 38/58/119 17/57/120
f 45/61/121 46/62/122 2/63/123 12/64/124
f 56/65/125 45/61/126 12/64/127 15/66/128
f 55/67/129 56/65/130 15/66/131 4/68/132
f 54/69/133 55/70/134 4/71/135 32/72/136
f 53/73/137 54/69/138 32/72/139 24/74/140
f 52/75/141 53/73/142 24/74/143 6/76/144
f 51/77/145 52/78/146 6/79/147 16/80/148
f 50/81/149 51/77/150 16/80/151 11/82/152
f 49/83/153 50/81/154 11/82/155 8/84/156
f 48/85/157 49/86/158 8/51/159 21/50/160
f 47/87/161 48/85/162 21/50/163 29/18/164
f 46/88/165 47/87/166 29/18/167 2/17/168
f 34/3/169 33/2/170 46/62/171 45/61/172
f 33/15/173 44/14/174 47/87/175 46/88/176
f 44/14/177 43/48/178 48/85/179 47/87/180
f 43/48/181 42/47/182 49/86/183 48/85/184
f 42/11/185 41/10/186 50/81/187 49/83/188
f 41/10/189 40/29/190 51/77/191 50/81/192
f 40/29/193 39/28/194 52/78/195 51/77/196
f 39/59/197 38/58/198 53/73/199 52/75/200
f 58/89/201 57/90/202 59/91/203 60/92/204
f 37/7/205 36/6/206 55/70/207 54/69/208
f 36/37/209 35/36/210 56/65/211 55/67/212
f 35/36/213 34/3/214 45/61/215 56/65/216
f 38/93/217 37/94/218 57/90/219 58/89/220
f 37/95/221 54/96/222 59/91/223 57/90/224
f 54/97/225 53/98/226 60/92/227 59/91/228
f 53/99/229 38/100/230 58/89/231 60/92/232
