# This file uses centimeters as units for non-parametric coordinates.

mtllib Wood_Plank_01.mtl
g default
v 0.113761 -0.508808 -0.233776
v 1.064379 -0.508808 -0.233776
v 0.130544 0.500000 -0.239912
v 1.047596 0.500000 -0.239912
v 0.130544 0.500000 -0.484836
v 1.047596 0.500000 -0.484836
v 0.113761 -0.508808 -0.490972
v 1.064379 -0.508808 -0.490972
v 0.093937 -1.631424 -0.500000
v 1.084202 -1.492228 -0.500000
v 1.084202 -1.492228 -0.224748
v 0.093937 -1.631424 -0.224748
vt 0.454904 0.478260
vt 0.102612 0.478260
vt 0.102612 0.112784
vt 0.454904 0.112784
vt 0.015334 0.112784
vt 0.604671 0.099552
vt 0.015334 0.478260
vt 0.604671 0.489552
vt 0.454904 0.959799
vt 0.015334 0.859652
vt 0.102613 0.859652
vt 0.454904 0.859652
vt 0.604672 0.896652
vt 0.973347 0.896652
vt 0.973347 0.489552
vt 0.549199 0.478260
vt 0.973347 0.099552
vt 0.454904 0.025082
vt 0.549199 0.859652
vt 0.102613 0.959799
vt 0.102612 0.025082
vt 0.549199 0.112784
vn 0.000000 0.006083 0.999982
vn 0.000000 0.006083 0.999982
vn 0.000000 0.006083 0.999982
vn 0.000000 0.006083 0.999982
vn 0.000000 1.000000 0.000000
vn 0.000000 1.000000 0.000000
vn 0.000000 1.000000 0.000000
vn 0.000000 1.000000 0.000000
vn 0.000000 0.006083 -0.999982
vn 0.000000 0.006083 -0.999982
vn 0.000000 0.006083 -0.999982
vn 0.000000 0.006083 -0.999982
vn 0.139196 -0.990265 0.000000
vn 0.139196 -0.990265 0.000000
vn 0.139196 -0.990265 0.000000
vn 0.139196 -0.990265 0.000000
vn 0.999862 0.016634 0.000000
vn 0.999862 0.016634 0.000000
vn 0.999862 0.016634 0.000000
vn 0.999862 0.016634 0.000000
vn -0.999862 0.016634 0.000000
vn -0.999862 0.016634 0.000000
vn -0.999862 0.016634 0.000000
vn -0.999862 0.016634 0.000000
vn -0.000615 0.008573 -0.999963
vn -0.000615 0.008573 -0.999963
vn -0.000615 0.008573 -0.999963
vn -0.000615 0.008573 -0.999963
vn 0.999797 0.020154 0.000000
vn 0.999797 0.020154 0.000000
vn 0.999797 0.020154 0.000000
vn 0.999797 0.020154 0.000000
vn -0.000615 0.008573 0.999963
vn -0.000615 0.008573 0.999963
vn -0.000615 0.008573 0.999963
vn -0.000615 0.008573 0.999963
vn -0.999844 0.017656 0.000000
vn -0.999844 0.017656 0.000000
vn -0.999844 0.017656 0.000000
vn -0.999844 0.017656 0.000000
s off
g pCube2
usemtl initialShadingGroup
f 1/1/1 2/2/2 4/3/3 3/4/4
f 3/4/5 4/3/6 6/21/7 5/18/8
f 5/6/9 6/17/10 8/15/11 7/8/12
f 9/9/13 10/20/14 11/11/15 12/12/16
f 2/2/17 8/7/18 6/5/19 4/3/20
f 7/16/21 1/1/22 3/4/23 5/22/24
f 7/8/25 8/15/26 10/14/27 9/13/28
f 8/7/29 2/2/30 11/11/31 10/10/32
f 2/2/33 1/1/34 12/12/35 11/11/36
f 1/1/37 7/16/38 9/19/39 12/12/40
