# Blender 4.1.1
# www.blender.org
mtllib woodenScrapV2.mtl
o BigBrush_2
v -0.173218 0.196825 0.053695
v 0.174100 0.196825 0.053695
v -0.209882 0.426465 0.060842
v 0.210763 0.426465 0.060842
v -0.209882 0.426465 -0.021153
v 0.210763 0.426465 -0.021153
v -0.173218 0.196825 -0.014007
v 0.174100 0.196825 -0.014007
v -0.261312 0.311645 0.070867
v -0.261312 0.311645 -0.031178
v 0.262196 0.311645 -0.031178
v 0.262196 0.311645 0.070867
v -0.103755 0.196825 0.053695
v -0.156611 0.311645 0.070867
v -0.125751 0.413709 0.060842
v -0.125751 0.413709 -0.021153
v -0.156611 0.311645 -0.031178
v -0.103755 0.196825 -0.014007
v -0.141172 0.311645 0.070867
v -0.093512 0.196825 0.053695
v -0.093512 0.196825 -0.014007
v -0.141172 0.311645 -0.031178
v -0.113348 0.418238 -0.021153
v -0.113348 0.418238 0.060842
v 0.060512 0.311645 0.070867
v 0.040294 0.196825 0.053695
v 0.040294 0.196825 -0.014007
v 0.060512 0.311645 -0.031178
v 0.048707 0.406820 -0.021153
v 0.048707 0.406820 0.060842
v -0.186882 0.214634 0.056358
v -0.186882 0.214634 -0.016670
v -0.111954 0.214634 -0.016670
v -0.100904 0.214634 -0.016670
v 0.043429 0.214634 -0.016670
v 0.187762 0.214634 -0.016670
v 0.187762 0.214634 0.056358
v 0.043429 0.214634 0.056358
v -0.100904 0.214634 0.056358
v -0.111954 0.214634 0.056358
v 0.078490 0.311645 0.070867
v 0.056297 0.214634 0.056358
v 0.052223 0.196825 0.053695
v 0.052223 0.196825 -0.014007
v 0.056297 0.214634 -0.016670
v 0.078490 0.311645 -0.031178
v 0.063155 0.412299 -0.021153
v 0.063155 0.412299 0.060842
v 0.207084 0.311645 0.070867
v 0.148324 0.214634 0.056358
v 0.137537 0.196825 0.053695
v 0.137537 0.196825 -0.014007
v 0.148324 0.214634 -0.016670
v 0.207084 0.311645 -0.031178
v 0.166481 0.416753 -0.021153
v 0.166481 0.416753 0.060842
v 0.129702 0.196825 0.053695
v 0.139872 0.214634 0.056358
v 0.195275 0.311645 0.070867
v 0.156991 0.421304 0.060842
v 0.156991 0.421304 -0.021153
v 0.195275 0.311645 -0.031178
v 0.139872 0.214634 -0.016670
v 0.129702 0.196825 -0.014007
v -0.039540 -0.400749 0.044159
v 0.039722 -0.400749 0.044159
v -0.145034 0.034304 0.056426
v 0.145217 0.034304 0.056426
v -0.145034 0.034304 -0.022870
v 0.145217 0.034304 -0.022870
v -0.039540 -0.400749 -0.015297
v 0.039722 -0.400749 -0.015297
v -0.104297 -0.097775 0.046574
v -0.104297 -0.097775 -0.013018
v 0.104478 -0.097775 -0.013018
v 0.104478 -0.097775 0.046574
v -0.039814 -0.260565 0.044159
v -0.039814 -0.260565 -0.015297
v 0.039997 -0.260565 -0.015297
v 0.039997 -0.260565 0.044159
v 0.000092 -0.445440 0.044159
v 0.000092 -0.260565 0.044159
v 0.000092 -0.097775 0.046574
v 0.000092 0.034304 0.056426
v 0.000092 0.034304 -0.022870
v 0.000092 -0.097775 -0.013018
v 0.000092 -0.260565 -0.015297
v 0.000092 -0.445440 -0.015297
v -0.160530 0.043661 0.016778
v -0.115441 -0.094089 0.016778
v -0.044074 -0.260565 0.016778
v -0.043772 -0.408363 0.016778
v 0.000092 -0.454798 0.016778
v 0.043954 -0.408363 0.016778
v 0.044257 -0.260565 0.016778
v 0.115623 -0.094089 0.016778
v 0.160712 0.043661 0.016778
v -0.059565 -0.159758 -0.015297
v -0.065933 -0.159758 0.016778
v -0.059565 -0.159758 0.044159
v 0.000092 -0.159758 0.044159
v 0.059746 -0.159758 0.044159
v 0.066115 -0.159758 0.016778
v 0.059746 -0.159758 -0.015297
v 0.000092 -0.159758 -0.015297
v -0.157245 0.032862 0.057221
v 0.155655 0.032862 0.057221
v -0.247430 0.208281 0.080904
v 0.245840 0.208281 0.080904
v -0.247430 0.208281 -0.048634
v 0.245840 0.208281 -0.048634
v -0.157245 0.032862 -0.024950
v 0.155655 0.032862 -0.024950
v -0.222374 0.126385 0.074326
v -0.222374 0.126385 -0.042054
v 0.220784 0.126385 -0.042054
v 0.220784 0.126385 0.074326
v -0.202837 0.091048 0.069194
v -0.202837 0.091048 -0.036923
v 0.201245 0.091048 -0.036923
v 0.201245 0.091048 0.069194
v -0.181188 0.092941 0.063509
v -0.181188 0.092941 -0.031238
v -0.198633 0.124492 0.068090
v -0.198633 0.124492 -0.035819
v 0.197042 0.124492 -0.035819
v 0.179597 0.092941 -0.031238
v 0.179597 0.092941 0.063509
v 0.197042 0.124492 0.068090
vn -0.5159 -0.4999 0.6957
vn -0.0000 -0.1479 0.9890
vn -0.5323 -0.5095 0.6760
vn -0.4872 0.6338 0.6008
vn 0.0480 0.6145 0.7875
vn 0.0480 0.6145 -0.7875
vn -0.4872 0.6338 -0.6008
vn -0.5323 -0.5095 -0.6760
vn -0.0000 -0.1479 -0.9890
vn -0.5159 -0.4999 -0.6957
vn 0.6642 -0.5801 0.4715
vn 0.6642 -0.5801 -0.4715
vn 0.6743 -0.5848 -0.4508
vn 0.6743 -0.5848 0.4508
vn -0.8101 -0.0728 -0.5817
vn -0.8101 -0.0728 0.5817
vn 0.0022 -0.0219 -0.9998
vn 0.9303 -0.0818 0.3576
vn 0.9303 -0.0818 -0.3576
vn 0.6752 0.6039 -0.4236
vn 0.6752 0.6039 0.4236
vn 0.0022 -0.0220 0.9998
vn -0.0514 0.5969 0.8007
vn -0.0029 -0.0220 0.9998
vn -0.0514 0.5969 -0.8007
vn -0.0029 -0.0220 -0.9998
vn 0.0228 0.6087 -0.7931
vn 0.0007 -0.0140 -0.9999
vn 0.0228 0.6087 0.7931
vn 0.0007 -0.0140 0.9999
vn 0.0185 0.5957 -0.8030
vn 0.0006 -0.0178 -0.9998
vn 0.0185 0.5957 0.8030
vn 0.0006 -0.0178 0.9998
vn -0.0028 -0.0209 0.9998
vn -0.0029 -0.0210 -0.9998
vn -0.0792 0.6331 -0.7700
vn -0.0792 0.6331 0.7700
vn -0.0004 -0.0119 0.9999
vn -0.0004 -0.0119 -0.9999
vn -0.0244 0.5870 -0.8092
vn -0.0244 0.5870 0.8092
vn -0.4609 -0.0860 0.8833
vn -0.0000 -0.3527 0.9357
vn -0.0000 -0.0000 1.0000
vn -0.4490 -0.0383 0.8927
vn -0.5075 -0.0433 -0.8606
vn -0.0000 -0.0000 -1.0000
vn -0.0000 -0.3986 -0.9171
vn -0.5140 -0.0982 -0.8522
vn -0.9675 -0.2529 -0.0010
vn -0.0000 -1.0000 -0.0043
vn 0.4609 -0.0860 0.8833
vn 0.9675 -0.2529 -0.0010
vn 0.9962 -0.0868 0.0001
vn 0.9822 -0.0837 0.1681
vn -0.9962 -0.0868 0.0001
vn -0.9497 -0.3132 -0.0000
vn -0.9219 -0.3875 -0.0000
vn -0.2485 -0.1775 0.9522
vn -0.3348 -0.1715 0.9265
vn -0.3349 -0.1715 -0.9265
vn -0.0000 -0.0744 -0.9972
vn -0.0000 -0.0483 -0.9988
vn -0.2574 -0.1743 -0.9505
vn 0.8740 -0.4088 0.2627
vn 0.9219 -0.3875 -0.0000
vn 0.9497 -0.3132 -0.0000
vn 0.9082 -0.2996 0.2922
vn -0.0000 -0.0660 0.9978
vn -0.0000 -0.0744 0.9972
vn -0.9199 -0.3922 0.0003
vn -0.3375 -0.1583 0.9279
vn -0.0000 0.0184 -0.9998
vn -0.3753 -0.1278 -0.9181
vn 0.9075 -0.3704 0.1981
vn 0.9199 -0.3922 0.0003
vn -0.0000 -0.0195 0.9998
vn -0.0000 -0.0239 0.9997
vn -0.0000 -0.0696 0.9976
vn -0.0000 -0.0594 -0.9982
vn -0.0000 0.0229 -0.9997
vn 0.5140 -0.0982 -0.8522
vn 0.9860 -0.0841 -0.1441
vn 0.9166 -0.3590 -0.1757
vn 0.8735 -0.4146 -0.2552
vn 0.9082 -0.2996 -0.2922
vn -0.0000 -0.2015 0.9795
vn -0.0000 1.0000 -0.0000
vn -0.0000 -0.2016 -0.9795
vn -0.0000 -1.0000 -0.0000
vn 0.7872 -0.6167 -0.0000
vn -0.7871 -0.6168 -0.0000
vn -0.9562 -0.2926 -0.0000
vn -0.0000 -0.0801 -0.9968
vn 0.9562 -0.2926 -0.0000
vn -0.0000 -0.0801 0.9968
vn -0.8751 -0.4839 -0.0000
vn -0.0000 -0.1437 -0.9896
vn 0.8751 -0.4839 -0.0000
vn -0.0000 -0.1437 0.9896
vn -0.0871 0.9962 -0.0000
vn -0.0795 -0.9968 -0.0000
vn -0.0000 -0.9569 -0.2905
vn -0.0000 0.9488 -0.3159
vn 0.0871 0.9962 -0.0000
vn 0.0795 -0.9968 -0.0000
vn -0.0000 0.9488 0.3159
vn -0.0000 -0.9569 0.2905
vt 0.089263 0.684712
vt 0.124145 0.684945
vt 0.119968 0.693961
vt 0.082341 0.693709
vt 0.120527 0.628463
vt 0.143081 0.628463
vt 0.143196 0.650755
vt 0.120642 0.650755
vt 0.273737 0.838341
vt 0.233560 0.838809
vt 0.229051 0.829205
vt 0.266298 0.828771
vt 0.305243 0.628463
vt 0.305338 0.650755
vt 0.299393 0.650755
vt 0.299290 0.628463
vt 0.048926 0.650755
vt 0.048831 0.628463
vt 0.054777 0.628463
vt 0.054880 0.650755
vt 0.087309 0.650755
vt 0.087166 0.628463
vt 0.287408 0.952595
vt 0.242214 0.946312
vt 0.258120 0.891127
vt 0.314262 0.890471
vt 0.266860 0.628463
vt 0.267004 0.650755
vt 0.233642 0.650755
vt 0.233527 0.628463
vt 0.044633 0.742717
vt 0.097212 0.743070
vt 0.112365 0.794675
vt 0.070071 0.800770
vt 0.270477 0.694956
vt 0.250673 0.694826
vt 0.245315 0.685748
vt 0.263676 0.685869
vt 0.259124 0.797169
vt 0.279858 0.744279
vt 0.307534 0.744458
vt 0.281334 0.802171
vt 0.221626 0.650755
vt 0.221511 0.628463
vt 0.063097 0.893389
vt 0.085518 0.949755
vt 0.061829 0.955214
vt 0.033546 0.893728
vt 0.099671 0.830706
vt 0.093998 0.840429
vt 0.072851 0.840672
vt 0.080066 0.830932
vt 0.125516 0.693998
vt 0.129288 0.684979
vt 0.227636 0.838878
vt 0.223560 0.829269
vt 0.235587 0.948806
vt 0.249841 0.891224
vt 0.146580 0.628463
vt 0.146695 0.650755
vt 0.104965 0.743122
vt 0.118582 0.796980
vt 0.197997 0.694479
vt 0.196483 0.685426
vt 0.150243 0.839778
vt 0.151812 0.830102
vt 0.148619 0.943724
vt 0.141693 0.892481
vt 0.189640 0.628463
vt 0.189756 0.650755
vt 0.206249 0.743795
vt 0.200003 0.791816
vt 0.204459 0.694522
vt 0.215279 0.743855
vt 0.202473 0.685465
vt 0.143343 0.839858
vt 0.145416 0.830177
vt 0.132052 0.892593
vt 0.140901 0.946738
vt 0.193736 0.628463
vt 0.193851 0.650755
vt 0.207245 0.794602
vt 0.246428 0.694799
vt 0.273928 0.744240
vt 0.241380 0.685722
vt 0.098531 0.840376
vt 0.103872 0.830658
vt 0.069429 0.893316
vt 0.090640 0.952125
vt 0.218722 0.628463
vt 0.218837 0.650755
vt 0.254338 0.799412
vt 0.107916 0.174244
vt 0.142319 0.135655
vt 0.142097 0.295854
vt 0.107557 0.295813
vt 0.479916 0.310360
vt 0.445376 0.310306
vt 0.445595 0.150107
vt 0.479892 0.188790
vt 0.687058 0.673952
vt 0.687146 0.657783
vt 0.696118 0.657783
vt 0.696118 0.673952
vt 0.696118 0.641614
vt 0.687233 0.641614
vt 0.687451 0.603790
vt 0.696118 0.603790
vt 0.686841 0.711776
vt 0.696118 0.711776
vt 0.686349 0.797095
vt 0.686564 0.759761
vt 0.696118 0.759761
vt 0.696118 0.797095
vt 0.570633 0.566379
vt 0.445025 0.566207
vt 0.445182 0.451573
vt 0.535531 0.451697
vt 0.696118 0.555805
vt 0.687728 0.555805
vt 0.687943 0.518471
vt 0.696118 0.518471
vt 0.051552 0.436996
vt 0.141901 0.437121
vt 0.141742 0.551755
vt 0.016134 0.551581
vt 0.686686 0.738939
vt 0.696118 0.738939
vt 0.445256 0.397730
vt 0.496888 0.397802
vt 0.696118 0.576627
vt 0.687606 0.576627
vt 0.090343 0.383208
vt 0.141976 0.383278
vt 0.176616 0.174339
vt 0.176637 0.295909
vt 0.193608 0.383351
vt 0.232250 0.437247
vt 0.267351 0.551929
vt 0.319416 0.566034
vt 0.354833 0.451449
vt 0.393623 0.397660
vt 0.410836 0.310265
vt 0.411192 0.188696
vt 0.678174 0.759761
vt 0.678174 0.797095
vt 0.678174 0.738939
vt 0.678174 0.673952
vt 0.678174 0.711776
vt 0.678174 0.657783
vt 0.676719 0.641614
vt 0.678174 0.603790
vt 0.678174 0.576627
vt 0.678174 0.555805
vt 0.678174 0.518471
vt 0.597181 0.248518
vt 0.805173 0.251431
vt 0.834925 0.291343
vt 0.566321 0.287581
vt 0.594337 0.359789
vt 0.812208 0.358841
vt 0.812457 0.416057
vt 0.594586 0.417004
vt 0.568193 0.153984
vt 0.836796 0.157746
vt 0.805938 0.196810
vt 0.597947 0.193896
vt 0.855186 0.189539
vt 0.854197 0.260078
vt 0.547933 0.255787
vt 0.548921 0.185249
vt 0.556745 0.414263
vt 0.556522 0.362859
vt 0.801549 0.452394
vt 0.605810 0.453245
vt 0.850048 0.361582
vt 0.850272 0.412986
vt 0.605245 0.323452
vt 0.800984 0.322600
vt 0.804640 0.769192
vt 0.962778 0.766817
vt 0.971328 0.826876
vt 0.797898 0.829481
vt 0.343973 0.906213
vt 0.770498 0.906300
vt 0.751686 0.940664
vt 0.362772 0.940584
vt 0.809414 0.876227
vt 0.967552 0.873851
vt 0.976102 0.933910
vt 0.802671 0.936515
vt 0.356854 0.842850
vt 0.752080 0.844681
vt 0.771028 0.879694
vt 0.337581 0.877686
vt 0.359499 0.802722
vt 0.359015 0.729431
vt 0.373960 0.733440
vt 0.374375 0.798514
vt 0.355134 0.691827
vt 0.354735 0.632843
vt 0.366766 0.636044
vt 0.367111 0.688463
vt 0.578390 0.631329
vt 0.566412 0.634694
vt 0.637173 0.800891
vt 0.622230 0.796881
vt 0.636690 0.727600
vt 0.621815 0.731807
vt 0.578789 0.690314
vt 0.566757 0.687113
s 1
usemtl initialShadingGroup
f 1/1/1 13/2/2 40/3/2 31/4/3
f 3/5/4 15/6/5 16/7/6 5/8/7
f 32/9/8 33/10/9 18/11/9 7/12/10
f 2/13/11 8/14/12 36/15/13 37/16/14
f 7/17/10 1/18/1 31/19/3 32/20/8
f 10/21/15 9/22/16 3/5/4 5/8/7
f 5/23/7 16/24/6 17/25/17 10/26/15
f 12/27/18 11/28/19 6/29/20 4/30/21
f 9/31/16 14/32/22 15/33/5 3/34/4
f 37/35/14 50/36/2 51/37/2 2/38/11
f 56/39/23 49/40/24 12/41/18 4/42/21
f 55/43/25 56/44/23 4/30/21 6/29/20
f 54/45/26 55/46/25 6/47/20 11/48/19
f 52/49/9 53/50/9 36/51/13 8/52/12
f 39/53/2 40/3/2 13/2/2 20/54/2
f 18/11/9 33/10/9 34/55/9 21/56/9
f 17/25/17 16/24/6 23/57/27 22/58/28
f 16/7/6 15/6/5 24/59/29 23/60/27
f 15/33/5 14/32/22 19/61/30 24/62/29
f 38/63/2 39/53/2 20/54/2 26/64/2
f 21/56/9 34/55/9 35/65/9 27/66/9
f 22/58/28 23/57/27 29/67/31 28/68/32
f 23/60/27 24/59/29 30/69/33 29/70/31
f 24/62/29 19/61/30 25/71/34 30/72/33
f 32/20/8 31/19/3 9/22/16 10/21/15
f 10/26/15 17/25/17 33/10/9 32/9/8
f 34/55/9 33/10/9 17/25/17 22/58/28
f 35/65/9 34/55/9 22/58/28 28/68/32
f 36/51/13 53/50/9 54/45/26 11/48/19
f 37/16/14 36/15/13 11/28/19 12/27/18
f 49/40/24 50/36/2 37/35/14 12/41/18
f 19/61/30 39/53/2 38/63/2 25/71/34
f 14/32/22 40/3/2 39/53/2 19/61/30
f 31/4/3 40/3/2 14/32/22 9/31/16
f 25/71/34 38/63/2 42/73/2 41/74/35
f 43/75/2 42/73/2 38/63/2 26/64/2
f 27/66/9 35/65/9 45/76/9 44/77/9
f 46/78/36 45/76/9 35/65/9 28/68/32
f 28/68/32 29/67/31 47/79/37 46/78/36
f 29/70/31 30/69/33 48/80/38 47/81/37
f 30/72/33 25/71/34 41/74/35 48/82/38
f 41/74/35 42/73/2 58/83/2 59/84/39
f 57/85/2 58/83/2 42/73/2 43/75/2
f 44/77/9 45/76/9 63/86/9 64/87/9
f 62/88/40 63/86/9 45/76/9 46/78/36
f 46/78/36 47/79/37 61/89/41 62/88/40
f 47/81/37 48/80/38 60/90/42 61/91/41
f 48/82/38 41/74/35 59/84/39 60/92/42
f 51/37/2 50/36/2 58/83/2 57/85/2
f 59/84/39 58/83/2 50/36/2 49/40/24
f 60/92/42 59/84/39 49/40/24 56/39/23
f 61/91/41 60/90/42 56/44/23 55/43/25
f 62/88/40 61/89/41 55/46/25 54/45/26
f 54/45/26 53/50/9 63/86/9 62/88/40
f 64/87/9 63/86/9 53/50/9 52/49/9
f 65/93/43 81/94/44 82/95/45 77/96/46
f 78/97/47 87/98/48 88/99/49 71/100/50
f 92/101/51 93/102/52 81/103/44 65/104/43
f 66/105/53 94/106/54 95/107/55 80/108/56
f 91/109/57 92/101/51 65/104/43 77/110/46
f 89/111/58 90/112/59 73/113/60 67/114/61
f 69/115/62 85/116/63 86/117/64 74/118/65
f 76/119/66 96/120/67 97/121/68 68/122/69
f 73/123/60 83/124/70 84/125/71 67/126/61
f 90/112/59 99/127/72 100/128/73 73/113/60
f 74/118/65 86/117/64 105/129/74 98/130/75
f 102/131/76 103/132/77 96/120/67 76/119/66
f 100/133/73 101/134/78 83/124/70 73/123/60
f 82/95/45 81/94/44 66/135/53 80/136/45
f 83/124/70 101/134/78 102/137/79 76/138/80
f 84/125/71 83/124/70 76/138/80 68/139/71
f 86/117/64 85/116/63 70/140/63 75/141/81
f 104/142/82 105/129/74 86/117/64 75/141/81
f 88/99/49 87/98/48 79/143/48 72/144/83
f 81/103/44 93/102/52 94/106/54 66/105/53
f 74/145/65 90/112/59 89/111/58 69/146/62
f 98/147/75 99/127/72 90/112/59 74/145/65
f 71/148/50 92/101/51 91/109/57 78/149/47
f 71/148/50 88/150/49 93/102/52 92/101/51
f 94/106/54 93/102/52 88/150/49 72/151/83
f 95/107/55 94/106/54 72/151/83 79/152/84
f 96/120/67 103/132/77 104/153/85 75/154/86
f 97/121/68 96/120/67 75/154/86 70/155/87
f 78/149/47 91/109/57 99/127/72 98/147/75
f 100/128/73 99/127/72 91/109/57 77/110/46
f 77/96/46 82/95/45 101/134/78 100/133/73
f 102/137/79 101/134/78 82/95/45 80/136/45
f 80/108/56 95/107/55 103/132/77 102/131/76
f 104/153/85 103/132/77 95/107/55 79/152/84
f 87/98/48 105/129/74 104/142/82 79/143/48
f 98/130/75 105/129/74 87/98/48 78/97/47
s 0
f 106/156/88 107/157/88 121/158/88 118/159/88
f 108/160/89 109/161/89 111/162/89 110/163/89
f 119/164/90 120/165/90 113/166/90 112/167/90
f 112/167/91 113/166/91 107/157/91 106/156/91
f 107/157/92 113/166/92 120/168/92 121/169/92
f 112/167/93 106/156/93 118/170/93 119/171/93
f 115/172/94 114/173/94 108/160/94 110/163/94
f 110/163/95 111/162/95 116/174/95 115/175/95
f 117/176/96 116/177/96 111/162/96 109/161/96
f 114/178/97 117/179/97 109/161/97 108/160/97
f 123/180/98 122/181/98 124/182/98 125/183/98
f 125/184/99 126/185/99 127/186/99 123/187/99
f 128/188/100 127/189/100 126/190/100 129/191/100
f 122/192/101 128/193/101 129/194/101 124/195/101
f 119/196/102 118/197/102 122/198/102 123/199/102
f 114/200/103 115/201/103 125/202/103 124/203/103
f 115/201/104 116/204/104 126/205/104 125/202/104
f 120/206/105 119/196/105 123/199/105 127/207/105
f 121/208/106 120/206/106 127/207/106 128/209/106
f 116/204/107 117/210/107 129/211/107 126/205/107
f 118/197/108 121/208/108 128/209/108 122/198/108
f 117/210/109 114/200/109 124/203/109 129/211/109
