# This file uses centimeters as units for non-parametric coordinates.

mtllib spout.mtl
g default
v 0.197335 0.098792 0.342925
v 0.077987 0.182668 0.357411
v -0.067248 0.169368 0.372442
v -0.170415 0.065115 0.380984
v -0.183239 -0.081310 0.379042
v -0.099720 -0.201393 0.367523
v 0.041061 -0.238946 0.351818
v 0.173234 -0.176397 0.339275
v 0.234951 -0.043014 0.335763
v 0.401810 0.240257 0.415775
v 0.146335 0.419802 0.446782
v -0.164556 0.391332 0.478957
v -0.385393 0.168168 0.497244
v -0.412845 -0.145268 0.493086
v -0.234065 -0.402317 0.468429
v 0.067292 -0.482703 0.434810
v 0.350218 -0.348811 0.407960
v 0.482330 -0.063292 0.400443
v 0.421876 0.257047 0.641368
v 0.166401 0.436592 0.672376
v -0.144490 0.408122 0.704550
v -0.365327 0.184958 0.722837
v -0.392778 -0.128479 0.718679
v -0.213999 -0.385528 0.694023
v 0.087358 -0.465913 0.660404
v 0.370285 -0.332021 0.633554
v 0.502396 -0.046502 0.626036
v 0.260284 0.140749 0.670347
v 0.115815 0.242280 0.687882
v -0.059992 0.226181 0.706077
v -0.184874 0.099983 0.716418
v -0.200398 -0.077263 0.714067
v -0.099299 -0.222623 0.700123
v 0.071116 -0.268080 0.681112
v 0.231110 -0.192366 0.665929
v 0.305818 -0.030906 0.661677
v 0.257895 0.141295 0.759383
v 0.113426 0.242826 0.776918
v -0.062381 0.226727 0.795113
v -0.187263 0.100529 0.805454
v -0.202787 -0.076717 0.803103
v -0.101688 -0.222077 0.789159
v 0.068727 -0.267534 0.770148
v 0.228721 -0.191819 0.754965
v 0.303429 -0.030360 0.750713
v 0.147843 0.110105 -0.161890
v 0.028496 0.193981 -0.147404
v -0.116740 0.180681 -0.132373
v -0.219906 0.076428 -0.123830
v -0.232730 -0.069997 -0.125773
v -0.149212 -0.190080 -0.137291
v -0.008430 -0.227633 -0.152997
v 0.123742 -0.165084 -0.165540
v 0.185459 -0.031701 -0.169052
v 0.095003 0.064681 -0.399275
v 0.016964 0.119526 -0.389803
v -0.078002 0.110829 -0.379975
v -0.145460 0.042661 -0.374389
v -0.153845 -0.053083 -0.375659
v -0.099235 -0.131602 -0.383191
v -0.007181 -0.156157 -0.393460
v 0.079243 -0.115258 -0.401662
v 0.119599 -0.028042 -0.403958
v 0.175469 0.124245 -0.406498
v 0.041426 0.218449 -0.390229
v -0.121692 0.203511 -0.373347
v -0.237561 0.086422 -0.363752
v -0.251964 -0.078032 -0.365934
v -0.158162 -0.212901 -0.378871
v -0.000046 -0.255077 -0.396510
v 0.148400 -0.184827 -0.410598
v 0.217716 -0.035021 -0.414542
v 0.143007 0.130598 -0.741630
v 0.009158 0.224672 -0.725385
v -0.153729 0.209757 -0.708527
v -0.269435 0.092831 -0.698946
v -0.283815 -0.071391 -0.701125
v -0.190145 -0.206065 -0.714043
v -0.032258 -0.248177 -0.731657
v 0.115972 -0.178026 -0.745724
v 0.185189 -0.028438 -0.749662
v 0.102111 0.100392 -0.737903
v -0.002737 0.174082 -0.725177
v -0.130332 0.162399 -0.711972
v -0.220968 0.070808 -0.704467
v -0.232233 -0.057833 -0.706174
v -0.158858 -0.163328 -0.716293
v -0.035180 -0.196315 -0.730090
v 0.080934 -0.141364 -0.741110
v 0.135154 -0.024187 -0.744195
vt 0.921803 0.912203
vt 0.926011 0.883575
vt 0.976793 0.873309
vt 0.967786 0.934590
vt 0.918812 0.866687
vt 0.895850 0.849071
vt 0.912230 0.799450
vt 0.961382 0.837157
vt 0.866850 0.849071
vt 0.850152 0.799450
vt 0.843795 0.866690
vt 0.800802 0.837164
vt 0.836209 0.894640
vt 0.784563 0.896994
vt 0.847201 0.921398
vt 0.808092 0.954271
vt 0.872232 0.935981
vt 0.861673 0.985488
vt 0.901032 0.932431
vt 0.923323 0.977890
vt 0.871878 0.405879
vt 0.978442 0.405879
vt 0.978369 0.483191
vt 0.871805 0.483191
vt 0.018080 0.405879
vt 0.124917 0.405879
vt 0.124843 0.483191
vt 0.018007 0.483191
vt 0.231810 0.405879
vt 0.231737 0.483191
vt 0.338460 0.405879
vt 0.338386 0.483191
vt 0.444971 0.405879
vt 0.444897 0.483191
vt 0.551678 0.405879
vt 0.551605 0.483191
vt 0.658585 0.405879
vt 0.658512 0.483191
vt 0.765359 0.405879
vt 0.765285 0.483191
vt 0.842583 0.792362
vt 0.776380 0.772913
vt 0.803810 0.736616
vt 0.843383 0.746366
vt 0.787343 0.506606
vt 0.855605 0.498686
vt 0.849331 0.544288
vt 0.808707 0.546698
vt 0.914341 0.521584
vt 0.890245 0.558935
vt 0.957836 0.564115
vt 0.923270 0.588245
vt 0.983010 0.619643
vt 0.939767 0.628988
vt 0.982298 0.681661
vt 0.938749 0.672405
vt 0.954899 0.738236
vt 0.919521 0.711133
vt 0.905384 0.777631
vt 0.885342 0.737479
vt 0.804932 0.716790
vt 0.841931 0.725840
vt 0.847571 0.564163
vt 0.811065 0.565048
vt 0.880161 0.577094
vt 0.906826 0.599086
vt 0.920321 0.630321
vt 0.920290 0.665264
vt 0.905234 0.697367
vt 0.877310 0.720123
vt 0.010078 0.499612
vt 0.087688 0.499612
vt 0.087688 0.827674
vt 0.010078 0.827674
vt 0.677549 0.499612
vt 0.753958 0.499612
vt 0.753958 0.827674
vt 0.677549 0.827674
vt 0.594570 0.499612
vt 0.594570 0.827674
vt 0.508840 0.499612
vt 0.508840 0.827674
vt 0.422282 0.499612
vt 0.422282 0.827674
vt 0.336228 0.499612
vt 0.336228 0.827674
vt 0.251474 0.499612
vt 0.251474 0.827674
vt 0.168349 0.499612
vt 0.168349 0.827674
vt 0.087688 0.984019
vt 0.010078 0.984019
vt 0.753958 0.984019
vt 0.677549 0.984019
vt 0.594570 0.984019
vt 0.508840 0.984019
vt 0.422282 0.984019
vt 0.336228 0.984019
vt 0.251474 0.984019
vt 0.168349 0.984019
vt 0.972474 0.383863
vt 0.875932 0.383863
vt 0.875932 0.322621
vt 0.972474 0.322620
vt 0.128081 0.383863
vt 0.032870 0.383863
vt 0.032870 0.322620
vt 0.128081 0.322620
vt 0.232042 0.383863
vt 0.232042 0.322621
vt 0.339615 0.383863
vt 0.339615 0.322621
vt 0.448961 0.383863
vt 0.448961 0.322621
vt 0.558683 0.383863
vt 0.558683 0.322620
vt 0.667824 0.383863
vt 0.667824 0.322620
vt 0.773346 0.383863
vt 0.773346 0.322621
vt 0.875932 0.060820
vt 0.972474 0.060820
vt 0.032870 0.060820
vt 0.128081 0.060820
vt 0.232042 0.060820
vt 0.339615 0.060820
vt 0.448961 0.060820
vt 0.558683 0.060820
vt 0.667824 0.060820
vt 0.773346 0.060820
vt 0.875932 0.023625
vt 0.972474 0.023625
vt 0.032870 0.023625
vt 0.128081 0.023625
vt 0.232042 0.023625
vt 0.339615 0.023625
vt 0.448961 0.023625
vt 0.558683 0.023625
vt 0.667824 0.023625
vt 0.773346 0.023625
vn 0.188045 0.221004 -0.956973
vn -0.008433 0.354782 -0.934911
vn -0.011311 0.355497 -0.934609
vn 0.186137 0.223639 -0.956733
vn -0.008433 0.354782 -0.934911
vn -0.242654 0.331189 -0.911830
vn -0.243901 0.330587 -0.911715
vn -0.011311 0.355497 -0.934609
vn -0.242654 0.331189 -0.911830
vn -0.407014 0.164550 -0.898478
vn -0.406898 0.164800 -0.898485
vn -0.243901 0.330587 -0.911715
vn -0.407014 0.164550 -0.898478
vn -0.428351 -0.068807 -0.900989
vn -0.428767 -0.067178 -0.900914
vn -0.406898 0.164800 -0.898485
vn -0.428351 -0.068807 -0.900989
vn -0.295380 -0.263665 -0.918276
vn -0.297659 -0.262010 -0.918014
vn -0.428767 -0.067178 -0.900914
vn -0.295380 -0.263665 -0.918276
vn -0.066299 -0.327980 -0.942355
vn -0.069260 -0.328200 -0.942066
vn -0.297659 -0.262010 -0.918014
vn -0.066299 -0.327980 -0.942355
vn 0.151333 -0.227840 -0.961867
vn 0.150404 -0.228765 -0.961793
vn -0.069260 -0.328200 -0.942066
vn 0.151333 -0.227840 -0.961867
vn 0.252190 -0.009830 -0.967628
vn 0.252305 -0.008382 -0.967611
vn 0.150404 -0.228765 -0.961793
vn 0.252190 -0.009830 -0.967628
vn 0.188045 0.221004 -0.956973
vn 0.186137 0.223639 -0.956733
vn 0.252305 -0.008382 -0.967611
vn 0.562385 0.819390 -0.111005
vn 0.562385 0.819391 -0.111005
vn 0.562385 0.819391 -0.111005
vn 0.562385 0.819391 -0.111005
vn -0.097692 0.993077 -0.065219
vn -0.097692 0.993077 -0.065219
vn -0.097692 0.993077 -0.065219
vn -0.097692 0.993077 -0.065219
vn -0.710318 0.703798 0.010803
vn -0.710318 0.703798 0.010803
vn -0.710318 0.703798 0.010803
vn -0.710318 0.703798 0.010803
vn -0.992932 0.085875 0.081929
vn -0.992932 0.085875 0.081929
vn -0.992932 0.085875 0.081929
vn -0.992932 0.085875 0.081929
vn -0.810332 -0.574607 0.114842
vn -0.810332 -0.574607 0.114842
vn -0.810332 -0.574607 0.114842
vn -0.810332 -0.574607 0.114842
vn -0.246822 -0.964517 0.093737
vn -0.246822 -0.964517 0.093737
vn -0.246822 -0.964517 0.093737
vn -0.246822 -0.964517 0.093737
vn 0.429820 -0.902451 0.028932
vn 0.429820 -0.902451 0.028932
vn 0.429820 -0.902451 0.028932
vn 0.429820 -0.902451 0.028932
vn 0.905957 -0.420491 -0.049289
vn 0.905957 -0.420491 -0.049289
vn 0.905957 -0.420491 -0.049289
vn 0.905957 -0.420491 -0.049289
vn 0.959933 0.259923 -0.104729
vn 0.959933 0.259923 -0.104729
vn 0.959933 0.259923 -0.104729
vn 0.959933 0.259923 -0.104729
vn 0.163219 0.019011 0.986407
vn 0.123182 0.047036 0.991269
vn 0.123105 0.047057 0.991277
vn 0.163303 0.018890 0.986395
vn 0.123182 0.047036 0.991269
vn 0.074418 0.042919 0.996303
vn 0.074180 0.042809 0.996326
vn 0.123105 0.047057 0.991277
vn 0.074418 0.042919 0.996303
vn 0.039412 0.008212 0.999189
vn 0.039324 0.008025 0.999194
vn 0.074180 0.042809 0.996326
vn 0.039412 0.008212 0.999189
vn 0.034901 -0.041165 0.998543
vn 0.034907 -0.041184 0.998542
vn 0.039324 0.008025 0.999194
vn 0.034901 -0.041165 0.998543
vn 0.063282 -0.081805 0.994637
vn 0.063226 -0.081766 0.994644
vn 0.034907 -0.041184 0.998542
vn 0.063282 -0.081805 0.994637
vn 0.111070 -0.094439 0.989315
vn 0.111014 -0.094444 0.989321
vn 0.063226 -0.081766 0.994644
vn 0.111070 -0.094439 0.989315
vn 0.155666 -0.073233 0.985091
vn 0.155595 -0.073305 0.985097
vn 0.111014 -0.094444 0.989321
vn 0.155666 -0.073233 0.985091
vn 0.176150 -0.028360 0.983955
vn 0.176134 -0.028554 0.983952
vn 0.155595 -0.073305 0.985097
vn 0.176150 -0.028360 0.983955
vn 0.163219 0.019011 0.986407
vn 0.163303 0.018890 0.986395
vn 0.176134 -0.028554 0.983952
vn 0.575808 0.817518 0.010435
vn 0.575808 0.817518 0.010435
vn 0.575808 0.817518 0.010435
vn 0.575808 0.817518 0.010435
vn -0.092071 0.995715 -0.008577
vn -0.092071 0.995715 -0.008577
vn -0.092071 0.995715 -0.008577
vn -0.092071 0.995715 -0.008577
vn -0.711565 0.702230 -0.023398
vn -0.711565 0.702230 -0.023398
vn -0.711565 0.702230 -0.023398
vn -0.711565 0.702230 -0.023398
vn -0.995785 0.087574 -0.027254
vn -0.995785 0.087574 -0.027254
vn -0.995785 0.087574 -0.027254
vn -0.995785 0.087574 -0.027254
vn -0.821653 -0.569686 -0.018551
vn -0.821653 -0.569686 -0.018551
vn -0.821653 -0.569686 -0.018551
vn -0.821653 -0.569686 -0.018551
vn -0.257836 -0.966188 -0.000993
vn -0.257836 -0.966188 -0.000993
vn -0.257836 -0.966188 -0.000993
vn -0.257836 -0.966188 -0.000993
vn 0.429016 -0.903136 0.017049
vn 0.429016 -0.903136 0.017049
vn 0.429016 -0.903136 0.017049
vn 0.429016 -0.903136 0.017049
vn 0.907497 -0.419195 0.026919
vn 0.907497 -0.419195 0.026919
vn 0.907497 -0.419195 0.026919
vn 0.907497 -0.419195 0.026919
vn 0.966590 0.255168 0.024368
vn 0.966590 0.255168 0.024368
vn 0.966590 0.255168 0.024368
vn 0.966590 0.255168 0.024368
vn 0.571521 0.819723 -0.037662
vn 0.571521 0.819723 -0.037662
vn 0.563034 0.819540 -0.106527
vn 0.564229 0.819776 -0.098047
vn -0.087975 0.995642 0.030937
vn -0.087975 0.995642 0.030937
vn -0.097579 0.993164 -0.064054
vn -0.096454 0.993953 -0.052477
vn -0.704751 0.704359 0.084877
vn -0.704751 0.704359 0.084877
vn -0.711651 0.702010 -0.027123
vn -0.711466 0.702449 -0.019528
vn -0.991395 0.085513 0.099112
vn -0.991395 0.085513 0.099112
vn -0.996093 0.087407 -0.012623
vn -0.996063 0.087431 -0.014670
vn -0.816078 -0.574028 0.067144
vn -0.816078 -0.574028 0.067144
vn -0.821908 -0.568904 -0.028552
vn -0.822081 -0.568062 -0.038579
vn -0.257360 -0.966309 0.003577
vn -0.257360 -0.966309 0.003577
vn -0.264272 -0.961999 -0.068685
vn -0.265186 -0.960917 -0.079466
vn 0.422157 -0.904424 -0.061656
vn 0.422157 -0.904424 -0.061656
vn 0.416232 -0.902206 -0.113031
vn 0.415446 -0.901777 -0.119177
vn 0.902215 -0.420037 -0.097865
vn 0.902215 -0.420037 -0.097865
vn 0.897318 -0.418859 -0.139202
vn 0.897144 -0.418812 -0.140462
vn 0.961666 0.259561 -0.088464
vn 0.961666 0.259561 -0.088464
vn 0.955866 0.260423 -0.136014
vn 0.956318 0.260385 -0.132877
vn 0.564229 0.819776 -0.098047
vn 0.563034 0.819540 -0.106527
vn 0.531051 0.802571 -0.271780
vn 0.531051 0.802571 -0.271780
vn -0.096454 0.993953 -0.052477
vn -0.097579 0.993164 -0.064054
vn -0.116738 0.950931 -0.286534
vn -0.116738 0.950931 -0.286534
vn -0.711466 0.702449 -0.019528
vn -0.711651 0.702010 -0.027123
vn -0.691265 0.659942 -0.294328
vn -0.691265 0.659942 -0.294328
vn -0.996063 0.087431 -0.014670
vn -0.996093 0.087407 -0.012623
vn -0.951655 0.087254 -0.294517
vn -0.951655 0.087254 -0.294517
vn -0.822081 -0.568062 -0.038579
vn -0.821908 -0.568904 -0.028552
vn -0.798917 -0.528032 -0.287947
vn -0.798917 -0.528032 -0.287947
vn -0.265186 -0.960917 -0.079466
vn -0.264272 -0.961999 -0.068685
vn -0.276323 -0.920836 -0.275147
vn -0.276323 -0.920836 -0.275147
vn 0.415446 -0.901777 -0.119177
vn 0.416232 -0.902206 -0.113031
vn 0.392746 -0.882084 -0.260151
vn 0.392746 -0.882084 -0.260151
vn 0.897144 -0.418812 -0.140462
vn 0.897318 -0.418859 -0.139202
vn 0.875735 -0.411840 -0.251943
vn 0.875735 -0.411840 -0.251943
vn 0.956318 0.260385 -0.132877
vn 0.955866 0.260423 -0.136014
vn 0.930831 0.259889 -0.256927
vn 0.930831 0.259889 -0.256927
vn 0.105362 -0.021782 0.994195
vn 0.105362 -0.021782 0.994195
vn 0.105362 -0.021782 0.994195
vn 0.105362 -0.021782 0.994195
vn 0.104882 -0.021660 0.994249
vn 0.104882 -0.021660 0.994249
vn 0.104882 -0.021660 0.994249
vn 0.104882 -0.021660 0.994249
vn 0.104436 -0.021873 0.994291
vn 0.104436 -0.021873 0.994291
vn 0.104436 -0.021873 0.994291
vn 0.104436 -0.021873 0.994291
vn 0.104227 -0.022318 0.994303
vn 0.104227 -0.022318 0.994303
vn 0.104227 -0.022318 0.994303
vn 0.104227 -0.022318 0.994303
vn 0.104346 -0.022797 0.994280
vn 0.104346 -0.022797 0.994280
vn 0.104346 -0.022797 0.994280
vn 0.104346 -0.022797 0.994280
vn 0.104755 -0.023098 0.994230
vn 0.104755 -0.023098 0.994230
vn 0.104755 -0.023098 0.994230
vn 0.104755 -0.023098 0.994230
vn 0.105261 -0.023058 0.994177
vn 0.105261 -0.023058 0.994177
vn 0.105261 -0.023058 0.994177
vn 0.105261 -0.023058 0.994177
vn 0.105620 -0.022699 0.994147
vn 0.105620 -0.022699 0.994147
vn 0.105620 -0.022699 0.994147
vn 0.105620 -0.022699 0.994147
vn 0.105658 -0.022183 0.994155
vn 0.105658 -0.022183 0.994155
vn 0.105658 -0.022183 0.994155
vn 0.105658 -0.022183 0.994155
vn 0.571311 0.819768 -0.039793
vn 0.571311 0.819768 -0.039793
vn 0.571311 0.819768 -0.039793
vn 0.571311 0.819768 -0.039793
vn -0.088386 0.995720 0.026998
vn -0.088386 0.995720 0.026998
vn -0.088386 0.995720 0.026998
vn -0.088386 0.995720 0.026998
vn -0.705187 0.704434 0.080527
vn -0.705187 0.704434 0.080527
vn -0.705187 0.704434 0.080527
vn -0.705187 0.704434 0.080527
vn -0.991702 0.085574 0.095934
vn -0.991702 0.085574 0.095934
vn -0.991702 0.085574 0.095934
vn -0.991702 0.085574 0.095934
vn -0.816170 -0.574010 0.066178
vn -0.816170 -0.574010 0.066178
vn -0.816170 -0.574010 0.066178
vn -0.816170 -0.574010 0.066178
vn -0.257217 -0.966342 0.004830
vn -0.257217 -0.966342 0.004830
vn -0.257217 -0.966342 0.004830
vn -0.257217 -0.966342 0.004830
vn 0.422415 -0.904465 -0.059226
vn 0.422415 -0.904465 -0.059226
vn 0.422415 -0.904465 -0.059226
vn 0.422415 -0.904465 -0.059226
vn 0.902411 -0.420081 -0.095844
vn 0.902411 -0.420081 -0.095844
vn 0.902411 -0.420081 -0.095844
vn 0.902411 -0.420081 -0.095844
vn 0.961691 0.259545 -0.088240
vn 0.961691 0.259545 -0.088240
vn 0.961691 0.259545 -0.088240
vn 0.961691 0.259545 -0.088240
vn -0.105374 0.020704 -0.994217
vn -0.106373 0.021357 -0.994097
vn -0.106385 0.021372 -0.994095
vn -0.105398 0.020710 -0.994214
vn -0.104219 0.020849 -0.994336
vn -0.105374 0.020704 -0.994217
vn -0.105398 0.020710 -0.994214
vn -0.104235 0.020841 -0.994334
vn -0.103429 0.021679 -0.994401
vn -0.104219 0.020849 -0.994336
vn -0.104235 0.020841 -0.994334
vn -0.103432 0.021672 -0.994400
vn -0.103329 0.022812 -0.994386
vn -0.103429 0.021679 -0.994401
vn -0.103432 0.021672 -0.994400
vn -0.103331 0.022817 -0.994385
vn -0.103965 0.023762 -0.994297
vn -0.103329 0.022812 -0.994386
vn -0.103331 0.022817 -0.994385
vn -0.103980 0.023773 -0.994295
vn -0.105080 0.024104 -0.994172
vn -0.103965 0.023762 -0.994297
vn -0.103980 0.023773 -0.994295
vn -0.105107 0.024103 -0.994169
vn -0.106178 0.023632 -0.994066
vn -0.105080 0.024104 -0.994172
vn -0.105107 0.024103 -0.994169
vn -0.106191 0.023619 -0.994065
vn -0.106704 0.022531 -0.994036
vn -0.106178 0.023632 -0.994066
vn -0.106191 0.023619 -0.994065
vn -0.106704 0.022532 -0.994035
vn -0.106373 0.021357 -0.994097
vn -0.106704 0.022531 -0.994036
vn -0.106704 0.022532 -0.994035
vn -0.106385 0.021372 -0.994095
s off
g spout:pCylinder1
usemtl spout:initialShadingGroup
f 1/1/1 2/2/2 11/3/3 10/4/4
f 2/5/5 3/6/6 12/7/7 11/8/8
f 3/6/9 4/9/10 13/10/11 12/7/12
f 4/9/13 5/11/14 14/12/15 13/10/16
f 5/11/17 6/13/18 15/14/19 14/12/20
f 6/13/21 7/15/22 16/16/23 15/14/24
f 7/15/25 8/17/26 17/18/27 16/16/28
f 8/17/29 9/19/30 18/20/31 17/18/32
f 9/19/33 1/1/34 10/4/35 18/20/36
f 10/21/37 11/22/38 20/23/39 19/24/40
f 11/25/41 12/26/42 21/27/43 20/28/44
f 12/26/45 13/29/46 22/30/47 21/27/48
f 13/29/49 14/31/50 23/32/51 22/30/52
f 14/31/53 15/33/54 24/34/55 23/32/56
f 15/33/57 16/35/58 25/36/59 24/34/60
f 16/35/61 17/37/62 26/38/63 25/36/64
f 17/37/65 18/39/66 27/40/67 26/38/68
f 18/39/69 10/21/70 19/24/71 27/40/72
f 19/41/73 20/42/74 29/43/75 28/44/76
f 20/45/77 21/46/78 30/47/79 29/48/80
f 21/46/81 22/49/82 31/50/83 30/47/84
f 22/49/85 23/51/86 32/52/87 31/50/88
f 23/51/89 24/53/90 33/54/91 32/52/92
f 24/53/93 25/55/94 34/56/95 33/54/96
f 25/55/97 26/57/98 35/58/99 34/56/100
f 26/57/101 27/59/102 36/60/103 35/58/104
f 27/59/105 19/41/106 28/44/107 36/60/108
f 28/44/109 29/43/110 38/61/111 37/62/112
f 29/48/113 30/47/114 39/63/115 38/64/116
f 30/47/117 31/50/118 40/65/119 39/63/120
f 31/50/121 32/52/122 41/66/123 40/65/124
f 32/52/125 33/54/126 42/67/127 41/66/128
f 33/54/129 34/56/130 43/68/131 42/67/132
f 34/56/133 35/58/134 44/69/135 43/68/136
f 35/58/137 36/60/138 45/70/139 44/69/140
f 36/60/141 28/44/142 37/62/143 45/70/144
f 2/71/145 1/72/146 46/73/147 47/74/148
f 3/75/149 2/76/150 47/77/151 48/78/152
f 4/79/153 3/75/154 48/78/155 49/80/156
f 5/81/157 4/79/158 49/80/159 50/82/160
f 6/83/161 5/81/162 50/82/163 51/84/164
f 7/85/165 6/83/166 51/84/167 52/86/168
f 8/87/169 7/85/170 52/86/171 53/88/172
f 9/89/173 8/87/174 53/88/175 54/90/176
f 1/72/177 9/89/178 54/90/179 46/73/180
f 47/74/181 46/73/182 55/91/183 56/92/184
f 48/78/185 47/77/186 56/93/187 57/94/188
f 49/80/189 48/78/190 57/94/191 58/95/192
f 50/82/193 49/80/194 58/95/195 59/96/196
f 51/84/197 50/82/198 59/96/199 60/97/200
f 52/86/201 51/84/202 60/97/203 61/98/204
f 53/88/205 52/86/206 61/98/207 62/99/208
f 54/90/209 53/88/210 62/99/211 63/100/212
f 46/73/213 54/90/214 63/100/215 55/91/216
f 56/101/217 55/102/218 64/103/219 65/104/220
f 57/105/221 56/106/222 65/107/223 66/108/224
f 58/109/225 57/105/226 66/108/227 67/110/228
f 59/111/229 58/109/230 67/110/231 68/112/232
f 60/113/233 59/111/234 68/112/235 69/114/236
f 61/115/237 60/113/238 69/114/239 70/116/240
f 62/117/241 61/115/242 70/116/243 71/118/244
f 63/119/245 62/117/246 71/118/247 72/120/248
f 55/102/249 63/119/250 72/120/251 64/103/252
f 65/104/253 64/103/254 73/121/255 74/122/256
f 66/108/257 65/107/258 74/123/259 75/124/260
f 67/110/261 66/108/262 75/124/263 76/125/264
f 68/112/265 67/110/266 76/125/267 77/126/268
f 69/114/269 68/112/270 77/126/271 78/127/272
f 70/116/273 69/114/274 78/127/275 79/128/276
f 71/118/277 70/116/278 79/128/279 80/129/280
f 72/120/281 71/118/282 80/129/283 81/130/284
f 64/103/285 72/120/286 81/130/287 73/121/288
f 74/122/289 73/121/290 82/131/291 83/132/292
f 75/124/293 74/123/294 83/133/295 84/134/296
f 76/125/297 75/124/298 84/134/299 85/135/300
f 77/126/301 76/125/302 85/135/303 86/136/304
f 78/127/305 77/126/306 86/136/307 87/137/308
f 79/128/309 78/127/310 87/137/311 88/138/312
f 80/129/313 79/128/314 88/138/315 89/139/316
f 81/130/317 80/129/318 89/139/319 90/140/320
f 73/121/321 81/130/322 90/140/323 82/131/324
