# This file uses centimeters as units for non-parametric coordinates.

mtllib Electric_Box.mtl
g default
v 5.380482 0.135048 -4.874987
v 6.337407 0.135048 -4.874987
v 5.380482 2.455814 -4.874987
v 6.337407 2.455814 -4.874987
v 5.380482 2.455814 -7.195753
v 6.337407 2.455814 -7.195753
v 5.380482 0.135048 -7.195753
v 6.337407 0.135048 -7.195753
v 5.380482 2.455814 -5.107064
v 5.380482 0.135048 -5.107064
v 6.337407 0.135048 -5.107064
v 6.337407 2.455814 -5.107064
v 5.380482 2.223737 -4.874987
v 5.380482 2.223737 -5.107064
v 5.380482 2.223737 -7.195753
v 6.337407 2.223737 -7.195753
v 6.337407 2.223737 -5.107064
v 6.337407 2.223737 -4.874987
v 5.380482 0.135048 -6.986884
v 5.380482 2.223737 -6.986884
v 5.380482 2.455814 -6.986884
v 6.337407 2.455814 -6.986884
v 6.337407 2.223737 -6.986884
v 6.337407 0.135048 -6.986884
v 5.380482 0.343917 -4.874987
v 5.380482 0.343917 -5.107064
v 5.380482 0.343917 -6.986884
v 5.380482 0.343917 -7.195753
v 6.337407 0.343917 -7.195753
v 6.337407 0.343917 -6.986884
v 6.337407 0.343917 -5.107064
v 6.337407 0.343917 -4.874987
v 6.046063 0.343917 -6.986884
v 6.046063 0.343917 -5.107064
v 6.046063 2.223737 -6.986884
v 6.046063 2.223737 -5.107064
v 6.218903 0.158065 -4.803470
v 7.389235 0.158065 -2.864239
v 6.218903 2.455814 -4.803470
v 7.389235 2.455814 -2.864239
v 6.337407 2.455814 -4.874987
v 7.507738 2.455814 -2.935756
v 6.337407 0.158065 -4.874987
v 7.507738 0.158065 -2.935756
v 7.272201 0.158065 -3.058163
v 7.272201 2.455814 -3.058163
v 7.390705 2.455814 -3.129680
v 7.390705 0.158065 -3.129680
v 6.324233 0.158065 -4.628939
v 6.324233 2.455814 -4.628939
v 6.442737 2.455814 -4.700456
v 6.442737 0.158065 -4.700456
v 6.218903 2.226039 -4.803470
v 6.337407 2.226039 -4.874987
v 6.442737 2.226039 -4.700456
v 7.390705 2.226039 -3.129680
v 7.507738 2.226039 -2.935756
v 7.389235 2.226039 -2.864239
v 7.272201 2.226039 -3.058163
v 6.324233 2.226039 -4.628939
v 6.218903 0.364863 -4.803470
v 6.337407 0.364863 -4.874987
v 6.442737 0.364863 -4.700456
v 7.390705 0.364863 -3.129680
v 7.507738 0.364863 -2.935756
v 7.389235 0.364863 -2.864239
v 7.272201 0.364863 -3.058163
v 6.324233 0.364863 -4.628939
v 6.381776 0.364863 -4.663666
v 7.329743 0.364863 -3.092889
v 6.381776 2.226039 -4.663666
v 7.329743 2.226039 -3.092889
vt 0.574237 0.007827
vt 0.964636 0.844201
vt 0.032643 0.852503
vt 0.032637 0.966237
vt 0.850068 0.007813
vt 0.283650 0.852514
vt 0.592932 0.834903
vt 0.311227 0.966250
vt 0.850824 0.543574
vt 0.841151 0.583867
vt 0.964564 0.568369
vt 0.574251 0.283658
vt 0.574238 0.035410
vt 0.964629 0.816617
vt 0.292586 0.559037
vt 0.599063 0.035408
vt 0.850837 0.593223
vt 0.599074 0.258832
vt 0.816324 0.559045
vt 0.292729 0.843594
vt 0.534651 0.966260
vt 0.816356 0.834877
vt 0.559481 0.852527
vt 0.850082 0.283644
vt 0.822487 0.035397
vt 0.822485 0.007814
vt 0.822499 0.283646
vt 0.822498 0.258821
vt 0.841177 0.807291
vt 0.007812 0.843522
vt 0.256066 0.852513
vt 0.008772 0.559343
vt 0.269218 0.585727
vt 0.265896 0.820270
vt 0.031354 0.817005
vt 0.035343 0.582998
vt 0.293507 0.277020
vt 0.293510 0.252792
vt 0.317732 0.301602
vt 0.293503 0.301599
vt 0.293469 0.550116
vt 0.317697 0.550120
vt 0.252789 0.550111
vt 0.277018 0.550114
vt 0.277053 0.301597
vt 0.242229 0.007812
vt 0.252827 0.277015
vt 0.277056 0.277018
vt 0.562712 0.277058
vt 0.007850 0.276981
vt 0.992095 0.032391
vt 0.562709 0.301636
vt 0.535788 0.301633
vt 0.535791 0.277054
vt 0.034733 0.550080
vt 0.535753 0.550150
vt 0.562674 0.550154
vt 0.007812 0.550076
vt 0.034771 0.276984
vt 0.007812 0.008025
vt 0.277022 0.522804
vt 0.293472 0.522807
vt 0.242519 0.245341
vt 0.008162 0.245527
vt 0.992135 0.253599
vt 0.562678 0.522844
vt 0.535757 0.522840
vt 0.317701 0.522810
vt 0.013905 0.013649
vt 0.236528 0.013869
vt 0.236440 0.239705
vt 0.013846 0.239457
vt 0.816326 0.583870
vt 0.592903 0.583896
vt 0.592929 0.807320
vt 0.964558 0.543544
vt 0.841148 0.559042
vt 0.599076 0.283657
vt 0.850830 0.568398
vt 0.599061 0.007825
vt 0.256061 0.966247
vt 0.816353 0.807294
vt 0.964571 0.593194
vt 0.592900 0.559071
vt 0.534656 0.852526
vt 0.964493 0.292537
vt 0.841181 0.834874
vt 0.850081 0.258819
vt 0.850759 0.292567
vt 0.559476 0.966261
vt 0.574250 0.258833
vt 0.850895 0.816647
vt 0.964500 0.320120
vt 0.850766 0.320150
vt 0.283644 0.966248
vt 0.311233 0.852515
vt 0.007818 0.852501
vt 0.007812 0.966235
vt 0.850902 0.844230
vt 0.850070 0.035396
vt 0.252824 0.301593
vt 0.034768 0.301563
vt 0.975644 0.032394
vt 0.975684 0.253602
vt 0.007847 0.301559
vt 0.277093 0.007813
vt 0.992091 0.007813
vt 0.252793 0.522801
vt 0.034737 0.522771
vt 0.975689 0.280912
vt 0.007816 0.522767
vt 0.277059 0.252789
vt 0.277089 0.034733
vt 0.992183 0.525886
vt 0.992145 0.307829
vt 0.975732 0.525889
vt 0.975694 0.307832
vt 0.317735 0.277024
vt 0.293540 0.034735
vt 0.992140 0.280909
vt 0.975640 0.007815
vt 0.293544 0.007815
vt 0.975737 0.550117
vt 0.992188 0.550115
vt 0.565320 0.583900
vt 0.565346 0.807323
vt 0.565349 0.834906
vt 0.565317 0.559075
vn 0.000000 0.000000 1.000000
vn 0.000000 0.000000 1.000000
vn 0.000000 0.000000 1.000000
vn 0.000000 0.000000 1.000000
vn 0.000000 1.000000 0.000000
vn 0.000000 1.000000 0.000000
vn 0.000000 1.000000 0.000000
vn 0.000000 1.000000 0.000000
vn 0.000000 0.000000 -1.000000
vn 0.000000 0.000000 -1.000000
vn 0.000000 0.000000 -1.000000
vn 0.000000 0.000000 -1.000000
vn 0.000000 -1.000000 0.000000
vn 0.000000 -1.000000 0.000000
vn 0.000000 -1.000000 0.000000
vn 0.000000 -1.000000 0.000000
vn 1.000000 0.000000 0.000000
vn 1.000000 0.000000 0.000000
vn 1.000000 0.000000 0.000000
vn 1.000000 0.000000 0.000000
vn -1.000000 0.000000 0.000000
vn -1.000000 0.000000 0.000000
vn -1.000000 0.000000 0.000000
vn -1.000000 0.000000 0.000000
vn -1.000000 0.000000 0.000000
vn -1.000000 0.000000 0.000000
vn -1.000000 0.000000 0.000000
vn -1.000000 0.000000 0.000000
vn 0.000000 -1.000000 0.000000
vn 0.000000 -1.000000 0.000000
vn 0.000000 -1.000000 0.000000
vn 0.000000 -1.000000 0.000000
vn 1.000000 0.000000 0.000000
vn 1.000000 0.000000 0.000000
vn 1.000000 0.000000 0.000000
vn 1.000000 0.000000 0.000000
vn 0.000000 1.000000 0.000000
vn 0.000000 1.000000 0.000000
vn 0.000000 1.000000 0.000000
vn 0.000000 1.000000 0.000000
vn -1.000000 0.000000 0.000000
vn -1.000000 0.000000 0.000000
vn -1.000000 0.000000 0.000000
vn -1.000000 0.000000 0.000000
vn -1.000000 0.000000 0.000000
vn -1.000000 0.000000 0.000000
vn -1.000000 0.000000 0.000000
vn -1.000000 0.000000 0.000000
vn 0.000000 0.000000 -1.000000
vn 0.000000 0.000000 -1.000000
vn 0.000000 0.000000 -1.000000
vn 0.000000 0.000000 -1.000000
vn 1.000000 0.000000 0.000000
vn 1.000000 0.000000 0.000000
vn 1.000000 0.000000 0.000000
vn 1.000000 0.000000 0.000000
vn 1.000000 0.000000 0.000000
vn 1.000000 0.000000 0.000000
vn 1.000000 0.000000 0.000000
vn 1.000000 0.000000 0.000000
vn 0.000000 0.000000 1.000000
vn 0.000000 0.000000 1.000000
vn 0.000000 0.000000 1.000000
vn 0.000000 0.000000 1.000000
vn 1.000000 0.000000 0.000000
vn 1.000000 0.000000 0.000000
vn 1.000000 0.000000 0.000000
vn 1.000000 0.000000 0.000000
vn 0.000000 1.000000 0.000000
vn 0.000000 1.000000 0.000000
vn 0.000000 1.000000 0.000000
vn 0.000000 1.000000 0.000000
vn 0.000000 0.000000 1.000000
vn 0.000000 0.000000 1.000000
vn 0.000000 0.000000 1.000000
vn 0.000000 0.000000 1.000000
vn 0.000000 -1.000000 0.000000
vn 0.000000 -1.000000 0.000000
vn 0.000000 -1.000000 0.000000
vn 0.000000 -1.000000 0.000000
vn 0.000000 0.000000 -1.000000
vn 0.000000 0.000000 -1.000000
vn 0.000000 0.000000 -1.000000
vn 0.000000 0.000000 -1.000000
vn -0.856168 0.000000 0.516698
vn -0.856167 0.000000 0.516699
vn -0.856167 0.000000 0.516699
vn -0.856167 0.000000 0.516698
vn 0.000000 1.000000 0.000000
vn 0.000000 1.000000 -0.000001
vn 0.000000 1.000000 -0.000001
vn 0.000000 1.000000 0.000000
vn 0.856167 0.000000 -0.516699
vn 0.856167 0.000000 -0.516699
vn 0.856167 0.000000 -0.516699
vn 0.856167 0.000000 -0.516700
vn 0.000000 -1.000000 -0.000000
vn 0.000000 -1.000000 -0.000000
vn 0.000000 -1.000000 -0.000000
vn 0.000000 -1.000000 -0.000000
vn 0.516698 0.000000 0.856168
vn 0.516698 0.000000 0.856168
vn 0.516698 0.000000 0.856168
vn 0.516698 0.000000 0.856168
vn -0.516698 0.000000 -0.856168
vn -0.516698 0.000000 -0.856168
vn -0.516700 0.000000 -0.856167
vn -0.516700 0.000000 -0.856167
vn -0.856166 0.000000 0.516701
vn -0.856167 0.000000 0.516699
vn -0.856167 0.000000 0.516699
vn -0.856166 0.000000 0.516701
vn 0.000000 1.000000 -0.000001
vn 0.000000 1.000000 -0.000001
vn 0.000000 1.000000 0.000000
vn 0.000000 1.000000 0.000000
vn 0.856167 0.000000 -0.516699
vn 0.856167 0.000000 -0.516698
vn 0.856168 0.000000 -0.516698
vn 0.856168 0.000000 -0.516698
vn 0.000000 -1.000000 0.000000
vn 0.000000 -1.000000 0.000000
vn 0.000000 -1.000000 0.000000
vn 0.000000 -1.000000 0.000000
vn -0.516700 0.000000 -0.856167
vn -0.516700 0.000000 -0.856167
vn -0.516700 0.000000 -0.856167
vn -0.516700 0.000000 -0.856167
vn 0.856167 0.000000 -0.516700
vn 0.856167 0.000000 -0.516700
vn 0.856167 0.000000 -0.516699
vn 0.856167 0.000000 -0.516699
vn 0.856167 0.000000 -0.516698
vn 0.856167 0.000000 -0.516699
vn 0.856168 0.000000 -0.516698
vn 0.856168 0.000000 -0.516698
vn 0.516698 0.000000 0.856168
vn 0.516698 0.000000 0.856168
vn 0.516698 0.000000 0.856168
vn 0.516698 0.000000 0.856168
vn -0.856167 0.000000 0.516699
vn -0.856167 0.000000 0.516699
vn -0.856166 0.000000 0.516701
vn -0.856166 0.000000 0.516701
vn -0.856167 0.000000 0.516699
vn -0.856167 0.000000 0.516699
vn -0.856167 0.000000 0.516698
vn -0.856168 0.000000 0.516698
vn 0.856167 0.000000 -0.516699
vn 0.856167 0.000000 -0.516699
vn 0.856167 0.000000 -0.516699
vn 0.856167 0.000000 -0.516699
vn 0.000000 1.000000 0.000000
vn 0.000000 1.000000 0.000000
vn 0.000000 1.000000 0.000000
vn 0.000000 1.000000 0.000000
vn 0.516694 0.000000 0.856170
vn 0.516694 0.000000 0.856170
vn 0.516694 0.000000 0.856170
vn 0.516694 0.000000 0.856170
vn 0.000000 -1.000000 0.000000
vn 0.000000 -1.000000 0.000000
vn 0.000000 -1.000000 0.000000
vn 0.000000 -1.000000 0.000000
vn -0.516699 0.000000 -0.856167
vn -0.516699 0.000000 -0.856167
vn -0.516699 0.000000 -0.856167
vn -0.516699 0.000000 -0.856167
s 1
g pCube3
usemtl initialShadingGroup
f 1/98/1 2/97/2 32/3/3 25/4/4
s 2
f 3/95/5 4/6/6 12/96/7 9/8/8
s 3
f 28/9/9 29/76/10 8/11/11 7/79/12
s 4
f 10/92/13 11/14/14 2/2/15 1/99/16
s 5
f 2/128/17 11/84/18 31/74/19 32/125/20
s 6
f 25/80/21 26/16/22 10/13/23 1/1/24
f 7/12/25 19/91/26 27/18/27 28/78/28
s 4
f 7/79/29 8/11/30 24/83/31 19/17/32
s 5
f 29/10/33 30/73/34 24/19/35 8/77/36
s 2
f 21/21/37 22/85/38 6/23/39 5/90/40
s 6
f 9/100/41 14/25/42 13/26/43 3/5/44
f 15/27/45 20/28/46 21/88/47 5/24/48
s 3
f 5/89/49 6/86/50 16/93/51 15/94/52
s 5
f 22/22/53 23/82/54 16/29/55 6/87/56
f 18/126/57 17/75/58 12/7/59 4/127/60
s 1
f 13/81/61 18/31/62 4/6/63 3/95/64
s 6
f 26/16/22 27/18/27 19/91/26 10/13/23
f 21/88/47 20/28/46 14/25/42 9/100/41
s 2
f 9/8/8 12/96/7 22/85/38 21/21/37
s 5
f 12/7/59 17/75/58 23/82/54 22/22/53
f 24/19/35 30/73/34 31/74/19 11/84/18
s 4
f 19/17/32 24/83/31 11/14/14 10/92/13
s 6
f 13/26/43 14/25/42 26/16/22 25/80/21
f 20/28/46 27/18/27 26/16/22 14/25/42
f 28/78/28 27/18/27 20/28/46 15/27/45
s 3
f 15/94/52 16/93/51 29/76/10 28/9/9
s 5
f 16/29/55 23/82/54 30/73/34 29/10/33
s off
f 34/33/65 33/34/66 35/35/67 36/36/68
s 5
f 32/125/20 31/74/19 17/75/58 18/126/57
s 1
f 25/4/4 32/3/3 18/31/62 13/81/61
s off
f 31/15/69 30/20/70 33/34/71 34/33/72
f 30/20/73 23/30/74 35/35/75 33/34/76
f 23/30/77 17/32/78 36/36/79 35/35/80
f 17/32/81 31/15/82 34/33/83 36/36/84
s 10
f 37/37/85 49/118/86 68/39/87 61/40/88
s 11
f 39/123/89 50/116/90 51/114/91 41/124/92
s 12
f 62/45/93 63/101/94 52/47/95 43/48/96
s 13
f 43/48/97 52/112/98 49/38/99 37/37/100
s 14
f 38/121/101 44/107/102 65/51/103 66/103/104
s 15
f 43/48/105 37/37/106 61/40/107 62/45/108
s 10
f 66/52/109 67/53/110 45/54/111 38/49/112
s 11
f 47/115/113 46/117/114 40/110/115 42/120/116
s 12
f 48/59/117 64/102/118 65/105/119 44/50/120
s 13
f 45/119/121 48/113/122 44/106/123 38/122/124
s 10
f 67/53/110 68/39/87 49/118/86 45/54/111
s 11
f 51/114/91 50/116/90 46/117/114 47/115/113
s 12
f 52/47/95 63/101/94 64/102/118 48/59/117
s 13
f 49/38/99 52/112/98 48/113/122 45/119/121
s 15
f 54/61/125 53/62/126 39/41/127 41/44/128
s 12
f 41/44/129 51/43/130 55/108/131 54/61/132
f 56/109/133 55/108/131 51/43/130 47/55/134
f 57/111/135 56/109/133 47/55/134 42/58/136
s 14
f 58/104/137 57/65/138 42/120/139 40/110/140
s 10
f 46/56/141 59/67/142 58/66/143 40/57/144
f 50/42/145 60/68/146 59/67/142 46/56/141
f 53/62/147 60/68/146 50/42/145 39/41/148
s 15
f 62/45/108 61/40/107 53/62/126 54/61/125
s 12
f 54/61/132 55/108/131 63/101/94 62/45/93
s off
f 70/69/149 69/70/150 71/71/151 72/72/152
s 12
f 65/105/119 64/102/118 56/109/133 57/111/135
s 14
f 66/103/104 65/51/103 57/65/138 58/104/137
s 10
f 58/66/143 59/67/142 67/53/110 66/52/109
f 59/67/142 60/68/146 68/39/87 67/53/110
f 61/40/88 68/39/87 60/68/146 53/62/147
s off
f 64/60/153 63/46/154 69/70/155 70/69/156
f 63/46/157 55/63/158 71/71/159 69/70/160
f 55/63/161 56/64/162 72/72/163 71/71/164
f 56/64/165 64/60/166 70/69/167 72/72/168
