# This file uses centimeters as units for non-parametric coordinates.

mtllib Cardboard_Opened_Box.mtl
g default
v 7.357966 12.008617 0.698157
v 9.224049 12.008617 0.698157
v 6.955762 13.788920 1.142517
v 9.626251 13.788920 1.142517
v 6.955762 13.788920 -1.807884
v 9.626251 13.788920 -1.807884
v 7.357966 12.008617 -1.363523
v 9.224049 12.008617 -1.363523
v 7.031531 13.254828 1.058807
v 7.031531 13.254828 -1.724174
v 9.550484 13.254828 -1.724174
v 9.550484 13.254828 1.058807
v 6.955762 13.788920 -1.512844
v 7.031531 13.254828 -1.445876
v 7.357966 12.008617 -1.157355
v 9.224049 12.008617 -1.157355
v 9.550484 13.254828 -1.445876
v 9.626251 13.788920 -1.512844
v 6.955762 13.788920 0.876981
v 7.031531 13.254828 0.808339
v 7.357966 12.008617 0.512605
v 9.224049 12.008617 0.512605
v 9.550484 13.254828 0.808339
v 9.626251 13.788920 0.876981
v 7.544575 12.008617 0.698157
v 7.283426 13.254828 1.058807
v 7.222812 13.788920 1.142517
v 7.222812 13.788920 0.876981
v 7.222812 13.788920 -1.512844
v 7.222812 13.788920 -1.807884
v 7.283426 13.254828 -1.724174
v 7.544575 12.008617 -1.363523
v 7.544575 12.008617 -1.157355
v 7.544575 12.008617 0.512605
v 9.323777 13.254828 1.058807
v 9.056101 12.008617 0.698157
v 9.056101 12.008617 0.512605
v 9.056101 12.008617 -1.157355
v 9.056101 12.008617 -1.363523
v 9.323777 13.254828 -1.724174
v 9.385907 13.788920 -1.807884
v 9.385908 13.788920 -1.512844
v 9.385908 13.788920 0.876981
v 9.385907 13.788920 1.142517
v 7.371465 12.448653 0.674375
v 7.371465 12.448653 -1.386981
v 9.237255 12.448653 0.674375
v 9.237255 12.448653 -1.386981
v 7.091786 13.781829 -1.553700
v 9.424824 13.781829 -1.553700
v 7.091786 14.490254 -2.607233
v 9.424824 14.490254 -2.607233
v 7.091786 14.371881 -2.641635
v 9.424824 14.371881 -2.641635
v 7.091786 13.679839 -1.632063
v 9.424824 13.679839 -1.632063
v 7.091786 14.469535 -2.339860
v 7.091786 14.351161 -2.374261
v 9.424824 14.351161 -2.374261
v 9.424824 14.469535 -2.339860
v 9.423422 13.753942 0.882195
v 7.093729 13.764097 0.879448
v 9.425268 14.462278 1.935783
v 7.095575 14.472437 1.933036
v 9.424713 14.343904 1.970176
v 7.095021 14.354065 1.967428
v 9.422888 13.651947 0.960549
v 7.093193 13.662106 0.957802
v 9.425493 14.441580 1.668409
v 9.424938 14.323206 1.702801
v 7.095246 14.333363 1.700053
v 7.095800 14.451738 1.665661
vt 0.617696 0.670516
vt 0.622147 0.054305
vt 0.543076 0.504060
vt 0.542936 0.523449
vt 0.584508 0.529582
vt 0.584656 0.509026
vt 0.431280 0.158206
vt 0.604947 0.529730
vt 0.804871 0.572699
vt 0.853410 0.506301
vt 0.780844 0.055451
vt 0.776394 0.671662
vt 0.636533 0.040044
vt 0.636429 0.054408
vt 0.444292 0.353959
vt 0.635496 0.183685
vt 0.612015 0.282684
vt 0.592736 0.282545
vt 0.609931 0.571291
vt 0.811614 0.531222
vt 0.811763 0.510666
vt 0.606432 0.324169
vt 0.585992 0.324022
vt 0.783449 0.572544
vt 0.788904 0.531058
vt 0.765078 0.040972
vt 0.764974 0.055336
vt 0.785533 0.283937
vt 0.764041 0.184614
vt 0.779910 0.184728
vt 0.854670 0.331795
vt 0.790388 0.325498
vt 0.813099 0.325662
vt 0.161974 0.067971
vt 0.544210 0.347004
vt 0.621306 0.170654
vt 0.585859 0.342522
vt 0.344566 0.413849
vt 0.070141 0.323631
vt 0.812965 0.344162
vt 0.854544 0.349245
vt 0.954259 0.370571
vt 0.764134 0.171686
vt 0.635589 0.170757
vt 0.171864 0.170335
vt 0.328390 0.169828
vt 0.328849 0.311503
vt 0.172323 0.312011
vt 0.790255 0.343998
vt 0.606298 0.342670
vt 0.605096 0.509174
vt 0.789052 0.510502
vt 0.780004 0.171800
vt 0.954352 0.357643
vt 0.444198 0.366887
vt 0.621213 0.183582
vt 0.953418 0.486920
vt 0.443358 0.483236
vt 0.631979 0.670619
vt 0.443254 0.497601
vt 0.622250 0.039941
vt 0.760524 0.671547
vt 0.544336 0.329553
vt 0.806955 0.284092
vt 0.853270 0.525691
vt 0.780948 0.041087
vt 0.953315 0.501285
vt 0.590651 0.571152
vt 0.069608 0.159379
vt 0.343442 0.067382
vt 0.163098 0.414438
vt 0.431813 0.322457
vt 0.230434 0.719882
vt 0.231517 0.892289
vt 0.154330 0.892773
vt 0.153248 0.720367
vt 0.353164 0.928639
vt 0.126517 0.928275
vt 0.126536 0.916300
vt 0.353183 0.916663
vt 0.272125 0.892775
vt 0.275384 0.719152
vt 0.349860 0.720549
vt 0.346602 0.894173
vt 0.009090 0.890563
vt 0.013654 0.878931
vt 0.101023 0.921575
vt 0.101004 0.933551
vt 0.466184 0.879656
vt 0.470711 0.891302
vt 0.378659 0.933995
vt 0.378678 0.922020
vt 0.252168 0.892400
vt 0.255427 0.718777
vt 0.134513 0.892898
vt 0.133430 0.720491
vt 0.746247 0.901245
vt 0.745326 0.741588
vt 0.816906 0.741175
vt 0.817828 0.900832
vt 0.848591 0.931519
vt 0.619459 0.928102
vt 0.619640 0.915978
vt 0.848772 0.919395
vt 0.709228 0.736772
vt 0.707867 0.898903
vt 0.638222 0.898319
vt 0.639582 0.736188
vt 0.501082 0.888337
vt 0.505859 0.876623
vt 0.593739 0.920975
vt 0.593558 0.933099
vt 0.963676 0.883452
vt 0.968102 0.895304
vt 0.874331 0.937286
vt 0.874512 0.925162
vt 0.727891 0.736929
vt 0.726530 0.899059
vt 0.835284 0.741069
vt 0.836206 0.900726
vn 0.000000 -0.277990 0.960584
vn -0.000000 -0.277991 0.960584
vn 0.000000 -0.233341 0.972395
vn 0.000000 -0.230516 0.973068
vn 0.000000 1.000000 0.000000
vn 0.000000 1.000000 0.000000
vn 0.000000 1.000000 0.000000
vn 0.000000 1.000000 0.000000
vn 0.000000 -0.230516 -0.973069
vn 0.000000 -0.233341 -0.972395
vn -0.000000 -0.277991 -0.960584
vn 0.000000 -0.277990 -0.960584
vn 0.000000 -1.000000 0.000000
vn 0.000000 -1.000000 0.000000
vn 0.000000 -1.000000 0.000000
vn 0.000000 -1.000000 0.000000
vn 0.967363 -0.253393 0.000000
vn 0.967364 -0.253393 0.000000
vn 0.977368 -0.211548 0.000000
vn 0.977941 -0.208881 0.000000
vn -0.977367 -0.211549 0.000000
vn -0.967363 -0.253393 0.000000
vn -0.967364 -0.253393 0.000000
vn -0.977941 -0.208882 0.000000
vn -0.990087 -0.140459 0.000000
vn -0.990087 -0.140458 0.000000
vn 0.000000 -0.154843 -0.987939
vn 0.000000 -0.154843 -0.987939
vn 0.990087 -0.140456 0.000000
vn 0.990087 -0.140455 0.000000
vn 0.000000 -0.154843 0.987939
vn 0.000000 -0.154843 0.987939
vn -0.977941 -0.208882 0.000000
vn -0.977316 -0.211789 0.000000
vn -0.990086 -0.140459 0.000000
vn -0.990087 -0.140458 0.000000
vn -0.967363 -0.253393 0.000000
vn -0.967363 -0.253393 0.000000
vn 0.000000 -1.000000 0.000000
vn 0.000000 -1.000000 0.000000
vn 0.000000 -1.000000 0.000000
vn 0.000000 -1.000000 0.000000
vn 0.977316 -0.211788 0.000000
vn 0.967364 -0.253393 0.000000
vn 0.967363 -0.253393 0.000000
vn 0.977941 -0.208882 0.000000
vn 0.990087 -0.140456 0.000000
vn 0.990087 -0.140457 0.000000
vn 0.000000 1.000000 0.000000
vn 0.000000 1.000000 0.000000
vn 0.000000 1.000000 0.000000
vn 0.000000 1.000000 0.000000
vn -0.000000 -0.233107 0.972451
vn -0.000000 -0.277991 0.960584
vn 0.000000 -0.277990 0.960584
vn 0.000000 -0.230516 0.973068
vn 0.000000 -0.154843 0.987939
vn 0.000000 -0.154843 0.987939
vn 0.000000 1.000000 0.000000
vn 0.000000 1.000000 0.000000
vn 0.000000 1.000000 0.000000
vn 0.000000 1.000000 0.000000
vn 0.000000 1.000000 0.000000
vn 0.000000 1.000000 0.000000
vn 0.000000 1.000000 0.000000
vn 0.000000 1.000000 0.000000
vn -0.000000 -0.233107 -0.972451
vn 0.000000 -0.154843 -0.987939
vn 0.000000 -0.154843 -0.987939
vn 0.000000 -0.230516 -0.973068
vn -0.000000 -0.277991 -0.960584
vn 0.000000 -0.277990 -0.960584
vn 0.000000 -1.000000 0.000000
vn 0.000000 -1.000000 0.000000
vn 0.000000 -1.000000 0.000000
vn 0.000000 -1.000000 0.000000
vn 0.000000 -1.000000 0.000000
vn 0.000000 -1.000000 0.000000
vn 0.000000 -1.000000 0.000000
vn 0.000000 -1.000000 0.000000
vn 0.000000 1.000000 0.000000
vn 0.000000 1.000000 0.000000
vn 0.000000 1.000000 0.000000
vn 0.000000 1.000000 0.000000
vn 0.993905 0.110237 0.000000
vn 0.993905 0.110237 0.000000
vn 0.993905 0.110237 0.000000
vn 0.993905 0.110237 0.000000
vn 0.000000 0.149471 -0.988766
vn 0.000000 0.149471 -0.988766
vn 0.000000 0.149471 -0.988766
vn 0.000000 0.149471 -0.988766
vn -0.993905 0.110238 0.000000
vn -0.993905 0.110238 0.000000
vn -0.993905 0.110238 0.000000
vn -0.993905 0.110238 0.000000
vn 0.000000 0.093497 0.995620
vn 0.000000 0.093497 0.995620
vn 0.000000 0.093497 0.995620
vn 0.000000 0.093497 0.995620
vn 0.000000 0.752664 0.658404
vn 0.000000 0.752664 0.658404
vn 0.000000 0.829837 0.558006
vn 0.000000 0.829837 0.558006
vn 0.000000 0.279069 -0.960271
vn 0.000000 0.279069 -0.960271
vn 0.000000 0.279069 -0.960271
vn 0.000000 0.279069 -0.960271
vn 0.000000 -0.824819 -0.565397
vn 0.000000 -0.824819 -0.565397
vn 0.000000 -0.741631 -0.670808
vn 0.000000 -0.741631 -0.670808
vn 1.000000 0.000000 0.000000
vn 1.000000 0.000000 0.000000
vn 1.000000 0.000000 0.000000
vn 1.000000 0.000000 0.000000
vn -1.000000 0.000004 0.000000
vn -1.000000 0.000004 0.000000
vn -1.000000 0.000003 0.000000
vn -1.000000 0.000003 0.000000
vn -1.000000 0.000000 0.000000
vn -1.000000 0.000000 0.000000
vn 0.000000 -0.997011 -0.077262
vn 0.000000 -0.997011 -0.077262
vn 1.000000 0.000000 0.000000
vn 1.000000 0.000000 0.000000
vn 0.000000 0.997011 0.077262
vn 0.000000 0.997011 0.077262
vn 0.004058 0.752707 -0.658343
vn 0.004058 0.752707 -0.658343
vn 0.004276 0.829871 -0.557938
vn 0.004276 0.829871 -0.557938
vn 0.000084 0.278999 0.960291
vn 0.000084 0.278999 0.960291
vn 0.000084 0.278999 0.960291
vn 0.000084 0.278999 0.960291
vn -0.004263 -0.824854 0.565330
vn -0.004263 -0.824854 0.565330
vn -0.004025 -0.741676 0.670747
vn -0.004025 -0.741676 0.670747
vn -0.999990 0.004352 -0.001171
vn -0.999990 0.004352 -0.001171
vn -0.999990 0.004349 -0.001172
vn -0.999990 0.004348 -0.001173
vn 0.999990 -0.004351 0.001167
vn 0.999990 -0.004351 0.001167
vn 0.999990 -0.004350 0.001169
vn 0.999990 -0.004351 0.001169
vn 0.999990 -0.004347 0.001178
vn 0.999990 -0.004347 0.001178
vn -0.004438 -0.997007 0.077187
vn -0.004438 -0.997007 0.077187
vn -0.999990 0.004336 -0.001178
vn -0.999990 0.004336 -0.001178
vn 0.004438 0.997007 -0.077181
vn 0.004438 0.997007 -0.077181
s 1
g pCube253
usemtl initialShadingGroup
f 1/60/1 25/58/2 26/3/3 9/4/4
s 2
f 3/5/5 27/6/6 28/51/7 19/8/8
s 3
f 10/65/9 31/10/10 32/57/11 7/67/12
s 4
f 21/13/13 34/14/14 25/2/15 1/61/16
s 5
f 2/56/17 22/16/18 23/17/19 12/18/20
s 6
f 20/19/21 21/59/22 1/1/23 9/68/24
f 19/8/25 20/19/21 9/68/24 3/5/26
s 3
f 5/20/27 30/21/28 31/10/10 10/65/9
s 5
f 12/18/20 23/17/19 24/22/29 4/23/30
s 1
f 9/4/4 26/3/3 27/6/31 3/5/32
s 6
f 10/9/33 14/24/34 13/25/35 5/20/36
f 7/12/37 15/62/38 14/24/34 10/9/33
s 4
f 7/66/39 32/11/40 33/27/41 15/26/42
s 5
f 17/28/43 16/29/44 8/30/45 11/64/46
f 18/32/47 17/28/43 11/64/46 6/33/48
s 2
f 13/25/49 29/52/50 30/21/51 5/20/52
s 6
f 13/25/35 14/24/34 20/19/21 19/8/25
f 14/24/34 15/62/38 21/59/22 20/19/21
s 4
f 15/26/42 33/27/41 34/14/14 21/13/13
s 5
f 23/17/19 22/16/18 16/29/44 17/28/43
f 24/22/29 23/17/19 17/28/43 18/32/47
s 2
f 19/8/8 28/51/7 29/52/50 13/25/49
s 1
f 35/35/53 36/55/54 2/15/55 12/63/56
f 44/37/57 35/35/53 12/63/56 4/23/58
s 2
f 43/50/59 44/37/60 4/23/61 24/22/62
f 42/49/63 43/50/59 24/22/62 18/32/64
f 41/40/65 42/49/63 18/32/64 6/33/66
s 3
f 40/41/67 41/40/68 6/33/69 11/31/70
f 39/42/71 40/41/67 11/31/70 8/54/72
s 4
f 38/43/73 39/53/74 8/30/75 16/29/76
f 37/44/77 38/43/73 16/29/76 22/16/78
f 36/36/79 37/44/77 22/16/78 2/56/80
s 1
f 26/3/3 25/58/2 36/55/54 35/35/53
s 4
f 25/2/15 34/14/14 37/44/77 36/36/79
f 34/14/14 33/27/41 38/43/73 37/44/77
f 33/27/41 32/11/40 39/53/74 38/43/73
s 3
f 32/57/11 31/10/10 40/41/67 39/42/71
f 31/10/10 30/21/28 41/40/68 40/41/67
s 2
f 30/21/51 29/52/50 42/49/63 41/40/65
s off
f 46/45/81 45/46/82 47/47/83 48/48/84
s 2
f 28/51/7 27/6/6 44/37/60 43/50/59
s 1
f 27/6/31 26/3/3 35/35/53 44/37/57
s off
f 29/34/85 28/70/86 45/46/87 46/45/88
f 28/7/89 43/72/90 47/47/91 45/46/92
f 43/38/93 42/71/94 48/48/95 47/47/96
f 42/39/97 29/69/98 46/45/99 48/48/100
s 9
f 49/73/101 50/74/102 60/75/103 57/76/104
s off
f 51/77/105 52/78/106 54/79/107 53/80/108
s 10
f 58/81/109 59/82/110 56/83/111 55/84/112
s 11
f 50/85/113 56/86/114 59/87/115 60/88/116
s 12
f 55/89/117 49/90/118 57/91/119 58/92/120
f 58/92/120 57/91/119 51/77/121 53/80/122
s 10
f 53/93/123 54/94/124 59/82/110 58/81/109
s 11
f 60/88/116 59/87/115 54/79/125 52/78/126
s 9
f 57/76/104 60/75/103 52/95/127 51/96/128
s 13
f 61/97/129 62/98/130 72/99/131 69/100/132
s off
f 63/101/133 64/102/134 66/103/135 65/104/136
s 14
f 70/105/137 71/106/138 68/107/139 67/108/140
s 15
f 62/109/141 68/110/142 71/111/143 72/112/144
s 16
f 67/113/145 61/114/146 69/115/147 70/116/148
f 70/116/148 69/115/147 63/101/149 65/104/150
s 14
f 65/117/151 66/118/152 71/106/138 70/105/137
s 15
f 72/112/144 71/111/143 66/103/153 64/102/154
s 13
f 69/100/132 72/99/131 64/119/155 63/120/156
