# This file uses centimeters as units for non-parametric coordinates.

mtllib Cardboard_Box_Sealed.mtl
g default
v 7.454044 12.083361 4.340156
v 9.241778 12.083361 4.340156
v 7.232151 13.938963 4.612115
v 9.463672 13.938963 4.612115
v 7.232151 13.938963 1.877092
v 9.463672 13.938963 1.877092
v 7.454044 12.083361 2.149051
v 9.241778 12.083361 2.149051
v 7.276728 13.567841 4.557480
v 7.276728 13.567841 1.931727
v 9.419094 13.567841 1.931727
v 9.419094 13.567841 4.557480
v 9.401075 13.954340 3.111534
v 7.260051 13.954340 3.111534
v 9.401075 13.954340 3.400367
v 7.260051 13.954340 3.400367
v 9.209945 13.954340 3.255950
v 7.514628 13.954340 3.255950
vt 0.468585 0.945627
vt 0.469722 0.256224
vt 0.394624 0.477087
vt 0.394216 0.724517
vt 0.437532 0.729737
vt 0.437957 0.472010
vt 0.753835 0.472531
vt 0.753410 0.730258
vt 0.796743 0.725181
vt 0.747597 0.429350
vt 0.970394 0.498515
vt 0.721645 0.946044
vt 0.107526 0.386914
vt 0.106493 0.767959
vt 0.073878 0.825091
vt 0.075183 0.343866
vt 0.140102 0.344042
vt 0.138798 0.825267
vt 0.444338 0.428850
vt 0.797151 0.477751
vt 0.722782 0.256641
vt 0.747029 0.773418
vt 0.723122 0.050169
vt 0.970053 0.704988
vt 0.443770 0.772918
vt 0.220973 0.703752
vt 0.470063 0.049751
vt 0.221314 0.497280
vn 0.000000 -0.144854 0.989453
vn 0.000000 -0.144854 0.989453
vn 0.000000 -0.145048 0.989425
vn 0.000000 -0.145048 0.989425
vn 0.000000 1.000000 0.000000
vn 0.000000 1.000000 0.000000
vn 0.000000 1.000000 0.000000
vn 0.000000 1.000000 0.000000
vn 0.000000 -0.145047 -0.989425
vn 0.000000 -0.145047 -0.989425
vn 0.000000 -0.144854 -0.989453
vn 0.000000 -0.144854 -0.989453
vn 0.000000 -1.000000 0.000000
vn 0.000000 -1.000000 0.000000
vn 0.000000 -1.000000 0.000000
vn 0.000000 -1.000000 0.000000
vn 0.992942 -0.118603 0.000000
vn 0.992942 -0.118603 0.000000
vn 0.992922 -0.118768 0.000000
vn 0.992922 -0.118768 0.000000
vn -0.992942 -0.118604 0.000000
vn -0.992942 -0.118604 0.000000
vn -0.992922 -0.118768 0.000000
vn -0.992922 -0.118768 0.000000
vn -0.992863 -0.119257 0.000000
vn -0.992863 -0.119257 0.000000
vn 0.000000 -0.145645 -0.989337
vn 0.000000 -0.145645 -0.989337
vn 0.992863 -0.119259 0.000000
vn 0.992863 -0.119259 0.000000
vn 0.000000 -0.145647 0.989337
vn 0.000000 -0.145647 0.989337
vn 0.000000 1.000000 -0.000000
vn 0.000000 1.000000 -0.000000
vn 0.000000 1.000000 0.000003
vn 0.000000 1.000000 0.000003
vn 0.000000 1.000000 -0.000003
vn 0.000000 1.000000 -0.000003
s 1
g pCube248
usemtl initialShadingGroup
f 1/26/1 2/28/2 12/3/3 9/4/4
s off
f 3/5/5 4/6/6 6/7/7 5/8/8
s 2
f 10/9/9 11/20/10 8/11/11 7/24/12
s off
f 7/23/13 8/21/14 2/2/15 1/27/16
s 3
f 2/2/17 8/21/18 11/10/19 12/19/20
s 4
f 7/12/21 1/1/22 9/25/23 10/22/24
f 10/22/24 9/25/23 3/5/25 5/8/26
s 2
f 5/8/27 6/7/28 11/20/10 10/9/9
s 3
f 12/19/20 11/10/19 6/7/29 4/6/30
s 1
f 9/4/4 12/3/3 4/6/31 3/5/32
s 5
f 17/13/33 18/14/34 16/15/35 15/16/36
f 13/17/37 14/18/38 18/14/34 17/13/33
